Lexend wght100.ufo
<glyph name="exclam" format="2">
  <advance width="254"/>
  <unicode hex="0021"/>
  <note>
exclam
</note>
  <outline>
    <contour>
      <point x="138" y="241.0" type="qcurve"/>
      <point x="126" y="241.0" type="line"/>
      <point x="122.0013016125878" y="334.9694121041869"/>
      <point x="122.0" y="537.0"/>
      <point x="122" y="630.0" type="qcurve"/>
      <point x="122" y="700.0" type="line"/>
      <point x="142" y="700.0" type="line"/>
      <point x="142" y="630.0" type="line" smooth="yes"/>
      <point x="142" y="537.0"/>
      <point x="142.99746013811748" y="334.9522505966085"/>
    </contour>
    <contour>
      <point x="159" y="28" type="qcurve" smooth="yes"/>
      <point x="159.0" y="13"/>
      <point x="143.0" y="-8.0"/>
      <point x="129" y="-8" type="qcurve" smooth="yes"/>
      <point x="115.0" y="-8.0"/>
      <point x="99.0" y="11"/>
      <point x="99" y="28" type="qcurve" smooth="yes"/>
      <point x="99.0" y="44.0"/>
      <point x="115" y="64.0"/>
      <point x="129" y="64" type="qcurve" smooth="yes"/>
      <point x="143" y="64.0"/>
      <point x="159.0" y="45.0"/>
    </contour>
  </outline>
</glyph>
<glyph name="numbersign" format="2">
  <advance width="687"/>
  <unicode hex="0023"/>
  <note>
numbersign
</note>
  <outline>
    <contour>
      <point x="157" y="0.0" type="line"/>
      <point x="132" y="0.0" type="line"/>
      <point x="252" y="700.0" type="line"/>
      <point x="277" y="700.0" type="line"/>
    </contour>
    <contour>
      <point x="646" y="475" type="line"/>
      <point x="79" y="475" type="line"/>
      <point x="79" y="497" type="line"/>
      <point x="646" y="497" type="line"/>
    </contour>
    <contour>
      <point x="433" y="0.0" type="line"/>
      <point x="408" y="0.0" type="line"/>
      <point x="528" y="700.0" type="line"/>
      <point x="553" y="700.0" type="line"/>
    </contour>
    <contour>
      <point x="609" y="216" type="line"/>
      <point x="41" y="216" type="line"/>
      <point x="41" y="238" type="line"/>
      <point x="609" y="238" type="line"/>
    </contour>
  </outline>
</glyph>
<glyph name="dollar" format="2">
  <advance width="578"/>
  <unicode hex="0024"/>
  <note>
dollar
</note>
  <anchor x="323.99993917558874" y="0" name="bottom"/>
  <anchor x="323.99993917558874" y="700.0" name="top"/>
  <outline>
    <contour>
      <point x="288" y="359.0" type="line"/>
      <point x="310" y="354.0" type="line"/>
      <point x="310" y="-91.0" type="line"/>
      <point x="288" y="-91.0" type="line"/>
    </contour>
    <contour>
      <point x="310" y="358.0" type="line"/>
      <point x="288" y="363.0" type="line"/>
      <point x="288" y="782.0" type="line"/>
      <point x="310" y="782.0" type="line"/>
    </contour>
    <contour>
      <point x="54.49990876338311" y="91.50069948072945" type="qcurve"/>
      <point x="72" y="106" type="line"/>
      <point x="113" y="62"/>
      <point x="226" y="12"/>
      <point x="298" y="12" type="qcurve" smooth="yes"/>
      <point x="382" y="12"/>
      <point x="503" y="102"/>
      <point x="503" y="170" type="qcurve" smooth="yes"/>
      <point x="503" y="244"/>
      <point x="389" y="314"/>
      <point x="286" y="348" type="qcurve" smooth="yes"/>
      <point x="190" y="380"/>
      <point x="88" y="454"/>
      <point x="88" y="529" type="qcurve" smooth="yes"/>
      <point x="88" y="608"/>
      <point x="208" y="703"/>
      <point x="298" y="703" type="qcurve"/>
      <point x="376" y="703"/>
      <point x="477" y="643"/>
      <point x="509" y="605" type="qcurve"/>
      <point x="491" y="589" type="line"/>
      <point x="463" y="623"/>
      <point x="365" y="681"/>
      <point x="299" y="681" type="qcurve"/>
      <point x="217" y="681"/>
      <point x="111" y="595"/>
      <point x="111" y="526" type="qcurve" smooth="yes"/>
      <point x="111" y="469"/>
      <point x="203" y="405"/>
      <point x="313" y="366" type="qcurve" smooth="yes"/>
      <point x="411" y="331"/>
      <point x="526" y="258"/>
      <point x="526" y="170" type="qcurve" smooth="yes"/>
      <point x="526" y="94"/>
      <point x="392" y="-10.0"/>
      <point x="297" y="-10.0" type="qcurve"/>
      <point x="225" y="-10.0"/>
      <point x="95" y="44"/>
    </contour>
  </outline>
</glyph>
<glyph name="percent" format="2">
  <advance width="854"/>
  <unicode hex="0025"/>
  <note>
percent
</note>
  <outline>
    <contour>
      <point x="354" y="518.0" type="qcurve"/>
      <point x="354.0" y="438.0"/>
      <point x="266" y="329.0"/>
      <point x="200" y="329.0" type="qcurve"/>
      <point x="132" y="329.0"/>
      <point x="47.0" y="436.0"/>
      <point x="47" y="518.0" type="qcurve"/>
      <point x="47.0" y="601.0"/>
      <point x="132" y="709.0"/>
      <point x="200" y="709.0" type="qcurve"/>
      <point x="267" y="709.0"/>
      <point x="354.0" y="601.0"/>
    </contour>
    <contour>
      <point x="69" y="518.0" type="qcurve"/>
      <point x="69.0" y="443.0"/>
      <point x="143" y="350.0"/>
      <point x="200" y="350" type="qcurve"/>
      <point x="256" y="350.0"/>
      <point x="332.0" y="443.0"/>
      <point x="332" y="518.0" type="qcurve"/>
      <point x="332.0" y="594.0"/>
      <point x="258" y="688.0"/>
      <point x="200" y="688" type="qcurve"/>
      <point x="143" y="688.0"/>
      <point x="69.0" y="593.0"/>
    </contour>
    <contour>
      <point x="798" y="180.0" type="qcurve"/>
      <point x="798.0" y="100.0"/>
      <point x="710" y="-9.0"/>
      <point x="644" y="-9.0" type="qcurve"/>
      <point x="576" y="-9.0"/>
      <point x="491.0" y="98.0"/>
      <point x="491" y="180.0" type="qcurve"/>
      <point x="491.0" y="263.0"/>
      <point x="576" y="371.0"/>
      <point x="644" y="371.0" type="qcurve"/>
      <point x="711" y="371.0"/>
      <point x="798.0" y="263.0"/>
    </contour>
    <contour>
      <point x="513" y="180.0" type="qcurve"/>
      <point x="513.0" y="105.0"/>
      <point x="587" y="12.0"/>
      <point x="644" y="12" type="qcurve"/>
      <point x="700" y="12.0"/>
      <point x="776.0" y="105.0"/>
      <point x="776" y="180.0" type="qcurve"/>
      <point x="776.0" y="256.0"/>
      <point x="702" y="350.0"/>
      <point x="644" y="350" type="qcurve"/>
      <point x="587" y="350.0"/>
      <point x="513.0" y="255.0"/>
    </contour>
    <contour>
      <point x="206" y="0.0" type="line"/>
      <point x="179" y="0.0" type="line"/>
      <point x="427" y="379" type="line"/>
      <point x="644" y="700.0" type="line"/>
      <point x="671" y="700.0" type="line"/>
      <point x="424" y="333" type="line"/>
    </contour>
  </outline>
</glyph>
<glyph name="ampersand" format="2">
  <advance width="678"/>
  <unicode hex="0026"/>
  <note>
ampersand
</note>
  <outline>
    <contour>
      <point x="315" y="-10" type="qcurve"/>
      <point x="197" y="-10"/>
      <point x="50" y="113"/>
      <point x="50" y="221" type="qcurve"/>
      <point x="50" y="288"/>
      <point x="129" y="402"/>
      <point x="206" y="432" type="qcurve"/>
      <point x="217" y="413" type="line"/>
      <point x="151" y="391"/>
      <point x="73.0" y="284.32984293193715"/>
      <point x="73" y="221" type="qcurve"/>
      <point x="73" y="129"/>
      <point x="211" y="12"/>
      <point x="319" y="12" type="qcurve"/>
      <point x="445" y="12"/>
      <point x="607" y="184"/>
      <point x="624" y="329" type="qcurve"/>
      <point x="646" y="329" type="line"/>
      <point x="628" y="178"/>
      <point x="459" y="-10"/>
    </contour>
    <contour>
      <point x="611" y="0.0" type="line"/>
      <point x="579" y="0.0" type="line"/>
      <point x="514" y="71" type="line"/>
      <point x="495" y="90" type="line"/>
      <point x="293.0" y="309.0" type="line" smooth="yes"/>
      <point x="217" y="392"/>
      <point x="168.0" y="470"/>
      <point x="168.0" y="526" type="qcurve"/>
      <point x="168.0" y="604.0"/>
      <point x="282" y="703.0"/>
      <point x="373" y="703" type="qcurve"/>
      <point x="444" y="703.0"/>
      <point x="542" y="639"/>
      <point x="567.0" y="578.0" type="qcurve"/>
      <point x="548" y="567" type="line"/>
      <point x="522" y="626"/>
      <point x="435" y="681.0"/>
      <point x="373" y="681" type="qcurve"/>
      <point x="289" y="681.0"/>
      <point x="191.0" y="594.0"/>
      <point x="191" y="528" type="qcurve"/>
      <point x="191.0" y="478.0"/>
      <point x="231" y="412"/>
      <point x="294" y="343.0" type="qcurve" smooth="yes"/>
      <point x="524" y="92" type="line"/>
      <point x="531" y="84" type="line"/>
    </contour>
  </outline>
</glyph>
<glyph name="quotesingle" format="2">
  <advance width="187"/>
  <unicode hex="0027"/>
  <note>
quotesingle
</note>
  <outline>
    <contour>
      <point x="56" y="442.0" type="line"/>
      <point x="94" y="700.0" type="line"/>
      <point x="136" y="700.0" type="line"/>
      <point x="76" y="442.0" type="line"/>
    </contour>
  </outline>
</glyph>
<glyph name="asterisk" format="2">
  <advance width="402"/>
  <unicode hex="002A"/>
  <note>
asterisk
</note>
  <outline>
    <contour>
      <point x="213" y="376.0" type="line"/>
      <point x="185" y="376.0" type="line"/>
      <point x="190.99951340470994" y="535.9990876338311" type="line"/>
      <point x="200.49942216809305" y="529.9992092826536" type="line"/>
      <point x="68" y="452" type="line"/>
      <point x="51" y="476" type="line"/>
      <point x="194.99896598500862" y="547.4998479389718" type="line"/>
      <point x="195.99890516059736" y="529.0001216488225" type="line"/>
      <point x="52" y="602" type="line"/>
      <point x="67" y="627" type="line"/>
      <point x="203.4993613436818" y="545.5007603051407" type="line"/>
      <point x="190.99951340470994" y="528.0011556638138" type="line"/>
      <point x="185" y="700.0" type="line"/>
      <point x="213" y="700.0" type="line"/>
      <point x="207.00036494646756" y="538.5006994807295" type="line"/>
      <point x="193.00048659529006" y="545.000729892935" type="line"/>
      <point x="335" y="627" type="line"/>
      <point x="350" y="602" type="line"/>
      <point x="208.00072989293508" y="532.4999695877943" type="line"/>
      <point x="208.00072989293508" y="544.9999391755888" type="line"/>
      <point x="350" y="476" type="line"/>
      <point x="334" y="452" type="line"/>
      <point x="198.50033453426192" y="530.4992396948593" type="line"/>
      <point x="206.5003953586732" y="534.4991180460368" type="line"/>
    </contour>
  </outline>
</glyph>
<glyph name="period" format="2">
  <advance width="228"/>
  <unicode hex="002E"/>
  <note>
period
</note>
  <outline>
    <contour>
      <point x="145.50076030514072" y="28.00072989293509" type="qcurve" smooth="yes"/>
      <point x="145.50076030514072" y="11.500395358673174"/>
      <point x="128.50033453426192" y="-9.500030412205628"/>
      <point x="114.0" y="-9.500030412205628" type="qcurve" smooth="yes"/>
      <point x="98.99963505353246" y="-9.500030412205628"/>
      <point x="82.49923969485928" y="10.000364946467545"/>
      <point x="82.49923969485928" y="28.00072989293509" type="qcurve" smooth="yes"/>
      <point x="82.49923969485928" y="44.50106442719701"/>
      <point x="99.49966546573808" y="65.50149019807581"/>
      <point x="114.0" y="65.50149019807581" type="qcurve" smooth="yes"/>
      <point x="129.00036494646756" y="65.50149019807581"/>
      <point x="145.50076030514072" y="46.00109483940263"/>
    </contour>
  </outline>
</glyph>
<glyph name="slash" format="2">
  <advance width="566"/>
  <unicode hex="002F"/>
  <note>
slash
</note>
  <outline>
    <contour>
      <point x="100" y="-95" type="line"/>
      <point x="73" y="-95" type="line"/>
      <point x="467" y="700.0" type="line"/>
      <point x="494" y="700.0" type="line"/>
    </contour>
  </outline>
</glyph>
<glyph name="zero" format="2">
  <advance width="620"/>
  <unicode hex="0030"/>
  <outline>
    <contour>
      <point x="568" y="350.0" type="qcurve"/>
      <point x="568" y="174"/>
      <point x="436" y="-10.0"/>
      <point x="310" y="-10.0" type="qcurve"/>
      <point x="184" y="-10.0"/>
      <point x="52" y="174"/>
      <point x="52" y="350.0" type="qcurve"/>
      <point x="52" y="526"/>
      <point x="184" y="710.0"/>
      <point x="310" y="710.0" type="qcurve"/>
      <point x="436" y="710.0"/>
      <point x="568" y="526"/>
    </contour>
    <contour>
      <point x="75" y="350.0" type="qcurve"/>
      <point x="75.0" y="187"/>
      <point x="197.0" y="12.0"/>
      <point x="310" y="12" type="qcurve"/>
      <point x="424.0" y="12.0"/>
      <point x="545.0" y="187"/>
      <point x="545" y="350.0" type="qcurve"/>
      <point x="545.0" y="513"/>
      <point x="424.0" y="688.0"/>
      <point x="310" y="688" type="qcurve"/>
      <point x="197.0" y="688.0"/>
      <point x="75.0" y="513"/>
    </contour>
  </outline>
</glyph>
<glyph name="one" format="2">
  <advance width="379"/>
  <unicode hex="0031"/>
  <outline>
    <contour>
      <point x="201" y="8" type="line"/>
      <point x="179" y="8" type="line"/>
      <point x="179" y="678" type="line"/>
      <point x="184" y="678" type="line"/>
      <point x="74" y="587" type="line"/>
      <point x="67" y="606" type="line"/>
      <point x="190" y="710.0" type="line"/>
      <point x="201" y="710.0" type="line"/>
    </contour>
    <contour>
      <point x="309" y="22" type="line"/>
      <point x="309" y="0.0" type="line"/>
      <point x="72" y="0.0" type="line"/>
      <point x="72" y="22" type="line"/>
    </contour>
  </outline>
</glyph>
<glyph name="two" format="2">
  <advance width="548"/>
  <unicode hex="0032"/>
  <outline>
    <contour>
      <point x="94" y="22" type="line"/>
      <point x="506.0" y="22" type="line"/>
      <point x="506.0" y="0.0" type="line"/>
      <point x="78.0" y="0.0" type="line"/>
      <point x="72" y="13" type="line"/>
      <point x="362" y="323.0" type="line" smooth="yes"/>
      <point x="393" y="356"/>
      <point x="471" y="470"/>
      <point x="471" y="535" type="qcurve"/>
      <point x="471.0" y="600.0"/>
      <point x="364.13684210526316" y="688.0"/>
      <point x="283" y="688" type="qcurve"/>
      <point x="223.42156862745097" y="688.0"/>
      <point x="105.95172595165592" y="612.8352023866875"/>
      <point x="77" y="514" type="qcurve"/>
      <point x="56.0" y="524" type="line"/>
      <point x="84.90676598985685" y="621.6849333450335"/>
      <point x="206.31277533039648" y="710.0"/>
      <point x="285" y="710.0" type="qcurve"/>
      <point x="373.1563981042654" y="710.0"/>
      <point x="494.0" y="612.0"/>
      <point x="494.0" y="536" type="qcurve"/>
      <point x="494.0" y="470.1095890410959"/>
      <point x="424" y="356"/>
      <point x="385" y="314" type="qcurve" smooth="yes"/>
      <point x="94" y="4" type="line"/>
    </contour>
  </outline>
</glyph>
<glyph name="three" format="2">
  <advance width="529"/>
  <unicode hex="0033"/>
  <outline>
    <contour>
      <point x="20.0" y="138.0" type="qcurve"/>
      <point x="45.50118607601952" y="153.50076030514072" type="line"/>
      <point x="94.50094277837448" y="73.50124690043077"/>
      <point x="204.00024329764503" y="17.501368549253286"/>
      <point x="266.49984793897187" y="17.501368549253286" type="qcurve"/>
      <point x="350.9992092826536" y="17.501368549253286"/>
      <point x="464.99847938971857" y="132.00060824411258"/>
      <point x="464.99847938971857" y="212.00018247323376" type="qcurve" smooth="yes"/>
      <point x="464.99847938971857" y="294.99969587794374"/>
      <point x="343.4996654657381" y="417.4985098019242"/>
      <point x="260.5002128854394" y="417.4985098019242" type="qcurve"/>
      <point x="237.00018247323376" y="417.4985098019242"/>
      <point x="178.00018247323376" y="393.49869227515796"/>
      <point x="139.5002128854394" y="346.99933093147615" type="qcurve"/>
      <point x="127.49984793897185" y="376.5003345342619" type="line"/>
      <point x="434.9979927944285" y="702.9985402141298" type="line"/>
      <point x="443.9982360920735" y="677.9984185653072" type="line"/>
      <point x="88.99939175588743" y="677.9984185653072" type="line"/>
      <point x="88.99939175588743" y="700.0" type="line"/>
      <point x="421.0007907173464" y="700.0" type="line"/>
      <point x="441.0007907173464" y="660.0" type="line"/>
      <point x="182.0013989614589" y="400.0001216488225" type="line"/>
      <point x="172.00109483940264" y="409.50045618308445" type="line"/>
      <point x="193.30982251319932" y="425.57806667201527"/>
      <point x="227.22816021072788" y="443.0"/>
      <point x="257.50051700749566" y="443.0" type="qcurve"/>
      <point x="357.50027370985066" y="443.0"/>
      <point x="492.5000304122056" y="307.5002128854394"/>
      <point x="492.5000304122056" y="210.50033453426192" type="qcurve" smooth="yes"/>
      <point x="492.5000304122056" y="119.00012164882251"/>
      <point x="361.9998175267662" y="-10.0"/>
      <point x="264.49972629014934" y="-10.0" type="qcurve"/>
      <point x="190.49972629014934" y="-10.0"/>
      <point x="69.49996958779437" y="56.50003041220563"/>
    </contour>
  </outline>
</glyph>
<glyph name="five" format="2">
  <advance width="568"/>
  <unicode hex="0035"/>
  <outline>
    <contour>
      <point x="508.0" y="239.49996958779437" type="qcurve"/>
      <point x="508.0" y="134.0"/>
      <point x="364.0" y="-7.0"/>
      <point x="257.0" y="-7.0" type="qcurve"/>
      <point x="188.0" y="-7.0"/>
      <point x="76.0" y="56.0"/>
      <point x="39.0" y="115.0" type="qcurve"/>
      <point x="60.00079071734635" y="135.50094277837448" type="line"/>
      <point x="95.00103401499138" y="71.50118607601952"/>
      <point x="208.50015206102813" y="18.501490198075814"/>
      <point x="258.4999695877944" y="18.501490198075814" type="qcurve"/>
      <point x="353.49930051927055" y="18.501490198075814"/>
      <point x="483.99835774089604" y="153.00036494646756"/>
      <point x="483.99835774089604" y="245.99963505353244" type="qcurve"/>
      <point x="483.99835774089604" y="328.499178870448"/>
      <point x="372.4989963972142" y="445.9984185653073"/>
      <point x="278.49972629014934" y="445.9984185653073" type="qcurve"/>
      <point x="226.5002128854394" y="445.9984185653073"/>
      <point x="106.50155102248706" y="398.49911804603676"/>
      <point x="87.50076030514072" y="378.498935572803" type="qcurve"/>
      <point x="68.0" y="403.0" type="line"/>
      <point x="109.0" y="700.0" type="line"/>
      <point x="487.0" y="700.0" type="line"/>
      <point x="487.0" y="679.4983881531017" type="line"/>
      <point x="97.50161184689833" y="679.4983881531017" type="line"/>
      <point x="130.5013685492533" y="693.9984793897186" type="line"/>
      <point x="87.0015814346927" y="404.49984793897187" type="line"/>
      <point x="68.00145978587018" y="397.5005778319069" type="line"/>
      <point x="107.00097319058011" y="426.00030412205626"/>
      <point x="217.00054741970132" y="468.0"/>
      <point x="276.50015206102813" y="468.0" type="qcurve"/>
      <point x="374.0001216488225" y="468.0"/>
      <point x="508.0" y="339.0"/>
    </contour>
  </outline>
</glyph>
<glyph name="six" format="2">
  <advance width="605"/>
  <unicode hex="0036"/>
  <outline>
    <contour>
      <point x="532.4997871145606" y="221.00079071734635" type="qcurve"/>
      <point x="532.4997871145606" y="127.0004257708788"/>
      <point x="393.9998783511775" y="0.0"/>
      <point x="308.49948299250434" y="0.0" type="qcurve"/>
      <point x="202.99951340470994" y="0.0"/>
      <point x="69.99939175588743" y="138.50003041220563"/>
      <point x="69.99939175588743" y="251.4999087633831" type="qcurve"/>
      <point x="69.99939175588743" y="295.0001216488225"/>
      <point x="112.99975670235497" y="428.00066906852385"/>
      <point x="156.00006082441126" y="501.0011556638139" type="qcurve"/>
      <point x="278.4994221680931" y="709.0000608244112" type="line"/>
      <point x="301.00109483940264" y="709.0000608244112" type="line"/>
      <point x="305.00109483940264" y="699.0000608244112" type="line"/>
      <point x="186.0012773126364" y="500.5003345342619" type="line" smooth="yes"/>
      <point x="168.00072989293508" y="470.9993917558874"/>
      <point x="124.50039535867317" y="380.99854021412983"/>
      <point x="81.00103401499138" y="297.4992396948593" type="qcurve"/>
      <point x="84.00048659529006" y="312.0010340149914" type="line"/>
      <point x="122.00048659529006" y="375.5010036027858"/>
      <point x="235.00024329764503" y="456.00066906852385"/>
      <point x="303.50009123661687" y="456.00066906852385" type="qcurve"/>
      <point x="399.49990876338313" y="456.00066906852385"/>
      <point x="532.4997871145606" y="320.00066906852385"/>
    </contour>
    <contour>
      <point x="97.50094277837448" y="224.00048659529006" type="qcurve" smooth="yes"/>
      <point x="97.50094277837448" y="140.00091236616885"/>
      <point x="216.00012164882253" y="23.501551022487064"/>
      <point x="299.4996654657381" y="23.501551022487064" type="qcurve" smooth="yes"/>
      <point x="385.99908763383115" y="23.501551022487064"/>
      <point x="504.9982360920735" y="141.50082112955198"/>
      <point x="504.9982360920735" y="224.50045618308442" type="qcurve" smooth="yes"/>
      <point x="504.9982360920735" y="311.9998175267662"/>
      <point x="386.4990572216255" y="430.9991484582424"/>
      <point x="298.49972629014934" y="430.9991484582424" type="qcurve" smooth="yes"/>
      <point x="215.50015206102813" y="430.9991484582424"/>
      <point x="97.50094277837448" y="309.99993917558874"/>
    </contour>
  </outline>
</glyph>
<glyph name="nine" format="2">
  <advance width="548"/>
  <unicode hex="0039"/>
  <outline>
    <contour>
      <point x="44.999695877943715" y="482.9995742291212" type="qcurve"/>
      <point x="44.999695877943715" y="579.4997871145606"/>
      <point x="183.49972629014934" y="709.0000608244112"/>
      <point x="278.49990876338313" y="709.0000608244112" type="qcurve"/>
      <point x="376.99993917558874" y="709.0000608244112"/>
      <point x="505.5002128854394" y="575.0"/>
      <point x="505.5002128854394" y="476.5000304122056" type="qcurve"/>
      <point x="505.5002128854394" y="428.0"/>
      <point x="461.00024329764506" y="297.49990876338313"/>
      <point x="402.00030412205626" y="174.0" type="qcurve" smooth="yes"/>
      <point x="319.00030412205626" y="0.0" type="line"/>
      <point x="302.99847938971857" y="0.0" type="line"/>
      <point x="298.99847938971857" y="10.0" type="line"/>
      <point x="496.49869227515796" y="401.0010340149914" type="line"/>
      <point x="509.99847938971857" y="416.9990268094199" type="line"/>
      <point x="462.9987226873636" y="329.4996046413268"/>
      <point x="349.498935572803" y="243.0"/>
      <point x="275.49930051927055" y="243.0" type="qcurve"/>
      <point x="178.99951340470994" y="243.0"/>
      <point x="44.999695877943715" y="381.9998175267662"/>
    </contour>
    <contour>
      <point x="483.9982969164848" y="479.9998783511775" type="qcurve" smooth="yes"/>
      <point x="483.9982969164848" y="565.9993309314762"/>
      <point x="363.9992092826536" y="685.4985098019242"/>
      <point x="279.49972629014934" y="685.4985098019242" type="qcurve" smooth="yes"/>
      <point x="191.0004257708788" y="685.4985098019242"/>
      <point x="69.00145978587018" y="564.499422168093"/>
      <point x="69.00145978587018" y="479.49990876338313" type="qcurve" smooth="yes"/>
      <point x="69.00145978587018" y="390.00066906852385"/>
      <point x="190.50045618308442" y="268.00152061028143"/>
      <point x="280.4996654657381" y="268.00152061028143" type="qcurve" smooth="yes"/>
      <point x="364.9991484582424" y="268.00152061028143"/>
      <point x="483.9982969164848" y="392.0005474197013"/>
    </contour>
  </outline>
</glyph>
<glyph name="less" format="2">
  <advance width="472"/>
  <unicode hex="003C"/>
  <note>
less
</note>
  <outline>
    <contour>
      <point x="69.50057783190695" y="252.49930051927055" type="line"/>
      <point x="69.50057783190695" y="253.5006386563182" type="line"/>
      <point x="415.0008515417576" y="53.50051700749569" type="line"/>
      <point x="404.50009123661687" y="35.4993613436818" type="line"/>
      <point x="56.99981752676623" y="234.99951340470994" type="line"/>
      <point x="56.99981752676623" y="271.0004257708788" type="line"/>
      <point x="404.50009123661687" y="470.5005778319069" type="line"/>
      <point x="415.0008515417576" y="452.4994221680931" type="line"/>
    </contour>
  </outline>
</glyph>
<glyph name="equal" format="2">
  <advance width="566"/>
  <unicode hex="003D"/>
  <note>
equal
</note>
  <outline>
    <contour>
      <point x="501.00030412205626" y="345.99969587794374" type="line"/>
      <point x="64.99969587794371" y="345.99969587794374" type="line"/>
      <point x="64.99969587794371" y="373.0009731905801" type="line"/>
      <point x="501.00030412205626" y="373.0009731905801" type="line"/>
    </contour>
    <contour>
      <point x="501.00030412205626" y="188.49905722162552" type="line"/>
      <point x="64.99969587794371" y="188.49905722162552" type="line"/>
      <point x="64.99969587794371" y="216.0003041220563" type="line"/>
      <point x="501.00030412205626" y="216.0003041220563" type="line"/>
    </contour>
  </outline>
</glyph>
<glyph name="greater" format="2">
  <advance width="470"/>
  <unicode hex="003E"/>
  <note>
greater
</note>
  <outline>
    <contour>
      <point x="405.00030412205626" y="253.5006386563182" type="line"/>
      <point x="405.00030412205626" y="252.49930051927055" type="line"/>
      <point x="59.50003041220563" y="452.4994221680931" type="line"/>
      <point x="70.00079071734635" y="470.5005778319069" type="line"/>
      <point x="417.501064427197" y="271.0004257708788" type="line"/>
      <point x="417.501064427197" y="234.99951340470994" type="line"/>
      <point x="70.00079071734635" y="35.4993613436818" type="line"/>
      <point x="59.50003041220563" y="53.50051700749569" type="line"/>
    </contour>
  </outline>
</glyph>
<glyph name="at" format="2">
  <advance width="986"/>
  <unicode hex="0040"/>
  <note>
at
</note>
  <guideline x="691" y="490" angle="260.1341930569156" identifier="G651Kfo8By"/>
  <outline>
    <contour>
      <point x="931" y="384" type="qcurve" smooth="yes"/>
      <point x="931.0" y="229.0"/>
      <point x="785.0" y="55.0"/>
      <point x="701" y="55.0" type="qcurve"/>
      <point x="635.0" y="55.0"/>
      <point x="624.2639699571514" y="152.92389485002988"/>
      <point x="640" y="208" type="qcurve" smooth="yes"/>
      <point x="646" y="229" type="line"/>
      <point x="656" y="218" type="line"/>
      <point x="630.429970925188" y="143.1839890033276"/>
      <point x="515" y="55.0"/>
      <point x="443" y="55.0" type="qcurve" smooth="yes"/>
      <point x="370" y="55.0"/>
      <point x="274" y="152"/>
      <point x="274" y="231" type="qcurve" smooth="yes"/>
      <point x="274.0" y="305.31818181818176"/>
      <point x="321.08197282936084" y="413.0776584699208"/>
      <point x="359" y="449" type="qcurve" smooth="yes"/>
      <point x="392.26767602141143" y="481.2595646268232"/>
      <point x="465.00000000000006" y="510.0"/>
      <point x="501" y="510.0" type="qcurve"/>
      <point x="555.0782122905028" y="510.0"/>
      <point x="656.0280946100368" y="450.9050134613041"/>
      <point x="677" y="380" type="qcurve"/>
      <point x="672" y="380" type="line"/>
      <point x="693.9982360920735" y="501.0" type="line"/>
      <point x="715.4998479389718" y="501.0" type="line"/>
      <point x="655.0000608244112" y="186.0003041220563" type="line"/>
      <point x="653.0000608244112" y="177.00018247323376" type="line" smooth="yes"/>
      <point x="642.2995715983449" y="128.84733010497786"/>
      <point x="663.0" y="77.0"/>
      <point x="699" y="77" type="qcurve"/>
      <point x="772.0" y="77.0"/>
      <point x="908.0" y="240.0"/>
      <point x="908" y="382" type="qcurve" smooth="yes"/>
      <point x="908.0" y="518"/>
      <point x="703.0" y="688.0"/>
      <point x="547" y="688" type="qcurve"/>
      <point x="335.0" y="688.0"/>
      <point x="78.0" y="400.1101321585903"/>
      <point x="78" y="231" type="qcurve"/>
      <point x="78.0" y="69.30748663101605"/>
      <point x="275.0" y="-140.0"/>
      <point x="424" y="-140" type="qcurve" smooth="yes"/>
      <point x="472" y="-140.0"/>
      <point x="578" y="-115"/>
      <point x="625" y="-95" type="qcurve" smooth="yes"/>
      <point x="639" y="-89"/>
      <point x="662.9762083257738" y="-75.02379167422609"/>
      <point x="665" y="-73" type="qcurve"/>
      <point x="677" y="-91.0" type="line"/>
      <point x="625" y="-123"/>
      <point x="485" y="-162.0"/>
      <point x="424" y="-162.0" type="qcurve" smooth="yes"/>
      <point x="261.0" y="-162.0"/>
      <point x="55.0" y="52.33419023136247"/>
      <point x="55" y="224" type="qcurve"/>
      <point x="55.0" y="325.938080495356"/>
      <point x="122.53346746970013" y="483.76738623626454"/>
      <point x="180" y="550" type="qcurve" smooth="yes"/>
      <point x="242.71597367735643" y="622.6708901340797"/>
      <point x="424.6796657381616" y="710.0"/>
      <point x="546" y="710.0" type="qcurve"/>
      <point x="716" y="710.0"/>
      <point x="931" y="526"/>
    </contour>
    <contour>
      <point x="297" y="232.0" type="qcurve" smooth="yes"/>
      <point x="297" y="164"/>
      <point x="379.1095890410959" y="77.0"/>
      <point x="445" y="77" type="qcurve" smooth="yes"/>
      <point x="528.6093023255814" y="77.0"/>
      <point x="640" y="195"/>
      <point x="659" y="305" type="qcurve" smooth="yes"/>
      <point x="660" y="312"/>
      <point x="662.0" y="324.7142857142857"/>
      <point x="662" y="329" type="qcurve" smooth="yes"/>
      <point x="662.0" y="398.9216867469879"/>
      <point x="569" y="488.0"/>
      <point x="501" y="488" type="qcurve"/>
      <point x="423" y="488"/>
      <point x="297" y="345"/>
    </contour>
  </outline>
</glyph>
<glyph name="A" format="2">
  <advance width="621"/>
  <unicode hex="0041"/>
  <note>
A
</note>
  <anchor x="308.50088195396324" y="0" name="bottom"/>
  <anchor x="592.5003345342619" y="10.0" name="ogonek"/>
  <anchor x="310.0008515417576" y="700.0" name="top"/>
  <outline>
    <contour>
      <point x="302.50069948072945" y="724.4977190845779" type="qcurve"/>
      <point x="316.50088195396324" y="723.9977494967835" type="line"/>
      <point x="290.8313445745299" y="643.0175608555201"/>
      <point x="268.3207599082771" y="588.5471402605119"/>
      <point x="238.50112525160827" y="507.9981752676623" type="qcurve" smooth="yes"/>
      <point x="48.00176390792646" y="0.0" type="line"/>
      <point x="25.0" y="0.0" type="line"/>
      <point x="288.50015206102813" y="700.0" type="line"/>
      <point x="335.50142937366456" y="700.0" type="line"/>
      <point x="595.5016118468983" y="0.0" type="line"/>
      <point x="568.9998175267663" y="0.0" type="line"/>
      <point x="377.50045618308445" y="514.998114443251" type="line" smooth="yes"/>
      <point x="348.1738244589817" y="593.34033396686"/>
      <point x="326.54897731794694" y="646.6627540258083"/>
    </contour>
    <contour>
      <point x="304.5010036027858" y="229.49887474839173" type="line"/>
      <point x="128.50033453426192" y="229.49887474839173" type="line"/>
      <point x="137.0009731905801" y="252.5005170074957" type="line"/>
      <point x="304.5010036027858" y="252.5005170074957" type="line"/>
    </contour>
    <contour>
      <point x="498.0010340149914" y="229.49887474839173" type="line"/>
      <point x="304.5010036027858" y="229.49887474839173" type="line"/>
      <point x="304.5010036027858" y="252.5005170074957" type="line"/>
      <point x="492.5002128854394" y="252.5005170074957" type="line"/>
    </contour>
  </outline>
</glyph>
<glyph name="B" format="2">
  <advance width="651"/>
  <unicode hex="0042"/>
  <note>
B
</note>
  <anchor x="339.39750653660644" y="0" name="bottom"/>
  <anchor x="339.39750653660644" y="700.0" name="top"/>
  <outline>
    <contour>
      <point x="112.99969587794371" y="700.0" type="line"/>
      <point x="381.0001824732338" y="700.0" type="line"/>
      <point x="455.0007298929351" y="700.0"/>
      <point x="563.0006690685238" y="596.5002737098506"/>
      <point x="563.0006690685238" y="524.0" type="qcurve"/>
      <point x="563.0006690685238" y="449.00006082441126"/>
      <point x="450.5009427783745" y="346.0003649464675"/>
      <point x="369.0008515417576" y="345.0003649464675" type="qcurve"/>
      <point x="370.0008515417576" y="381.0003649464675" type="line"/>
      <point x="471.0007298929351" y="381.0003649464675"/>
      <point x="600.0006690685238" y="279.5003345342619"/>
      <point x="600.0006690685238" y="206.0" type="qcurve"/>
      <point x="600.0006690685238" y="120.99969587794371"/>
      <point x="478.5006386563182" y="0.0"/>
      <point x="391.0001824732338" y="0.0" type="qcurve"/>
      <point x="112.99969587794371" y="0.0" type="line"/>
    </contour>
    <contour>
      <point x="537.4989963972142" y="526.9995134047099" type="qcurve" smooth="yes"/>
      <point x="537.4989963972142" y="589.9991484582424"/>
      <point x="451.99951340470994" y="676.998357740896"/>
      <point x="377.9998783511775" y="676.998357740896" type="qcurve"/>
      <point x="127.00139896145892" y="676.998357740896" type="line"/>
      <point x="134.00145978587017" y="710.9981752676623" type="line"/>
      <point x="134.00145978587017" y="354.00091236616885" type="line"/>
      <point x="128.0013989614589" y="378.5006386563182" type="line"/>
      <point x="375.0001824732338" y="378.5006386563182" type="line"/>
      <point x="445.4996654657381" y="381.0006082441126"/>
      <point x="537.4989963972142" y="464.99993917558874"/>
    </contour>
    <contour>
      <point x="572.4989963972142" y="193.0003041220563" type="qcurve"/>
      <point x="572.4989963972142" y="262.49984793897187"/>
      <point x="461.99975670235494" y="355.4989963972142"/>
      <point x="380.0001824732338" y="355.4989963972142" type="qcurve"/>
      <point x="132.0013989614589" y="355.4989963972142" type="line"/>
      <point x="134.00145978587017" y="368.99908763383115" type="line"/>
      <point x="134.00145978587017" y="-5.998175267662276" type="line"/>
      <point x="131.0013989614589" y="23.001642259103946" type="line"/>
      <point x="385.0001824732338" y="23.001642259103946" type="line"/>
      <point x="463.9998175267662" y="23.001642259103946"/>
      <point x="572.4989963972142" y="120.50076030514072"/>
    </contour>
  </outline>
</glyph>
<glyph name="C" format="2">
  <advance width="672"/>
  <unicode hex="0043"/>
  <note>
C
</note>
  <anchor x="372.50009123661687" y="0" name="bottom"/>
  <anchor x="367.50009123661687" y="700.0" name="top"/>
  <outline>
    <contour>
      <point x="619.4991180460368" y="108.00133813704767" type="qcurve"/>
      <point x="632.9999391755888" y="86.0" type="line"/>
      <point x="596.4999695877943" y="43.50003041220563"/>
      <point x="472.4996654657381" y="-10.0"/>
      <point x="413.4993613436818" y="-10.0" type="qcurve"/>
      <point x="255.4996046413268" y="-10.0"/>
      <point x="50.99993917558874" y="193.99993917558874"/>
      <point x="50.99993917558874" y="350.0" type="qcurve"/>
      <point x="50.99993917558874" y="507.49984793897187"/>
      <point x="240.50015206102813" y="704.5000304122057"/>
      <point x="393.99993917558874" y="704.5000304122057" type="qcurve"/>
      <point x="461.0001216488225" y="704.5000304122057"/>
      <point x="604.5000304122057" y="636.5000304122057"/>
      <point x="645.9999391755888" y="585.0" type="qcurve"/>
      <point x="626.4988747483917" y="563.9989051605974" type="line"/>
      <point x="598.4985706263354" y="613.9987835117748"/>
      <point x="461.99951340470994" y="683.4982665042792"/>
      <point x="393.99993917558874" y="683.4982665042792" type="qcurve" smooth="yes"/>
      <point x="252.50082112955198" y="683.4982665042792"/>
      <point x="75.50167267130958" y="495.4992396948593"/>
      <point x="75.50167267130958" y="350.0" type="qcurve"/>
      <point x="75.50167267130958" y="205.00060824411258"/>
      <point x="262.0006082441126" y="10.501794320132092"/>
      <point x="404.49990876338313" y="10.501794320132092" type="qcurve" smooth="yes"/>
      <point x="469.4996046413268" y="10.501794320132092"/>
      <point x="594.498935572803" y="67.00145978587018"/>
    </contour>
  </outline>
</glyph>
<glyph name="D" format="2">
  <advance width="735"/>
  <unicode hex="0044"/>
  <note>
D
</note>
  <anchor x="322.1966753821419" y="0" name="bottom"/>
  <anchor x="134.19667538214193" y="350.0" name="center"/>
  <anchor x="312.1966753821419" y="700.0" name="top"/>
  <outline>
    <contour>
      <point x="112.99969587794371" y="700.0" type="line"/>
      <point x="358.50027370985066" y="700.0" type="line" smooth="yes"/>
      <point x="486.0007298929351" y="700.0"/>
      <point x="683.5003345342619" y="501.50009123661687"/>
      <point x="683.5003345342619" y="350.0" type="qcurve" smooth="yes"/>
      <point x="683.5003345342619" y="198.99987835117747"/>
      <point x="485.5007603051407" y="0.0"/>
      <point x="358.50027370985066" y="0.0" type="qcurve"/>
      <point x="112.99969587794371" y="0.0" type="line"/>
    </contour>
    <contour>
      <point x="114.50179432013209" y="23.001642259103946" type="line"/>
      <point x="353.50027370985066" y="23.001642259103946" type="line" smooth="yes"/>
      <point x="471.5000304122056" y="23.001642259103946"/>
      <point x="658.9986010385411" y="211.00048659529006"/>
      <point x="658.9986010385411" y="350.0" type="qcurve" smooth="yes"/>
      <point x="658.9986010385411" y="489.49948299250434"/>
      <point x="472.0" y="676.998357740896"/>
      <point x="353.50027370985066" y="676.998357740896" type="qcurve"/>
      <point x="111.50179432013209" y="676.998357740896" type="line"/>
      <point x="134.00145978587017" y="694.9981752676623" type="line"/>
      <point x="134.00145978587017" y="3.001824732337724" type="line"/>
    </contour>
  </outline>
</glyph>
<glyph name="E" format="2">
  <advance width="571"/>
  <unicode hex="0045"/>
  <note>
E
</note>
  <anchor x="312.39750653660644" y="0" name="bottom"/>
  <anchor x="466.0001824732338" y="10.0" name="ogonek"/>
  <anchor x="307.39750653660644" y="700.0" name="top"/>
  <anchor x="36.39750653660644" y="700.0" name="topleft"/>
  <outline>
    <contour>
      <point x="134.00145978587017" y="0.0" type="line"/>
      <point x="112.99969587794371" y="0.0" type="line"/>
      <point x="112.99969587794371" y="700.0" type="line"/>
      <point x="134.00145978587017" y="700.0" type="line"/>
    </contour>
    <contour>
      <point x="497.0008515417576" y="0.0" type="line"/>
      <point x="126.0004257708788" y="0.0" type="line"/>
      <point x="126.0004257708788" y="23.001642259103946" type="line"/>
      <point x="497.0008515417576" y="23.001642259103946" type="line"/>
    </contour>
    <contour>
      <point x="445.0007907173464" y="350.49911804603676" type="line"/>
      <point x="124.50045618308442" y="350.49911804603676" type="line"/>
      <point x="124.50045618308442" y="373.5007603051407" type="line"/>
      <point x="445.0007907173464" y="373.5007603051407" type="line"/>
    </contour>
    <contour>
      <point x="503.0007298929351" y="676.998357740896" type="line"/>
      <point x="124.50045618308442" y="676.998357740896" type="line"/>
      <point x="124.50045618308442" y="700.0" type="line"/>
      <point x="503.0007298929351" y="700.0" type="line"/>
    </contour>
  </outline>
</glyph>
<glyph name="F" format="2">
  <advance width="577"/>
  <unicode hex="0046"/>
  <note>
F
</note>
  <outline>
    <contour>
      <point x="112.99969587794371" y="0.0" type="line"/>
      <point x="112.99969587794371" y="700.0" type="line"/>
      <point x="134.00145978587017" y="700.0" type="line"/>
      <point x="134.00145978587017" y="0.0" type="line"/>
    </contour>
    <contour>
      <point x="475.5006386563182" y="339.9991484582424" type="line"/>
      <point x="135.5002128854394" y="339.9991484582424" type="line"/>
      <point x="135.5002128854394" y="363.0007907173464" type="line"/>
      <point x="475.5006386563182" y="363.0007907173464" type="line"/>
    </contour>
    <contour>
      <point x="526.5005170074957" y="676.998357740896" type="line"/>
      <point x="134.00024329764503" y="676.998357740896" type="line"/>
      <point x="134.00024329764503" y="700.0" type="line"/>
      <point x="526.5005170074957" y="700.0" type="line"/>
    </contour>
  </outline>
</glyph>
<glyph name="G" format="2">
  <advance width="760"/>
  <unicode hex="0047"/>
  <note>
G
</note>
  <anchor x="421.9998175267662" y="0" name="bottom"/>
  <anchor x="408.9998175267662" y="700.0" name="top"/>
  <outline>
    <contour>
      <point x="50.99993917558874" y="345.50009123661687" type="qcurve"/>
      <point x="50.99993917558874" y="503.99993917558874"/>
      <point x="252.5000912366169" y="704.5000304122057"/>
      <point x="402.50015206102813" y="704.5000304122057" type="qcurve" smooth="yes"/>
      <point x="481.0001824732338" y="704.5000304122057"/>
      <point x="635.9999391755888" y="637.0000608244112"/>
      <point x="673.4999695877943" y="587.0" type="qcurve"/>
      <point x="657.4988747483917" y="570.9988443361862" type="line"/>
      <point x="621.498692275158" y="616.9987835117748"/>
      <point x="473.49972629014934" y="681.998357740896"/>
      <point x="405.50009123661687" y="681.998357740896" type="qcurve" smooth="yes"/>
      <point x="265.5007603051407" y="681.998357740896"/>
      <point x="75.50167267130958" y="492.9992701070649"/>
      <point x="75.50167267130958" y="345.50009123661687" type="qcurve"/>
      <point x="75.50167267130958" y="197.0009731905801"/>
      <point x="270.0007907173464" y="12.501672671309578"/>
      <point x="418.49990876338313" y="12.501672671309578" type="qcurve" smooth="yes"/>
      <point x="546.9989051605974" y="12.501672671309578"/>
      <point x="707.4979623822229" y="157.5005170074957"/>
      <point x="707.4979623822229" y="266.9995742291212" type="qcurve" smooth="yes"/>
      <point x="707.4979623822229" y="328.9987226873636" type="line"/>
      <point x="726.997871145606" y="296.99908763383115" type="line"/>
      <point x="419.99975670235494" y="296.99908763383115" type="line"/>
      <point x="419.99975670235494" y="318.500821129552" type="line"/>
      <point x="722.4999087633831" y="318.500821129552" type="line"/>
      <point x="722.4999695877943" y="315.0005474197013"/>
      <point x="724.4999695877943" y="274.0007907173464"/>
      <point x="724.4999695877943" y="260.0007907173464" type="qcurve" smooth="yes"/>
      <point x="724.4999695877943" y="144.402123571247"/>
      <point x="546.4237728242172" y="-10.0"/>
      <point x="416.9998783511775" y="-10.0" type="qcurve"/>
      <point x="259.4999695877944" y="-10.0"/>
      <point x="50.99993917558874" y="187.5002128854394"/>
    </contour>
  </outline>
</glyph>
<glyph name="H" format="2">
  <advance width="736"/>
  <unicode hex="0048"/>
  <note>
H
</note>
  <anchor x="363.1966753821419" y="0" name="bottom"/>
  <anchor x="363.1966753821419" y="350.0" name="center"/>
  <anchor x="363.1966753821419" y="700.0" name="top"/>
  <anchor x="23.196675382141922" y="700.0" name="topleft"/>
  <outline>
    <contour>
      <point x="112" y="700.0" type="line"/>
      <point x="134" y="700.0" type="line"/>
      <point x="134" y="0.0" type="line"/>
      <point x="112" y="0.0" type="line"/>
    </contour>
    <contour>
      <point x="601" y="700.0" type="line"/>
      <point x="623" y="700.0" type="line"/>
      <point x="623" y="0.0" type="line"/>
      <point x="601" y="0.0" type="line"/>
    </contour>
    <contour>
      <point x="133" y="338" type="line"/>
      <point x="133" y="360" type="line"/>
      <point x="604" y="360" type="line"/>
      <point x="604" y="338" type="line"/>
    </contour>
  </outline>
</glyph>
<glyph name="I" format="2">
  <advance width="379"/>
  <unicode hex="0049"/>
  <note>
I
</note>
  <anchor x="190.0009731905801" y="0" name="bottom"/>
  <anchor x="257.00346699144166" y="10.0" name="ogonek"/>
  <anchor x="190.0009731905801" y="700.0" name="top"/>
  <anchor x="116.59833769107097" y="700.0" name="topleft"/>
  <outline>
    <contour>
      <point x="200.00188555674896" y="700.0" type="qcurve"/>
      <point x="200.00188555674896" y="0.0" type="line"/>
      <point x="179.00012164882253" y="0.0" type="line"/>
      <point x="179.00012164882253" y="700.0" type="line"/>
      <point x="206.00012164882253" y="700.0"/>
      <point x="173.00188555674896" y="700.0"/>
    </contour>
    <contour>
      <point x="313.00188555674896" y="700.0" type="line"/>
      <point x="313.00188555674896" y="674.9984793897186" type="line"/>
      <point x="66.00012164882251" y="674.9984793897186" type="line"/>
      <point x="66.00012164882251" y="700.0" type="line"/>
    </contour>
    <contour>
      <point x="313.00188555674896" y="25.001520610281432" type="line"/>
      <point x="313.00188555674896" y="0.0" type="line"/>
      <point x="66.00012164882251" y="0.0" type="line"/>
      <point x="66.00012164882251" y="25.001520610281432" type="line"/>
    </contour>
  </outline>
</glyph>
<glyph name="J" format="2">
  <advance width="614"/>
  <unicode hex="004A"/>
  <note>
J
</note>
  <anchor x="284.50051700749566" y="0" name="bottom"/>
  <anchor x="451.0001216488225" y="700.0" name="top"/>
  <outline>
    <contour>
      <point x="275.4996046413268" y="-10.0" type="qcurve"/>
      <point x="211.99951340470994" y="-10.0"/>
      <point x="110.4993613436818" y="54.000121648822514"/>
      <point x="76.99945258029868" y="117.0" type="qcurve"/>
      <point x="97.0004257708788" y="138.50100360278574" type="line"/>
      <point x="123.50076030514072" y="76.50106442719701"/>
      <point x="224.99987835117747" y="12.501672671309578"/>
      <point x="276.9995742291212" y="12.501672671309578" type="qcurve" smooth="yes"/>
      <point x="353.49911804603676" y="12.501672671309578"/>
      <point x="452.4984489775129" y="125.00085154175761"/>
      <point x="452.4984489775129" y="212.5002128854394" type="qcurve"/>
      <point x="452.4984489775129" y="700.0" type="line"/>
      <point x="479.50009123661687" y="700.0" type="line"/>
      <point x="479.50009123661687" y="213.0" type="line"/>
      <point x="479.50009123661687" y="115.00006082441126"/>
      <point x="364.49984793897187" y="-10.0"/>
    </contour>
    <contour>
      <point x="572.5003953586731" y="700.0" type="line"/>
      <point x="572.5003953586731" y="674.9984793897186" type="line"/>
      <point x="325.9984185653073" y="674.9984793897186" type="line"/>
      <point x="325.9984185653073" y="700.0" type="line"/>
    </contour>
  </outline>
</glyph>
<glyph name="K" format="2">
  <advance width="638"/>
  <unicode hex="004B"/>
  <note>
K
</note>
  <anchor x="327.0001824732338" y="0" name="bottom"/>
  <anchor x="339.0001824732338" y="700.0" name="top"/>
  <outline>
    <contour>
      <point x="112.99969587794371" y="0.0" type="line"/>
      <point x="112.99969587794371" y="700.0" type="line"/>
      <point x="134.00145978587017" y="700.0" type="line"/>
      <point x="134.00145978587017" y="0.0" type="line"/>
    </contour>
    <contour>
      <point x="111.50155102248706" y="219.49984793897187" type="line"/>
      <point x="114.50136854925329" y="259.5014901980758" type="line"/>
      <point x="566.9996350535324" y="700.0" type="line"/>
      <point x="601.0018247323377" y="700.0" type="line"/>
    </contour>
    <contour>
      <point x="590.499422168093" y="0.0" type="line"/>
      <point x="285.0001824732338" y="402.99908763383115" type="line"/>
      <point x="299.00152061028143" y="419.50015206102813" type="line"/>
      <point x="617.5016118468983" y="0.0" type="line"/>
    </contour>
  </outline>
</glyph>
<glyph name="L" format="2">
  <advance width="505"/>
  <unicode hex="004C"/>
  <note>
L
</note>
  <anchor x="288.39750653660644" y="0" name="bottom"/>
  <anchor x="316.49948299250434" y="350.0" name="center"/>
  <anchor x="131.39750653660641" y="700.0" name="top"/>
  <anchor x="190.00723810493963" y="700.0" name="topright"/>
  <outline>
    <contour>
      <point x="109.00139896145892" y="23.001642259103946" type="line"/>
      <point x="484.5010036027858" y="23.001642259103946" type="line"/>
      <point x="484.5010036027858" y="0.0" type="line"/>
      <point x="112.99969587794371" y="0.0" type="line"/>
      <point x="112.99969587794371" y="700.0" type="line"/>
      <point x="134.00145978587017" y="700.0" type="line"/>
      <point x="134.00145978587017" y="3.001520610281432" type="line"/>
    </contour>
  </outline>
</glyph>
<glyph name="M" format="2">
  <advance width="846"/>
  <unicode hex="004D"/>
  <note>
M
</note>
  <anchor x="423.39750653660644" y="0" name="bottom"/>
  <anchor x="423.39750653660644" y="700.0" name="top"/>
  <outline>
    <contour>
      <point x="112.99969587794371" y="700.0" type="line"/>
      <point x="132.00145978587017" y="700.0" type="line"/>
      <point x="426.00066906852385" y="222.0012773126364" type="line"/>
      <point x="419.99975670235494" y="221.50130772484204" type="line"/>
      <point x="718.498935572803" y="700.0" type="line"/>
      <point x="733.0006690685238" y="700.0" type="line"/>
      <point x="733.0006690685238" y="0.0" type="line"/>
      <point x="711.9989051605974" y="0.0" type="line"/>
      <point x="711.9989051605974" y="382.9980536188398" type="line" smooth="yes"/>
      <point x="711.9989051605974" y="472.9980536188398"/>
      <point x="711.9990876338311" y="616.9980536188398"/>
      <point x="715.4992396948593" y="687.9980536188398" type="qcurve"/>
      <point x="730.9992092826536" y="677.9975061991385" type="line"/>
      <point x="436.0005474197013" y="206.99987835117747" type="line"/>
      <point x="405.9998175267662" y="206.99987835117747" type="line"/>
      <point x="121.00109483940264" y="670.9975670235497" type="line"/>
      <point x="130.50112525160827" y="687.9980536188398" type="line"/>
      <point x="134.0012773126364" y="620.9980536188398"/>
      <point x="134.00145978587017" y="479.9980536188398"/>
      <point x="134.00145978587017" y="382.9980536188398" type="qcurve"/>
      <point x="134.00145978587017" y="0.0" type="line"/>
      <point x="107.00145978587018" y="0.0"/>
      <point x="139.9996958779437" y="0.0"/>
      <point x="112.99969587794371" y="0.0" type="qcurve"/>
    </contour>
  </outline>
</glyph>
<glyph name="N" format="2">
  <advance width="775"/>
  <unicode hex="004E"/>
  <note>
N
</note>
  <anchor x="384.0001824732338" y="0" name="bottom"/>
  <anchor x="384.0001824732338" y="700.0" name="top"/>
  <outline>
    <contour>
      <point x="640.9989051605974" y="390.5016118468983" type="qcurve"/>
      <point x="640.9989051605974" y="700.0" type="line"/>
      <point x="667.9989051605974" y="700.0"/>
      <point x="635.0006690685238" y="700.0"/>
      <point x="662.0006690685238" y="700.0" type="qcurve"/>
      <point x="662.0006690685238" y="0.0" type="line"/>
      <point x="639.4991180460368" y="0.0" type="line"/>
      <point x="116.50118607601952" y="685.4972933136991" type="line"/>
      <point x="132.00109483940264" y="720.4968675428203" type="line"/>
      <point x="132.2168645812988" y="679.0163062283607"/>
      <point x="134.00145978587017" y="379.3728662475909"/>
      <point x="134.00145978587017" y="370.4983881531017" type="qcurve" smooth="yes"/>
      <point x="134.00145978587017" y="0.0" type="line"/>
      <point x="112.99969587794371" y="0.0" type="line"/>
      <point x="112.99969587794371" y="700.0" type="line"/>
      <point x="133.50124690043077" y="700.0" type="line"/>
      <point x="648.4994829925043" y="31.001946381160238" type="line"/>
      <point x="638.4993613436818" y="-3.4975366113440742" type="line"/>
      <point x="637.4991788704481" y="28.503071632768496"/>
      <point x="642.4988747483917" y="271.5017943201321"/>
    </contour>
  </outline>
</glyph>
<glyph name="P" format="2">
  <advance width="600"/>
  <unicode hex="0050"/>
  <note>
P
</note>
  <anchor x="312.0001824732338" y="0" name="bottom"/>
  <anchor x="312.0001824732338" y="700.0" name="top"/>
  <outline>
    <contour>
      <point x="112.99969587794371" y="700.0" type="line"/>
      <point x="374.0001824732338" y="700.0" type="line" smooth="yes"/>
      <point x="451.5003345342619" y="700.0"/>
      <point x="547.0008515417576" y="591.4996654657381"/>
      <point x="547.0008515417576" y="504.4996046413268" type="qcurve" smooth="yes"/>
      <point x="547.0008515417576" y="408.49972629014934"/>
      <point x="451.5003345342619" y="290.49954381691555"/>
      <point x="374.0001824732338" y="290.49954381691555" type="qcurve"/>
      <point x="114.00170308351521" y="290.49954381691555" type="line"/>
      <point x="134.00145978587017" y="316.49930051927055" type="line"/>
      <point x="134.00145978587017" y="0.0" type="line"/>
      <point x="112.99969587794371" y="0.0" type="line"/>
    </contour>
    <contour>
      <point x="113.00170308351521" y="313.5011860760195" type="line"/>
      <point x="388.49984793897187" y="313.5011860760195" type="line" smooth="yes"/>
      <point x="447.9994525802987" y="313.5011860760195"/>
      <point x="522.4991180460368" y="421.0003649464675"/>
      <point x="522.4991180460368" y="507.49954381691555" type="qcurve" smooth="yes"/>
      <point x="522.4991180460368" y="581.9989659850087"/>
      <point x="447.9994525802987" y="676.998357740896"/>
      <point x="388.49984793897187" y="676.998357740896" type="qcurve"/>
      <point x="113.00170308351521" y="676.998357740896" type="line"/>
      <point x="134.00145978587017" y="700.9981752676623" type="line"/>
      <point x="134.00145978587017" y="302.50112525160824" type="line"/>
    </contour>
  </outline>
</glyph>
<glyph name="Q" format="2">
  <advance width="789"/>
  <unicode hex="0051"/>
  <note>
Q
</note>
  <anchor x="387.0" y="0" name="bottom"/>
  <anchor x="387.0" y="700.0" name="top"/>
  <outline>
    <contour>
      <point x="393.99993917558874" y="702.5001520610282" type="qcurve"/>
      <point x="544.9998783511775" y="702.5001520610282"/>
      <point x="738.4999087633831" y="502.5000304122056"/>
      <point x="738.4999087633831" y="345.50009123661687" type="qcurve"/>
      <point x="738.4999087633831" y="188.50015206102813"/>
      <point x="544.9998783511775" y="-10.0"/>
      <point x="393.99993917558874" y="-10.0" type="qcurve"/>
      <point x="243.0" y="-10.0"/>
      <point x="50.99993917558874" y="189.00012164882253"/>
      <point x="50.99993917558874" y="345.50009123661687" type="qcurve"/>
      <point x="50.99993917558874" y="502.00006082441126"/>
      <point x="243.0" y="702.5001520610282"/>
    </contour>
    <contour>
      <point x="393.99993917558874" y="12.501672671309578" type="qcurve" smooth="yes"/>
      <point x="533.9991484582424" y="12.501672671309578"/>
      <point x="713.9981752676623" y="199.50082112955198"/>
      <point x="713.9981752676623" y="345.50009123661687" type="qcurve"/>
      <point x="713.9981752676623" y="491.4993613436818"/>
      <point x="533.9991484582424" y="679.9984793897186"/>
      <point x="393.99993917558874" y="679.9984793897186" type="qcurve" smooth="yes"/>
      <point x="254.50069948072945" y="679.9984793897186"/>
      <point x="75.50167267130958" y="490.9993917558874"/>
      <point x="75.50167267130958" y="345.50009123661687" type="qcurve"/>
      <point x="75.50167267130958" y="200.00079071734635"/>
      <point x="254.50069948072945" y="12.501672671309578"/>
    </contour>
    <contour>
      <point x="456.4996046413268" y="239.0011556638139" type="line"/>
      <point x="699.0" y="-76.49942216809305" type="line"/>
      <point x="681.9986010385411" y="-89.0004257708788" type="line"/>
      <point x="442.4980840310454" y="228.00018247323376" type="line"/>
    </contour>
  </outline>
</glyph>
<glyph name="R" format="2">
  <advance width="593"/>
  <unicode hex="0052"/>
  <note>
R
</note>
  <anchor x="317.0009731905801" y="0" name="bottom"/>
  <anchor x="316.0001824732338" y="700.0" name="top"/>
  <outline>
    <contour>
      <point x="554.0012773126364" y="494.9996350535325" type="qcurve" smooth="yes"/>
      <point x="554.0012773126364" y="402.99975670235494"/>
      <point x="445.0008515417576" y="300.4992396948593"/>
      <point x="357.0007907173464" y="300.4992396948593" type="qcurve"/>
      <point x="103.00182473233772" y="300.4992396948593" type="line"/>
      <point x="103.00182473233772" y="323.50088195396324" type="line"/>
      <point x="361.00091236616885" y="323.50088195396324" type="line"/>
      <point x="435.00030412205626" y="323.50088195396324"/>
      <point x="529.4995438169155" y="417.50027370985066"/>
      <point x="529.4995438169155" y="491.49972629014934" type="qcurve" smooth="yes"/>
      <point x="529.4995438169155" y="571.9991484582424"/>
      <point x="426.50015206102813" y="676.998357740896"/>
      <point x="346.5006386563182" y="676.998357740896" type="qcurve"/>
      <point x="101.5019159689546" y="676.998357740896" type="line"/>
      <point x="134.00145978587017" y="703.4985098019242" type="line"/>
      <point x="134.00145978587017" y="0.0" type="line"/>
      <point x="112.99969587794371" y="0.0" type="line"/>
      <point x="112.99969587794371" y="700.0" type="line"/>
      <point x="342.00109483940264" y="700.0" type="line" smooth="yes"/>
      <point x="436.5010036027858" y="700.0"/>
      <point x="554.0012773126364" y="582.4997871145606"/>
    </contour>
    <contour>
      <point x="386.9989659850086" y="293.50045618308445" type="line"/>
      <point x="394.501064427197" y="320.0004257708788" type="line"/>
      <point x="580.501307724842" y="0.4999695877943713" type="line"/>
      <point x="558.9990876338311" y="0.0" type="line"/>
    </contour>
  </outline>
</glyph>
<glyph name="S" format="2">
  <advance width="578"/>
  <unicode hex="0053"/>
  <note>
S
</note>
  <anchor x="301.5003953586732" y="0" name="bottom"/>
  <anchor x="301.5003953586732" y="700.0" name="top"/>
  <outline>
    <contour>
      <point x="55.999878351177486" y="120.00012164882251" type="qcurve"/>
      <point x="73.00103401499138" y="133.0015814346927" type="line"/>
      <point x="111.50124690043077" y="75.00133813704767"/>
      <point x="219.50088195396324" y="16.50142937366455"/>
      <point x="292.00066906852385" y="16.50142937366455" type="qcurve" smooth="yes"/>
      <point x="383.4999695877944" y="16.50142937366455"/>
      <point x="502.9991484582424" y="112.00054741970132"/>
      <point x="502.9991484582424" y="184.4999087633831" type="qcurve" smooth="yes"/>
      <point x="502.9991484582424" y="264.9992092826536"/>
      <point x="375.50015206102813" y="319.49930051927055"/>
      <point x="285.50027370985066" y="348.9990268094199" type="qcurve" smooth="yes"/>
      <point x="195.4999087633831" y="378.9988443361861"/>
      <point x="87.99993917558874" y="439.99975670235494"/>
      <point x="87.99993917558874" y="521.4998479389718" type="qcurve" smooth="yes"/>
      <point x="87.99993917558874" y="600.4999695877943"/>
      <point x="207.50033453426192" y="702.5001520610282"/>
      <point x="294.5006386563182" y="702.5001520610282" type="qcurve" smooth="yes"/>
      <point x="375.5006386563182" y="702.5001520610282"/>
      <point x="471.0011556638139" y="632.0003041220563"/>
      <point x="509.00109483940264" y="576.5002128854394" type="qcurve"/>
      <point x="491.49990876338313" y="559.9990268094199" type="line"/>
      <point x="457.0" y="611.9989659850087"/>
      <point x="365.0001824732338" y="675.9987226873636"/>
      <point x="296.0005474197013" y="675.9987226873636" type="qcurve" smooth="yes"/>
      <point x="217.0009731905801" y="675.9987226873636"/>
      <point x="110.50167267130958" y="586.9994525802987"/>
      <point x="110.50167267130958" y="518.4999695877943" type="qcurve" smooth="yes"/>
      <point x="110.50167267130958" y="454.5003953586732"/>
      <point x="208.50100360278574" y="395.50051700749566"/>
      <point x="313.00048659529006" y="367.5007603051407" type="qcurve" smooth="yes"/>
      <point x="405.0008515417576" y="341.500821129552"/>
      <point x="525.5008819539632" y="269.5002128854394"/>
      <point x="525.5008819539632" y="175.00066906852385" type="qcurve" smooth="yes"/>
      <point x="525.5008819539632" y="99.00018247323378"/>
      <point x="391.500821129552" y="-10.0"/>
      <point x="294.5003953586732" y="-10.0" type="qcurve" smooth="yes"/>
      <point x="225.00006082441126" y="-10.0"/>
      <point x="98.49996958779437" y="58.0"/>
    </contour>
  </outline>
</glyph>
<glyph name="T" format="2">
  <advance width="488"/>
  <unicode hex="0054"/>
  <note>
T
</note>
  <anchor x="243.00091236616885" y="0" name="bottom"/>
  <anchor x="244.50088195396324" y="350.0" name="center"/>
  <anchor x="244.50088195396324" y="700.0" name="top"/>
  <outline>
    <contour>
      <point x="250.5017943201321" y="0.0" type="line"/>
      <point x="229.50003041220563" y="0.0" type="line"/>
      <point x="229.50003041220563" y="688.4992396948593" type="line"/>
      <point x="250.5017943201321" y="688.4992396948593" type="line"/>
    </contour>
    <contour>
      <point x="467.5014901980758" y="676.998357740896" type="line"/>
      <point x="20.000304122056285" y="676.998357740896" type="line"/>
      <point x="20.000304122056285" y="700.0" type="line"/>
      <point x="467.5014901980758" y="700.0" type="line"/>
    </contour>
  </outline>
</glyph>
<glyph name="U" format="2">
  <advance width="759"/>
  <unicode hex="0055"/>
  <note>
U
</note>
  <anchor x="378.9998175267662" y="0" name="bottom"/>
  <anchor x="492.50325410600226" y="10.0" name="ogonek"/>
  <anchor x="378.9998175267662" y="700.0" name="top"/>
  <anchor x="517.9998783511775" y="696.000243297645" name="topright"/>
  <outline>
    <contour>
      <point x="619.4985706263354" y="701.0" type="line"/>
      <point x="641.5002128854394" y="701.0" type="line"/>
      <point x="641.5002128854394" y="269.0" type="line"/>
      <point x="641.5002128854394" y="148.50003041220563"/>
      <point x="492.0" y="-6.0"/>
      <point x="375.9998783511775" y="-6.0" type="qcurve"/>
      <point x="262.99969587794374" y="-6.0"/>
      <point x="117.99939175588743" y="148.50003041220563"/>
      <point x="117.99939175588743" y="269.0" type="qcurve"/>
      <point x="117.99939175588743" y="701.0" type="line"/>
      <point x="139.0011556638139" y="701.0" type="line"/>
      <point x="139.0011556638139" y="278.0" type="line"/>
      <point x="139.0011556638139" y="163.00079071734635"/>
      <point x="270.5005778319069" y="17.001642259103946"/>
      <point x="375.9998783511775" y="17.001642259103946" type="qcurve"/>
      <point x="483.9992092826536" y="17.001642259103946"/>
      <point x="619.4985706263354" y="163.00079071734635"/>
      <point x="619.4985706263354" y="278.0" type="qcurve"/>
    </contour>
  </outline>
</glyph>
<glyph name="V" format="2">
  <advance width="604"/>
  <unicode hex="0056"/>
  <note>
V
</note>
  <anchor x="297" y="0" name="bottom"/>
  <anchor x="297" y="700.0" name="top"/>
  <outline>
    <contour>
      <point x="283" y="0" type="line"/>
      <point x="20" y="700" type="line"/>
      <point x="46" y="700" type="line"/>
      <point x="233" y="201" type="line" smooth="yes"/>
      <point x="257" y="136"/>
      <point x="299" y="28"/>
      <point x="303" y="18" type="qcurve"/>
      <point x="303" y="18" type="line"/>
      <point x="306" y="28"/>
      <point x="346" y="133"/>
      <point x="372" y="202" type="qcurve" smooth="yes"/>
      <point x="558" y="700" type="line"/>
      <point x="584" y="700" type="line"/>
      <point x="321" y="0" type="line"/>
    </contour>
  </outline>
</glyph>
<glyph name="W" format="2">
  <advance width="849"/>
  <unicode hex="0057"/>
  <note>
W
</note>
  <anchor x="431" y="0" name="bottom"/>
  <anchor x="428" y="700.0" name="top"/>
  <outline>
    <contour>
      <point x="216" y="0" type="line"/>
      <point x="20" y="700" type="line"/>
      <point x="46" y="700" type="line"/>
      <point x="188" y="193" type="line" smooth="yes"/>
      <point x="209" y="117"/>
      <point x="215" y="91"/>
      <point x="238" y="15" type="qcurve"/>
      <point x="224" y="15" type="line"/>
      <point x="254" y="89"/>
      <point x="288" y="167"/>
      <point x="303" y="202" type="qcurve" smooth="yes"/>
      <point x="417" y="474" type="line"/>
      <point x="432" y="474" type="line"/>
      <point x="546" y="202" type="line" smooth="yes"/>
      <point x="561" y="167"/>
      <point x="595" y="89"/>
      <point x="625" y="15" type="qcurve"/>
      <point x="610" y="15" type="line"/>
      <point x="633" y="91"/>
      <point x="640" y="117"/>
      <point x="661" y="193" type="qcurve" smooth="yes"/>
      <point x="803" y="700" type="line"/>
      <point x="829" y="700" type="line"/>
      <point x="633" y="0" type="line"/>
      <point x="607" y="0" type="line"/>
      <point x="415" y="453" type="line"/>
      <point x="434" y="453" type="line"/>
      <point x="242" y="0" type="line"/>
    </contour>
  </outline>
</glyph>
<glyph name="X" format="2">
  <advance width="591"/>
  <unicode hex="0058"/>
  <note>
X
</note>
  <anchor x="296.00091236616885" y="0" name="bottom"/>
  <anchor x="297.50088195396324" y="700.0" name="top"/>
  <outline>
    <contour>
      <point x="532.9998175267663" y="700.0" type="line"/>
      <point x="555.0019463811602" y="700.0" type="line"/>
      <point x="296.5019767933659" y="344.4996046413268" type="line"/>
      <point x="287.500821129552" y="360.500821129552" type="line"/>
    </contour>
    <contour>
      <point x="30.49996958779437" y="700.0" type="line"/>
      <point x="55.00225050321653" y="700.0" type="line"/>
      <point x="282.0019463811602" y="390.0" type="line"/>
      <point x="565.0019463811602" y="0.0" type="line"/>
      <point x="540.4996654657381" y="0.0" type="line"/>
      <point x="308.4999695877944" y="314.0" type="line"/>
    </contour>
    <contour>
      <point x="47.502098442188384" y="0.0" type="line"/>
      <point x="25.49996958779437" y="0.0" type="line"/>
      <point x="285.0001216488225" y="370.5002128854394" type="line"/>
      <point x="299.5011860760195" y="355.99890516059736" type="line"/>
    </contour>
  </outline>
</glyph>
<glyph name="Y" format="2">
  <advance width="617"/>
  <unicode hex="0059"/>
  <note>
Y
</note>
  <anchor x="318.5003345342619" y="0.4999695877943713" name="bottom"/>
  <anchor x="308.50045618308445" y="700.0" name="top"/>
  <anchor x="82.49954381691558" y="700.0" name="topleft"/>
  <outline>
    <contour>
      <point x="558.9993309314762" y="700.0" type="line"/>
      <point x="584.0013381370477" y="700.0" type="line"/>
      <point x="313.0013381370477" y="289.0" type="line"/>
      <point x="328.0013381370477" y="357.0" type="line"/>
      <point x="328.0013381370477" y="0.0" type="line"/>
      <point x="308.49954381691555" y="0.0" type="line"/>
      <point x="308.49954381691555" y="349.0" type="line"/>
      <point x="315.49954381691555" y="300.0" type="line"/>
      <point x="32.49954381691557" y="700.0" type="line"/>
      <point x="60.50161184689833" y="700.0" type="line"/>
      <point x="324.5006386563182" y="327.0012773126364" type="line"/>
      <point x="311.5003953586732" y="325.5013685492533" type="line"/>
    </contour>
  </outline>
</glyph>
<glyph name="Z" format="2">
  <advance width="626"/>
  <unicode hex="005A"/>
  <note>
Z
</note>
  <anchor x="330.0" y="0" name="bottom"/>
  <anchor x="330.0" y="700.0" name="top"/>
  <outline>
    <contour>
      <point x="86.0" y="700.0" type="line"/>
      <point x="563.0006082441125" y="700.0" type="line"/>
      <point x="563.0006082441125" y="677.4988747483917" type="line"/>
      <point x="67.00261544968407" y="-4.498144855456644" type="line"/>
      <point x="54.00255462527281" y="23.001642259103946" type="line"/>
      <point x="574.0006082441125" y="23.001642259103946" type="line"/>
      <point x="574.0006082441125" y="0.0" type="line"/>
      <point x="60.0" y="0.0" type="line"/>
      <point x="60.0" y="23.501125251608265" type="line"/>
      <point x="557.9979927944285" y="704.4981448554566" type="line"/>
      <point x="572.9979927944285" y="676.998357740896" type="line"/>
      <point x="86.0" y="676.998357740896" type="line"/>
    </contour>
  </outline>
</glyph>
<glyph name="bracketleft" format="2">
  <advance width="319"/>
  <unicode hex="005B"/>
  <note>
bracketleft
</note>
  <outline>
    <contour>
      <point x="307.0006082441126" y="-190.0" type="line"/>
      <point x="94.99969587794371" y="-190.0" type="line"/>
      <point x="94.99969587794371" y="700.0" type="line"/>
      <point x="307.0006082441126" y="700.0" type="line"/>
      <point x="307.0006082441126" y="668.9990268094199" type="line"/>
      <point x="114.50106442719701" y="668.9990268094199" type="line"/>
      <point x="120.50106442719701" y="676.9990268094199" type="line"/>
      <point x="120.50106442719701" y="-170.9990268094199" type="line"/>
      <point x="110.50106442719701" y="-158.9990268094199" type="line"/>
      <point x="307.0006082441126" y="-158.9990268094199" type="line"/>
    </contour>
  </outline>
</glyph>
<glyph name="backslash" format="2">
  <advance width="521"/>
  <unicode hex="005C"/>
  <note>
backslash
</note>
  <outline>
    <contour>
      <point x="466.00164225910396" y="-107.0" type="line"/>
      <point x="434.00024329764506" y="-107.0" type="line"/>
      <point x="36.00024329764503" y="700.0" type="line"/>
      <point x="66.00164225910395" y="700.0" type="line"/>
    </contour>
  </outline>
</glyph>
<glyph name="asciicircum" format="2">
  <advance width="592"/>
  <unicode hex="005E"/>
  <note>
asciicircum
</note>
  <outline>
    <contour>
      <point x="79.0012773126364" y="368.0" type="line"/>
      <point x="54.49948299250431" y="368.0" type="line"/>
      <point x="269.9993917558874" y="727.0" type="line"/>
      <point x="322.0003649464675" y="727.0" type="line"/>
      <point x="537.5002737098506" y="368.0" type="line"/>
      <point x="512.4984489775129" y="368.0" type="line"/>
      <point x="295.99969587794374" y="730.4980232066341" type="line"/>
      <point x="295.0001216488225" y="728.998114443251" type="line"/>
    </contour>
  </outline>
</glyph>
<glyph name="underscore" format="2">
  <advance width="696"/>
  <unicode hex="005F"/>
  <note>
underscore
</note>
  <outline>
    <contour>
      <point x="639.9999391755888" y="-115.00091236616886" type="line"/>
      <point x="55.99993917558874" y="-115.00091236616886" type="line"/>
      <point x="55.99993917558874" y="-82.0" type="line"/>
      <point x="639.9999391755888" y="-82.0" type="line"/>
    </contour>
  </outline>
</glyph>
<glyph name="b" format="2">
  <advance width="600"/>
  <unicode hex="0062"/>
  <note>
b
</note>
  <anchor x="295.0004257708788" y="0" name="bottom"/>
  <anchor x="295.0004257708788" y="524.9996958779437" name="top"/>
  <outline>
    <contour>
      <point x="322.50045618308445" y="528.5001520610282" type="qcurve"/>
      <point x="424.0005474197013" y="528.5001520610282"/>
      <point x="572.0003649464676" y="375.50015206102813"/>
      <point x="572.0003649464676" y="258.0001216488225" type="qcurve"/>
      <point x="572.0003649464676" y="141.5000912366169"/>
      <point x="428.00048659529006" y="-10.0"/>
      <point x="321.0005474197013" y="-10.0" type="qcurve"/>
      <point x="235.50088195396324" y="-10.0"/>
      <point x="113.50094277837448" y="85.99969587794371"/>
      <point x="90.50118607601952" y="163.49905722162552" type="qcurve"/>
      <point x="104.50142937366455" y="132.49996958779437" type="line"/>
      <point x="97.0015814346927" y="-1.4999087633831136" type="line"/>
      <point x="76.49990876338312" y="-1.4999087633831136" type="line"/>
      <point x="76.49990876338312" y="740.0" type="line"/>
      <point x="100.00152061028143" y="740.0" type="line"/>
      <point x="100.00152061028143" y="382.50045618308445" type="line"/>
      <point x="85.50149019807581" y="352.5012469004308" type="line"/>
      <point x="109.50118607601952" y="430.5005778319069"/>
      <point x="234.50094277837448" y="528.5001520610282"/>
    </contour>
    <contour>
      <point x="541.9989659850087" y="259.50009123661687" type="qcurve"/>
      <point x="541.9989659850087" y="364.99951340470994"/>
      <point x="417.4996654657381" y="500.4988139239805"/>
      <point x="319.00024329764506" y="500.4988139239805" type="qcurve"/>
      <point x="222.00079071734635" y="500.4988139239805"/>
      <point x="96.50149019807581" y="364.99951340470994"/>
      <point x="96.50149019807581" y="259.50009123661687" type="qcurve"/>
      <point x="96.50149019807581" y="153.00066906852385"/>
      <point x="223.50076030514072" y="18.001338137047668"/>
      <point x="319.00024329764506" y="18.001338137047668" type="qcurve"/>
      <point x="419.4996046413268" y="18.001338137047668"/>
      <point x="541.9989659850087" y="156.00060824411258"/>
    </contour>
  </outline>
</glyph>
<glyph name="c" format="2">
  <advance width="510"/>
  <unicode hex="0063"/>
  <note>
c
</note>
  <anchor x="293.49930051927055" y="0" name="bottom"/>
  <anchor x="287.00024329764506" y="515.0003041220563" name="top"/>
  <outline>
    <contour>
      <point x="282.50045618308445" y="499.9988443361861" type="qcurve"/>
      <point x="186.50094277837448" y="499.9988443361861"/>
      <point x="58.50161184689833" y="365.49948299250434"/>
      <point x="58.50161184689833" y="260.00006082441126" type="qcurve"/>
      <point x="58.50161184689833" y="154.00066906852385"/>
      <point x="183.00109483940264" y="18.501307724842036"/>
      <point x="277.5005778319069" y="18.501307724842036" type="qcurve"/>
      <point x="332.50027370985066" y="18.501307724842036"/>
      <point x="432.99975670235494" y="64.00121648822514"/>
      <point x="467.99969587794374" y="104.50118607601952" type="qcurve"/>
      <point x="487.50045618308445" y="81.00024329764503" type="line"/>
      <point x="449.5005778319069" y="36.00024329764503"/>
      <point x="351.50015206102813" y="-10.0"/>
      <point x="289.0001216488225" y="-10.0" type="qcurve"/>
      <point x="174.00024329764503" y="-10.0"/>
      <point x="28.000243297645028" y="141.00012164882253"/>
      <point x="28.000243297645028" y="260.00006082441126" type="qcurve"/>
      <point x="28.000243297645028" y="379.0"/>
      <point x="175.5002128854394" y="528.5001520610282"/>
      <point x="293.5000304122056" y="528.5001520610282" type="qcurve"/>
      <point x="354.5002128854394" y="528.5001520610282"/>
      <point x="454.50051700749566" y="481.99993917558874"/>
      <point x="492.0003649464675" y="438.9998175267662" type="qcurve"/>
      <point x="472.4996046413268" y="415.49887474839176" type="line"/>
      <point x="434.9998783511775" y="457.9987226873636"/>
      <point x="339.50009123661687" y="499.9988443361861"/>
    </contour>
  </outline>
</glyph>
<glyph name="d" format="2">
  <advance width="597"/>
  <unicode hex="0064"/>
  <note>
d
</note>
  <anchor x="264.0011556638139" y="9.999391755887427" name="bottom"/>
  <anchor x="500.99969587794374" y="614.0" name="center"/>
  <anchor x="264.0011556638139" y="515.0003041220563" name="top"/>
  <anchor x="596.000243297645" y="510.0" name="topright"/>
  <outline>
    <contour>
      <point x="495.49930051927055" y="740.0" type="line"/>
      <point x="519.0009123661689" y="740.0" type="line"/>
      <point x="519.0009123661689" y="0.0" type="line"/>
      <point x="498.4992396948593" y="0.0" type="line"/>
      <point x="492.4993613436818" y="139.9996958779437" type="line"/>
      <point x="510.9993917558874" y="160.99927010706492" type="line"/>
      <point x="482.4999695877944" y="83.99987835117749"/>
      <point x="358.0001216488225" y="-10.0"/>
      <point x="274.5003345342619" y="-10.0" type="qcurve"/>
      <point x="169.50027370985066" y="-10.0"/>
      <point x="28.000243297645028" y="142.00006082441126"/>
      <point x="28.000243297645028" y="258.50009123661687" type="qcurve"/>
      <point x="28.000243297645028" y="376.50009123661687"/>
      <point x="174.50015206102813" y="528.5001520610282"/>
      <point x="276.00024329764506" y="528.5001520610282" type="qcurve"/>
      <point x="356.5002128854394" y="528.5001520610282"/>
      <point x="477.50027370985066" y="438.50009123661687"/>
      <point x="505.99969587794374" y="362.5005778319069" type="qcurve"/>
      <point x="495.49930051927055" y="389.0" type="line"/>
    </contour>
    <contour>
      <point x="55.001824732337724" y="260.00006082441126" type="qcurve"/>
      <point x="55.001824732337724" y="157.5005170074957"/>
      <point x="178.0011556638139" y="20.501186076019522"/>
      <point x="278.0005474197013" y="20.501186076019522" type="qcurve"/>
      <point x="372.00006082441126" y="20.501186076019522"/>
      <point x="499.49930051927055" y="154.50057783190695"/>
      <point x="499.49930051927055" y="260.00006082441126" type="qcurve"/>
      <point x="499.49930051927055" y="363.9995742291212"/>
      <point x="373.5000304122056" y="497.9989659850086"/>
      <point x="278.0005474197013" y="497.9989659850086" type="qcurve"/>
      <point x="179.50112525160827" y="497.9989659850086"/>
      <point x="55.001824732337724" y="363.9995742291212"/>
    </contour>
  </outline>
</glyph>
<glyph name="e" format="2">
  <advance width="545"/>
  <unicode hex="0065"/>
  <note>
e
</note>
  <anchor x="285.0" y="10" name="bottom"/>
  <anchor x="448.0" y="10.0" name="ogonek"/>
  <anchor x="286.0" y="515" name="top"/>
  <outline>
    <contour>
      <point x="472" y="83" type="qcurve"/>
      <point x="484" y="65" type="line"/>
      <point x="447" y="31"/>
      <point x="354" y="-10"/>
      <point x="297" y="-10" type="qcurve"/>
      <point x="183" y="-10"/>
      <point x="40" y="144"/>
      <point x="40" y="263" type="qcurve"/>
      <point x="40" y="380"/>
      <point x="177" y="529"/>
      <point x="285" y="529" type="qcurve"/>
      <point x="384" y="529"/>
      <point x="510" y="401"/>
      <point x="510" y="291" type="qcurve"/>
      <point x="509" y="265" type="line"/>
      <point x="52" y="265" type="line"/>
      <point x="52" y="287" type="line"/>
      <point x="498" y="287" type="line"/>
      <point x="486" y="270" type="line"/>
      <point x="488" y="295" type="line"/>
      <point x="488" y="390"/>
      <point x="371" y="507"/>
      <point x="288" y="507" type="qcurve"/>
      <point x="186" y="507"/>
      <point x="63" y="370"/>
      <point x="62" y="263" type="qcurve" smooth="yes"/>
      <point x="63" y="153"/>
      <point x="194" y="12"/>
      <point x="297" y="12" type="qcurve"/>
      <point x="349" y="12"/>
      <point x="437" y="50"/>
    </contour>
  </outline>
</glyph>
<glyph name="g" format="2">
  <advance width="591"/>
  <unicode hex="0067"/>
  <note>
g
</note>
  <anchor x="270.0011556638139" y="0" name="bottom"/>
  <anchor x="270.0011556638139" y="512.5004561830845" name="top"/>
  <outline>
    <contour>
      <point x="94.00024329764503" y="-167.0" type="qcurve"/>
      <point x="109.50069948072945" y="-136.49899639721426" type="line"/>
      <point x="139.50069948072945" y="-162.498935572803"/>
      <point x="225.50076030514072" y="-200.9987226873636"/>
      <point x="284.50045618308445" y="-200.9987226873636" type="qcurve"/>
      <point x="378.5002128854394" y="-200.9987226873636"/>
      <point x="493.4996046413268" y="-75.99963505353246"/>
      <point x="493.4996046413268" y="46.99945258029868" type="qcurve"/>
      <point x="493.4996046413268" y="143.49954381691558" type="line"/>
      <point x="508.99951340470994" y="166.498935572803" type="line"/>
      <point x="483.9998783511775" y="88.9995742291212"/>
      <point x="357.50015206102813" y="-10.0"/>
      <point x="270.0006082441126" y="-10.0" type="qcurve"/>
      <point x="167.0004257708788" y="-10.0"/>
      <point x="28.000243297645028" y="142.00006082441126"/>
      <point x="28.000243297645028" y="258.50009123661687" type="qcurve"/>
      <point x="28.000243297645028" y="376.50009123661687"/>
      <point x="172.0003041220563" y="528.5001520610282"/>
      <point x="271.50051700749566" y="528.5001520610282" type="qcurve"/>
      <point x="354.5003345342619" y="528.5001520610282"/>
      <point x="478.5002128854394" y="434.5003345342619"/>
      <point x="503.49984793897187" y="353.0011556638139" type="qcurve"/>
      <point x="485.99975670235494" y="376.50051700749566" type="line"/>
      <point x="493.4996046413268" y="517.5001520610282" type="line"/>
      <point x="517.0012164882252" y="517.5001520610282" type="line"/>
      <point x="517.0012164882252" y="32.0" type="line"/>
      <point x="517.0012164882252" y="-93.0"/>
      <point x="380.501064427197" y="-230.0"/>
      <point x="280.0005474197013" y="-230.0" type="qcurve"/>
      <point x="218.00066906852385" y="-230.0"/>
      <point x="129.5002128854394" y="-192.00006082441126"/>
    </contour>
    <contour>
      <point x="492.99969587794374" y="260.00006082441126" type="qcurve"/>
      <point x="492.99969587794374" y="364.99951340470994"/>
      <point x="369.00030412205626" y="500.4988139239805"/>
      <point x="275.0007298929351" y="500.4988139239805" type="qcurve"/>
      <point x="177.50124690043077" y="500.4988139239805"/>
      <point x="55.001824732337724" y="365.49948299250434"/>
      <point x="55.001824732337724" y="260.00006082441126" type="qcurve"/>
      <point x="55.001824732337724" y="156.00060824411258"/>
      <point x="176.0012773126364" y="17.501368549253286"/>
      <point x="275.0007298929351" y="17.501368549253286" type="qcurve"/>
      <point x="367.0003649464675" y="17.501368549253286"/>
      <point x="492.99969587794374" y="153.5006386563182"/>
    </contour>
  </outline>
</glyph>
<glyph name="h" format="2">
  <advance width="543"/>
  <unicode hex="0068"/>
  <note>
h
</note>
  <anchor x="271.0004257708788" y="0" name="bottom"/>
  <anchor x="92.00060824411257" y="593.0" name="center"/>
  <anchor x="88.00066906852383" y="745.4996654657381" name="top"/>
  <outline>
    <contour>
      <point x="293.00109483940264" y="528.5001520610282" type="qcurve"/>
      <point x="383.00109483940264" y="528.5001520610282"/>
      <point x="468.5011860760195" y="424.50009123661687"/>
      <point x="468.5011860760195" y="312.50015206102813" type="qcurve"/>
      <point x="468.5011860760195" y="0.0" type="line"/>
      <point x="444.9995742291212" y="0.0" type="line"/>
      <point x="444.9995742291212" y="313.0" type="line"/>
      <point x="444.9995742291212" y="409.4994221680931"/>
      <point x="370.4999695877944" y="501.9988443361861"/>
      <point x="293.5003953586732" y="503.4987530995692" type="qcurve" smooth="yes"/>
      <point x="212.0008515417576" y="503.4987530995692"/>
      <point x="100.00152061028143" y="389.4996046413268"/>
      <point x="100.00152061028143" y="318.0" type="qcurve"/>
      <point x="100.00152061028143" y="0.0" type="line"/>
      <point x="74.00152061028143" y="0.0"/>
      <point x="102.49990876338312" y="0.0"/>
      <point x="76.49990876338312" y="0.0" type="qcurve"/>
      <point x="76.49990876338312" y="740.0" type="line"/>
      <point x="100.00152061028143" y="740.0" type="line"/>
      <point x="100.00152061028143" y="391.50051700749566" type="line"/>
      <point x="91.00133813704767" y="369.0007298929351" type="line"/>
      <point x="107.50130772484204" y="448.0001824732338"/>
      <point x="230.00109483940264" y="528.5001520610282"/>
    </contour>
  </outline>
</glyph>
<glyph name="l" format="2">
  <advance width="175"/>
  <unicode hex="006C"/>
  <note>
l
</note>
  <anchor x="89.00066906852383" y="0" name="bottom"/>
  <anchor x="89.00066906852383" y="289.0" name="center"/>
  <anchor x="88.50069948072945" y="740.0" name="top"/>
  <anchor x="196.00066906852385" y="580.0" name="topright"/>
  <outline>
    <contour>
      <point x="99.0015814346927" y="0.0" type="line"/>
      <point x="75.49996958779437" y="0.0" type="line"/>
      <point x="75.49996958779437" y="740.0" type="line"/>
      <point x="99.0015814346927" y="740.0" type="line"/>
    </contour>
  </outline>
</glyph>
<glyph name="m" format="2">
  <advance width="891"/>
  <unicode hex="006D"/>
  <note>
m
</note>
  <anchor x="452.50027370985066" y="0" name="bottom"/>
  <anchor x="468.99993917558874" y="524.9996958779437" name="top"/>
  <outline>
    <contour>
      <point x="303.0007298929351" y="529.5000912366169" type="qcurve"/>
      <point x="354.501064427197" y="529.5000912366169"/>
      <point x="437.00109483940264" y="468.99993917558874"/>
      <point x="459.5009427783745" y="363.0007298929351" type="qcurve"/>
      <point x="437.501064427197" y="382.0004257708788" type="line"/>
      <point x="444.501064427197" y="399.0004257708788" type="line" smooth="yes"/>
      <point x="463.49424609673076" y="448.84078390621903"/>
      <point x="572.501064427197" y="529.5000912366169"/>
      <point x="656.0004865952901" y="529.5000912366169" type="qcurve"/>
      <point x="729.0007907173464" y="529.5000912366169"/>
      <point x="816.0007907173464" y="426.4999695877944"/>
      <point x="816.0007907173464" y="315.0" type="qcurve"/>
      <point x="816.0007907173464" y="0.0" type="line"/>
      <point x="792.9991484582424" y="0.0" type="line"/>
      <point x="792.9991484582424" y="314.9998783511775" type="line"/>
      <point x="792.9991484582424" y="411.9992701070649"/>
      <point x="720.9995742291212" y="504.9986618629523"/>
      <point x="653.4998479389718" y="504.9986618629523" type="qcurve"/>
      <point x="566.5004561830845" y="504.9986618629523"/>
      <point x="457.50112525160824" y="390.99951340470994"/>
      <point x="457.50112525160824" y="319.9998783511775" type="qcurve"/>
      <point x="457.50112525160824" y="0.0" type="line"/>
      <point x="434.49948299250434" y="0.0" type="line"/>
      <point x="434.49948299250434" y="313.99993917558874" type="line"/>
      <point x="434.49948299250434" y="413.499178870448"/>
      <point x="361.9998783511775" y="504.9986618629523"/>
      <point x="292.50027370985066" y="504.9986618629523" type="qcurve"/>
      <point x="206.50088195396324" y="504.9986618629523"/>
      <point x="97.50155102248706" y="390.49954381691555"/>
      <point x="97.50155102248706" y="318.99993917558874" type="qcurve"/>
      <point x="97.50155102248706" y="0.0" type="line"/>
      <point x="74.49990876338312" y="0.0" type="line"/>
      <point x="74.49990876338312" y="517.5001520610282" type="line"/>
      <point x="94.50161184689833" y="517.5001520610282" type="line"/>
      <point x="102.00145978587018" y="384.5005778319069" type="line"/>
      <point x="93.50124690043077" y="393.50015206102813" type="line"/>
      <point x="114.50112525160827" y="463.4997871145606"/>
      <point x="227.50100360278574" y="529.5000912366169"/>
    </contour>
  </outline>
</glyph>
<glyph name="n" format="2">
  <advance width="540"/>
  <unicode hex="006E"/>
  <note>
n
</note>
  <anchor x="267.0007298929351" y="0" name="bottom"/>
  <anchor x="291.00024329764506" y="524.9996958779437" name="top"/>
  <outline>
    <contour>
      <point x="299.0009731905801" y="528.5001520610282" type="qcurve"/>
      <point x="378.5011860760195" y="528.5001520610282"/>
      <point x="465.5012469004308" y="424.50009123661687"/>
      <point x="465.5012469004308" y="312.50015206102813" type="qcurve"/>
      <point x="465.5012469004308" y="0.0" type="line"/>
      <point x="441.9996350535325" y="0.0" type="line"/>
      <point x="441.9996350535325" y="313.0" type="line"/>
      <point x="441.9996350535325" y="409.4994221680931"/>
      <point x="366.00006082441126" y="501.9988443361861"/>
      <point x="293.5003953586732" y="503.4987530995692" type="qcurve"/>
      <point x="207.50094277837448" y="503.4987530995692"/>
      <point x="97.0015814346927" y="389.4996046413268"/>
      <point x="97.0015814346927" y="318.0" type="qcurve"/>
      <point x="97.0015814346927" y="0.0" type="line"/>
      <point x="71.0015814346927" y="0.0"/>
      <point x="99.49996958779437" y="0.0"/>
      <point x="73.49996958779437" y="0.0" type="qcurve"/>
      <point x="73.49996958779437" y="517.5001520610282" type="line"/>
      <point x="94.00164225910395" y="517.5001520610282" type="line"/>
      <point x="101.50149019807581" y="406.5002128854394" type="line"/>
      <point x="101.50112525160827" y="412.49984793897187" type="line"/>
      <point x="118.00109483940264" y="459.99993917558874"/>
      <point x="230.00109483940264" y="528.5001520610282"/>
    </contour>
  </outline>
</glyph>
<glyph name="o" format="2">
  <advance width="615"/>
  <unicode hex="006F"/>
  <note>
o
</note>
  <anchor x="308" y="0" name="bottom"/>
  <anchor x="307" y="256.0" name="center"/>
  <anchor x="549.0" y="10.0" name="ogonek"/>
  <anchor x="308" y="523" name="top"/>
  <anchor x="321" y="531.0" name="topright"/>
  <outline>
    <contour>
      <point x="308" y="530" type="qcurve"/>
      <point x="427.0" y="530.0"/>
      <point x="575.0" y="380.4398496240601"/>
      <point x="575" y="263" type="qcurve"/>
      <point x="575" y="144"/>
      <point x="427" y="-10"/>
      <point x="308" y="-10" type="qcurve"/>
      <point x="190" y="-10"/>
      <point x="40" y="144"/>
      <point x="40" y="263" type="qcurve"/>
      <point x="40.0" y="380.4398496240601"/>
      <point x="190.0" y="530.0"/>
    </contour>
    <contour>
      <point x="308" y="12" type="qcurve"/>
      <point x="414" y="12"/>
      <point x="552" y="153"/>
      <point x="553" y="263" type="qcurve" smooth="yes"/>
      <point x="551.9959020033202" y="369.4343876480608"/>
      <point x="414.0" y="508.0"/>
      <point x="308" y="508" type="qcurve"/>
      <point x="201.0" y="508.0"/>
      <point x="63.00409800345073" y="370.4384863692277"/>
      <point x="62" y="263" type="qcurve" smooth="yes"/>
      <point x="63" y="153"/>
      <point x="201" y="12"/>
    </contour>
  </outline>
</glyph>
<glyph name="r" format="2">
  <advance width="316"/>
  <unicode hex="0072"/>
  <note>
r
</note>
  <anchor x="84.00085154175761" y="0" name="bottom"/>
  <anchor x="176.50082112955198" y="524.9996958779437" name="top"/>
  <outline>
    <contour>
      <point x="321.00145978587017" y="521.5000912366169" type="qcurve"/>
      <point x="312.00109483940264" y="490.4984489775129" type="line"/>
      <point x="297.0011556638139" y="496.9984185653073"/>
      <point x="272.501064427197" y="499.4985098019242"/>
      <point x="264.5009427783745" y="499.4985098019242" type="qcurve"/>
      <point x="171.50173349572083" y="499.4985098019242"/>
      <point x="96.50161184689833" y="381.49930051927055"/>
      <point x="96.50161184689833" y="307.9996350535325" type="qcurve"/>
      <point x="96.50161184689833" y="0.0" type="line"/>
      <point x="73.49996958779437" y="0.0" type="line"/>
      <point x="73.49996958779437" y="517.5001520610282" type="line"/>
      <point x="93.50167267130958" y="517.5001520610282" type="line"/>
      <point x="101.00152061028143" y="425.9986618629523" type="line"/>
      <point x="95.50142937366455" y="405.9998783511775" type="line"/>
      <point x="112.50142937366455" y="452.50009123661687"/>
      <point x="191.00182473233772" y="528.5001520610282"/>
      <point x="262.5014901980758" y="528.5001520610282" type="qcurve"/>
      <point x="279.5014901980758" y="528.5001520610282"/>
      <point x="307.5015510224871" y="524.0001216488225"/>
    </contour>
  </outline>
</glyph>
<glyph name="s" format="2">
  <advance width="479"/>
  <unicode hex="0073"/>
  <note>
s
</note>
  <anchor x="243.99987835117747" y="0" name="bottom"/>
  <anchor x="242.4999087633831" y="515.0003041220563" name="top"/>
  <outline>
    <contour>
      <point x="45.0" y="81.0" type="qcurve"/>
      <point x="63" y="97" type="line"/>
      <point x="93.69955712647786" y="57.38766822389953"/>
      <point x="192.46153846153845" y="12.0"/>
      <point x="250" y="12" type="qcurve"/>
      <point x="317.3532934131736" y="12.0"/>
      <point x="402.0" y="76.0"/>
      <point x="402" y="133" type="qcurve"/>
      <point x="402.0" y="178.0"/>
      <point x="319.79133495072006" y="230.7089542133491"/>
      <point x="241" y="256" type="qcurve" smooth="yes"/>
      <point x="154.2195621309005" y="284.2767718899313"/>
      <point x="65.0" y="350.0"/>
      <point x="65" y="397.0" type="qcurve"/>
      <point x="65.0" y="457.0"/>
      <point x="156.2674418604651" y="529.0"/>
      <point x="232" y="529" type="qcurve" smooth="yes"/>
      <point x="286.56410256410254" y="529.0"/>
      <point x="386.3880292479856" y="486.54729921068343"/>
      <point x="422" y="445" type="qcurve"/>
      <point x="406" y="427" type="line"/>
      <point x="372.40682072609076" y="465.5333526965429"/>
      <point x="283.5195530726257" y="507.0"/>
      <point x="232" y="507" type="qcurve"/>
      <point x="170.82352941176472" y="507.0"/>
      <point x="88.0" y="447.0"/>
      <point x="88" y="398.0" type="qcurve" smooth="yes"/>
      <point x="88.0" y="361.0"/>
      <point x="168.21311680446797" y="303.2996465808646"/>
      <point x="245" y="279" type="qcurve" smooth="yes"/>
      <point x="335.72635925337926" y="249.73343249890993"/>
      <point x="425.0" y="189.0"/>
      <point x="425" y="133" type="qcurve" smooth="yes"/>
      <point x="425.0" y="67.0"/>
      <point x="329.2105263157895" y="-10.0"/>
      <point x="250" y="-10.0" type="qcurve" smooth="yes"/>
      <point x="179.275" y="-10.0"/>
      <point x="69.80790595662857" y="45.27661542245485"/>
    </contour>
  </outline>
</glyph>
<glyph name="t" format="2">
  <advance width="347"/>
  <unicode hex="0074"/>
  <note>
t
</note>
  <anchor x="173.00018247323376" y="0" name="bottom"/>
  <anchor x="173.00018247323376" y="256.0" name="center"/>
  <anchor x="174.00018247323376" y="665.4996046413269" name="top"/>
  <anchor x="284.00048659529006" y="598.9989659850087" name="topright"/>
  <outline>
    <contour>
      <point x="183.0011556638139" y="659.0" type="line"/>
      <point x="183.0011556638139" y="0.0" type="line"/>
      <point x="159.49954381691558" y="0.0" type="line"/>
      <point x="159.49954381691558" y="659.0" type="line"/>
    </contour>
    <contour>
      <point x="332.0006082441126" y="517.5001520610282" type="line"/>
      <point x="332.0006082441126" y="498.4985098019242" type="line"/>
      <point x="26.50003041220563" y="498.4985098019242" type="line"/>
      <point x="26.50003041220563" y="517.5001520610282" type="line"/>
    </contour>
  </outline>
</glyph>
<glyph name="u" format="2">
  <advance width="538"/>
  <unicode hex="0075"/>
  <note>
u
</note>
  <anchor x="245.00109483940264" y="0" name="bottom"/>
  <anchor x="443.0017639079265" y="14.999695877943713" name="ogonek"/>
  <anchor x="269.0006082441126" y="524.9996958779437" name="top"/>
  <anchor x="537.4969283672315" y="514.0003649464676" name="topright"/>
  <outline>
    <contour>
      <point x="265" y="17" type="qcurve"/>
      <point x="338" y="17"/>
      <point x="444.0" y="118.0"/>
      <point x="444" y="149" type="qcurve"/>
      <point x="444" y="525" type="line"/>
      <point x="466" y="525" type="line"/>
      <point x="466" y="0" type="line"/>
      <point x="446" y="0" type="line"/>
      <point x="444" y="121" type="line"/>
      <point x="453" y="123" type="line"/>
      <point x="436.0802122054966" y="71.24535498151907"/>
      <point x="329.5" y="-5.0"/>
      <point x="263" y="-5" type="qcurve"/>
      <point x="172.22222222222223" y="-5.0"/>
      <point x="73.0" y="91.0"/>
      <point x="73" y="197" type="qcurve"/>
      <point x="73" y="525" type="line"/>
      <point x="95" y="525" type="line"/>
      <point x="95" y="197" type="line"/>
      <point x="95.0" y="102.0"/>
      <point x="183.1875" y="17.0"/>
    </contour>
  </outline>
</glyph>
<glyph name="v" format="2">
  <advance width="471"/>
  <unicode hex="0076"/>
  <note>
v
</note>
  <anchor x="222.50130772484204" y="0" name="bottom"/>
  <anchor x="222.50130772484204" y="524.9996958779437" name="top"/>
  <outline>
    <contour>
      <point x="1.0004257708788025" y="517.5001520610282" type="line"/>
      <point x="32.50203761777712" y="517.5001520610282" type="line"/>
      <point x="231.50124690043077" y="25.502159266599634" type="line"/>
      <point x="209.50130772484204" y="9.00231132762778" type="line"/>
      <point x="439.0001216488225" y="517.5001520610282" type="line"/>
      <point x="470.00164225910396" y="517.5001520610282" type="line"/>
      <point x="232.50173349572083" y="0.0" type="line"/>
      <point x="218.5005170074957" y="0.0" type="line"/>
    </contour>
  </outline>
</glyph>
<glyph name="w" format="2">
  <advance width="715"/>
  <unicode hex="0077"/>
  <note>
w
</note>
  <anchor x="353.0011556638139" y="0" name="bottom"/>
  <anchor x="353.0011556638139" y="527.4995438169155" name="top"/>
  <outline>
    <contour>
      <point x="682.9998175267663" y="517.5001520610282" type="line"/>
      <point x="713.501307724842" y="517.5001520610282" type="line"/>
      <point x="526.0015206102814" y="0.0" type="line"/>
      <point x="532.9999391755888" y="0.0" type="line"/>
      <point x="340.50088195396324" y="443.4977799089891" type="line"/>
      <point x="383.00048659529006" y="444.9976886723722" type="line"/>
      <point x="185.50173349572083" y="0.0" type="line"/>
      <point x="187.50027370985066" y="0.0" type="line"/>
      <point x="1.0004257708788025" y="517.5001520610282" type="line"/>
      <point x="36.001824732337724" y="517.0001824732337" type="line"/>
      <point x="201.501064427197" y="32.50203761777712" type="line"/>
      <point x="172.5011860760195" y="34.50203761777712" type="line"/>
      <point x="352.0003649464675" y="442.0" type="line"/>
      <point x="366.0013381370477" y="442.0" type="line"/>
      <point x="545.0005474197013" y="35.0020072055715" type="line"/>
      <point x="510.50069948072945" y="33.0020072055715" type="line"/>
    </contour>
  </outline>
</glyph>
<glyph name="x" format="2">
  <advance width="493"/>
  <unicode hex="0078"/>
  <note>
x
</note>
  <anchor x="248.50057783190695" y="0" name="bottom"/>
  <anchor x="248.50057783190695" y="524.9996958779437" name="top"/>
  <outline>
    <contour>
      <point x="31.499665465738083" y="517.5001520610282" type="line"/>
      <point x="61.00170308351521" y="517.5001520610282" type="line"/>
      <point x="259.501064427197" y="266.500821129552" type="line"/>
      <point x="255.50149019807583" y="271.50027370985066" type="line"/>
      <point x="473.5014901980758" y="0.0" type="line"/>
      <point x="441.9995742291212" y="0.0" type="line"/>
      <point x="239.00024329764503" y="255.49930051927055" type="line"/>
      <point x="241.99987835117747" y="251.99975670235497" type="line"/>
    </contour>
    <contour>
      <point x="50.00176390792646" y="0.4999695877943713" type="line"/>
      <point x="18.999939175588743" y="0.0" type="line"/>
      <point x="243.9995742291212" y="283.49972629014934" type="line"/>
      <point x="261.0003649464675" y="269.4983881531017" type="line"/>
    </contour>
    <contour>
      <point x="439.99933093147615" y="517.5001520610282" type="line"/>
      <point x="470.5011860760195" y="517.5001520610282" type="line"/>
      <point x="258.5015510224871" y="258.49990876338313" type="line"/>
      <point x="242.00072989293508" y="276.5010036027858" type="line"/>
    </contour>
  </outline>
</glyph>
<glyph name="braceleft" format="2">
  <advance width="402"/>
  <unicode hex="007B"/>
  <note>
braceleft
</note>
  <outline>
    <contour>
      <point x="369.0003649464675" y="-165.49930051927055" type="qcurve"/>
      <point x="363.0001216488225" y="-188.00024329764503" type="line"/>
      <point x="288.9996350535325" y="-169.5002128854394"/>
      <point x="201.99963505353244" y="-83.00018247323378"/>
      <point x="201.99963505353244" y="-7.0" type="qcurve"/>
      <point x="202.99963505353244" y="88.0" type="line"/>
      <point x="202.99963505353244" y="157.99975670235497"/>
      <point x="139.99987835117747" y="236.4994829925043"/>
      <point x="81.00012164882251" y="237.4994829925043" type="qcurve"/>
      <point x="52.99981752676623" y="237.4994829925043" type="line"/>
      <point x="52.99981752676623" y="262.50051700749566" type="line"/>
      <point x="83.00012164882251" y="262.50051700749566" type="line"/>
      <point x="141.99987835117747" y="263.50051700749566"/>
      <point x="202.99963505353244" y="341.00024329764506"/>
      <point x="202.99963505353244" y="412.0" type="qcurve"/>
      <point x="201.99963505353244" y="507.0" type="line"/>
      <point x="201.99963505353244" y="584.5000912366169"/>
      <point x="289.4996046413268" y="670.0001824732337"/>
      <point x="363.0001216488225" y="688.000243297645" type="qcurve"/>
      <point x="369.0003649464675" y="665.4993005192705" type="line"/>
      <point x="290.00066906852385" y="638.499422168093"/>
      <point x="230.00091236616885" y="569.9996958779437"/>
      <point x="230.00091236616885" y="493.0" type="qcurve"/>
      <point x="232.00091236616885" y="398.0" type="line"/>
      <point x="232.00091236616885" y="340.0"/>
      <point x="188.00072989293508" y="262.5000304122056"/>
      <point x="142.5006386563182" y="249.0" type="qcurve"/>
      <point x="141.5006386563182" y="252.0" type="line"/>
      <point x="188.00072989293508" y="235.0"/>
      <point x="232.00091236616885" y="159.0"/>
      <point x="232.00091236616885" y="102.0" type="qcurve"/>
      <point x="230.00091236616885" y="7.0" type="line"/>
      <point x="230.00091236616885" y="-70.49966546573808"/>
      <point x="290.5006386563182" y="-138.99939175588742"/>
    </contour>
  </outline>
</glyph>
<glyph name="asciitilde" format="2">
  <advance width="510"/>
  <unicode hex="007E"/>
  <note>
asciitilde
</note>
  <outline>
    <contour>
      <point x="98" y="257" type="qcurve"/>
      <point x="76" y="257" type="line"/>
      <point x="76.0" y="295.0"/>
      <point x="120" y="339.0"/>
      <point x="149" y="339" type="qcurve"/>
      <point x="179" y="339"/>
      <point x="245" y="312"/>
      <point x="273" y="299" type="qcurve" smooth="yes"/>
      <point x="287" y="293"/>
      <point x="335.0" y="273.0"/>
      <point x="358" y="273" type="qcurve"/>
      <point x="378" y="273.0"/>
      <point x="410" y="300"/>
      <point x="410" y="333" type="qcurve"/>
      <point x="432" y="333" type="line"/>
      <point x="432.0" y="294.0"/>
      <point x="388" y="251.0"/>
      <point x="359" y="251" type="qcurve"/>
      <point x="327" y="251.0"/>
      <point x="260.87162174122204" y="280.0570570039013"/>
      <point x="243" y="288" type="qcurve"/>
      <point x="224.0" y="296.0"/>
      <point x="174.0" y="317.0"/>
      <point x="150" y="317" type="qcurve"/>
      <point x="129" y="317.0"/>
      <point x="98.0" y="288.0"/>
    </contour>
  </outline>
</glyph>
<glyph name="cent" format="2">
  <advance width="550"/>
  <unicode hex="00A2"/>
  <note>
cent
</note>
  <anchor x="285.9994525802987" y="88.0" name="bottom"/>
  <anchor x="325.9994525802987" y="618.0" name="top"/>
  <outline>
    <contour>
      <point x="322.50027370985066" y="77.00060824411257" type="line"/>
      <point x="322.50027370985066" y="0.0" type="line"/>
      <point x="295.9988443361861" y="0.0" type="line"/>
      <point x="295.9988443361861" y="78.00060824411257" type="line"/>
      <point x="293.9990268094199" y="110.50069948072945" type="line"/>
      <point x="293.9990268094199" y="583.9995742291212" type="line"/>
      <point x="295.9988443361861" y="606.0" type="line"/>
      <point x="295.9988443361861" y="700.0" type="line"/>
      <point x="322.50027370985066" y="700.0" type="line"/>
      <point x="322.50027370985066" y="605.0" type="line"/>
      <point x="324.50009123661687" y="579.4998479389718" type="line"/>
      <point x="324.50009123661687" y="111.00060824411257" type="line"/>
    </contour>
    <contour>
      <point x="309.49990876338313" y="587.9988443361862" type="qcurve"/>
      <point x="213.5003953586732" y="587.9988443361862"/>
      <point x="85.50106442719701" y="453.49948299250434"/>
      <point x="85.50106442719701" y="348.00006082441126" type="qcurve"/>
      <point x="85.50106442719701" y="242.00066906852385"/>
      <point x="210.00054741970132" y="106.50130772484204"/>
      <point x="298.50015206102813" y="106.50130772484204" type="qcurve"/>
      <point x="359.49972629014934" y="106.50130772484204"/>
      <point x="455.49930051927055" y="146.00133813704767"/>
      <point x="494.9991484582424" y="189.50124690043077" type="qcurve"/>
      <point x="515.9998783511775" y="169.00024329764503" type="line"/>
      <point x="478.0" y="124.00024329764503"/>
      <point x="378.4996046413268" y="78.0"/>
      <point x="315.9995742291212" y="78.0" type="qcurve"/>
      <point x="200.9996958779437" y="78.0"/>
      <point x="54.999695877943715" y="229.00012164882253"/>
      <point x="54.999695877943715" y="348.00006082441126" type="qcurve"/>
      <point x="54.999695877943715" y="467.0"/>
      <point x="202.49966546573808" y="616.5001520610282"/>
      <point x="320.49948299250434" y="616.5001520610282" type="qcurve"/>
      <point x="381.4996654657381" y="616.5001520610282"/>
      <point x="481.4999695877944" y="569.9999391755888"/>
      <point x="518.9998175267663" y="526.9998175267663" type="qcurve"/>
      <point x="499.4990572216255" y="503.49887474839176" type="line"/>
      <point x="461.99933093147615" y="545.9987226873636"/>
      <point x="366.49954381691555" y="587.9988443361862"/>
    </contour>
  </outline>
</glyph>
<glyph name="dieresis" format="2">
  <advance width="337"/>
  <unicode hex="00A8"/>
  <anchor x="166.50088195396324" y="522.4998479389718" name="_top"/>
  <outline>
    <contour>
      <point x="110.50130772484204" y="682.9994525802987" type="qcurve" smooth="yes"/>
      <point x="110.50130772484204" y="667.4991788704481"/>
      <point x="93.00091236616886" y="647.9988443361862"/>
      <point x="76.00060824411257" y="647.9988443361862" type="qcurve" smooth="yes"/>
      <point x="59.50027370985066" y="647.9988443361862"/>
      <point x="41.49990876338311" y="666.9991484582424"/>
      <point x="41.49990876338311" y="682.9994525802987" type="qcurve" smooth="yes"/>
      <point x="41.49990876338311" y="698.4997262901494"/>
      <point x="59.000304122056285" y="718.0000608244112"/>
      <point x="76.00060824411257" y="718.0000608244112" type="qcurve" smooth="yes"/>
      <point x="92.50094277837448" y="718.0000608244112"/>
      <point x="110.50130772484204" y="698.999756702355"/>
    </contour>
    <contour>
      <point x="295.5016118468983" y="682.9994525802987" type="qcurve" smooth="yes"/>
      <point x="295.5016118468983" y="667.4991788704481"/>
      <point x="278.00121648822517" y="647.9988443361862"/>
      <point x="261.00091236616885" y="647.9988443361862" type="qcurve" smooth="yes"/>
      <point x="244.50057783190695" y="647.9988443361862"/>
      <point x="226.5002128854394" y="666.9991484582424"/>
      <point x="226.5002128854394" y="682.9994525802987" type="qcurve" smooth="yes"/>
      <point x="226.5002128854394" y="698.4997262901494"/>
      <point x="244.00060824411258" y="718.0000608244112"/>
      <point x="261.00091236616885" y="718.0000608244112" type="qcurve" smooth="yes"/>
      <point x="277.5012469004308" y="718.0000608244112"/>
      <point x="295.5016118468983" y="698.999756702355"/>
    </contour>
  </outline>
</glyph>
<glyph name="copyright" format="2">
  <advance width="786"/>
  <unicode hex="00A9"/>
  <note>
copyright
</note>
  <guideline x="727" y="521" angle="270" identifier="fUUwBXhN8f"/>
  <guideline x="622" y="685" angle="0" identifier="40NXphXu6D"/>
  <guideline x="541.0" y="707.0" angle="0" identifier="ciIh0zQXSY"/>
  <guideline x="750" y="554" angle="270" identifier="y97nRbHVZh"/>
  <outline>
    <contour>
      <point x="750" y="349" type="qcurve" smooth="yes"/>
      <point x="750" y="199"/>
      <point x="542" y="-8"/>
      <point x="392" y="-8" type="qcurve" smooth="yes"/>
      <point x="242" y="-8"/>
      <point x="35" y="199"/>
      <point x="35" y="349" type="qcurve" smooth="yes"/>
      <point x="35" y="499"/>
      <point x="242" y="707"/>
      <point x="392" y="707" type="qcurve" smooth="yes"/>
      <point x="542" y="707"/>
      <point x="750" y="499"/>
    </contour>
    <contour>
      <point x="58" y="350" type="qcurve" smooth="yes"/>
      <point x="58.0" y="209"/>
      <point x="252.0" y="14.0"/>
      <point x="393" y="14" type="qcurve" smooth="yes"/>
      <point x="533.0" y="14.0"/>
      <point x="727.0" y="209"/>
      <point x="727" y="350" type="qcurve" smooth="yes"/>
      <point x="727.0" y="490.0"/>
      <point x="533" y="685.0"/>
      <point x="393" y="685" type="qcurve" smooth="yes"/>
      <point x="252" y="685"/>
      <point x="58" y="490"/>
    </contour>
    <contour>
      <point x="400" y="142.0" type="qcurve" smooth="yes"/>
      <point x="314" y="142.0"/>
      <point x="196.0" y="260.0"/>
      <point x="196" y="350.0" type="qcurve" smooth="yes"/>
      <point x="196.0" y="436.0"/>
      <point x="314" y="557.0"/>
      <point x="400" y="557.0" type="qcurve" smooth="yes"/>
      <point x="434" y="557.0"/>
      <point x="500" y="534.0"/>
      <point x="529" y="512.0" type="qcurve"/>
      <point x="516" y="494" type="line"/>
      <point x="501" y="506"/>
      <point x="441.0" y="535.0"/>
      <point x="400" y="535" type="qcurve" smooth="yes"/>
      <point x="325" y="535.0"/>
      <point x="218.0" y="423.0"/>
      <point x="218" y="350.0" type="qcurve" smooth="yes"/>
      <point x="218.0" y="273.0"/>
      <point x="324" y="164.0"/>
      <point x="400" y="164" type="qcurve" smooth="yes"/>
      <point x="438.0" y="164.0"/>
      <point x="494" y="183"/>
      <point x="521" y="201" type="qcurve"/>
      <point x="533" y="185.0" type="line"/>
      <point x="503" y="164.0"/>
      <point x="435" y="142.0"/>
    </contour>
  </outline>
</glyph>
<glyph name="ordfeminine" format="2">
  <advance width="365"/>
  <unicode hex="00AA"/>
  <note>
ordfeminine
</note>
  <outline>
    <contour>
      <point x="176" y="392" type="qcurve" smooth="yes"/>
      <point x="114" y="392.0"/>
      <point x="30.0" y="489.0"/>
      <point x="30" y="561" type="qcurve" smooth="yes"/>
      <point x="30.0" y="633.0"/>
      <point x="114" y="731.0"/>
      <point x="176" y="731" type="qcurve" smooth="yes"/>
      <point x="219" y="731.0"/>
      <point x="286" y="683"/>
      <point x="299" y="643" type="qcurve"/>
      <point x="290" y="644" type="line"/>
      <point x="291" y="726" type="line"/>
      <point x="310" y="726" type="line"/>
      <point x="310" y="393" type="line"/>
      <point x="290" y="393" type="line"/>
      <point x="290" y="478" type="line"/>
      <point x="299" y="482" type="line"/>
      <point x="286" y="441"/>
      <point x="219" y="392.0"/>
    </contour>
    <contour>
      <point x="50" y="561" type="qcurve"/>
      <point x="50.0" y="498.0"/>
      <point x="121.42857142857144" y="412.0"/>
      <point x="175" y="412" type="qcurve"/>
      <point x="224.8512396694215" y="412.0"/>
      <point x="291.0" y="478.0"/>
      <point x="291" y="561" type="qcurve"/>
      <point x="291.0" y="645.0"/>
      <point x="223.89256198347107" y="711.0"/>
      <point x="175" y="711" type="qcurve"/>
      <point x="121.42857142857144" y="711.0"/>
      <point x="50.0" y="625.0"/>
    </contour>
  </outline>
</glyph>
<glyph name="registered" format="2">
  <advance width="525"/>
  <unicode hex="00AE"/>
  <note>
registered
</note>
  <outline>
    <contour>
      <point x="496.9998175267662" y="484.0" type="qcurve" smooth="yes"/>
      <point x="496.9998175267662" y="387.00006082441126"/>
      <point x="358.49990876338313" y="251.50015206102813"/>
      <point x="260.4999695877944" y="251.50015206102813" type="qcurve" smooth="yes"/>
      <point x="161.50003041220563" y="251.50015206102813"/>
      <point x="23.000121648822514" y="387.00006082441126"/>
      <point x="23.000121648822514" y="484.0" type="qcurve" smooth="yes"/>
      <point x="23.000121648822514" y="580.9999391755888"/>
      <point x="162.50003041220563" y="716.4998479389718"/>
      <point x="260.4999695877944" y="716.4998479389718" type="qcurve" smooth="yes"/>
      <point x="357.57850978981776" y="716.4998479389718"/>
      <point x="496.9998175267662" y="579.9999391755888"/>
    </contour>
    <contour>
      <point x="358.99993917558874" y="534.0" type="qcurve" smooth="yes"/>
      <point x="358.99993917558874" y="499.00006082441126"/>
      <point x="308.50009123661687" y="453.50015206102813"/>
      <point x="270.00024329764506" y="453.50015206102813" type="qcurve" smooth="yes"/>
      <point x="184.00054741970132" y="453.50015206102813" type="line"/>
      <point x="212.50033453426192" y="470.0" type="line"/>
      <point x="212.50033453426192" y="367.0" type="line"/>
      <point x="182.4997871145606" y="367.0" type="line"/>
      <point x="182.4997871145606" y="613.4998479389718" type="line"/>
      <point x="270.00024329764506" y="613.4998479389718" type="line" smooth="yes"/>
      <point x="310.50009123661687" y="613.4998479389718"/>
      <point x="358.99993917558874" y="568.9999391755888"/>
    </contour>
    <contour>
      <point x="186.00054741970132" y="487.00030412205626" type="line"/>
      <point x="264.99993917558874" y="487.00030412205626" type="line" smooth="yes"/>
      <point x="293.99969587794374" y="487.00030412205626"/>
      <point x="329.4994221680931" y="514.0000608244112"/>
      <point x="329.4994221680931" y="534.9998783511775" type="qcurve"/>
      <point x="329.4994221680931" y="558.4996654657381"/>
      <point x="298.4996654657381" y="584.499422168093"/>
      <point x="266.99993917558874" y="584.499422168093" type="qcurve" smooth="yes"/>
      <point x="183.00054741970132" y="584.499422168093" type="line"/>
      <point x="212.50033453426192" y="601.4992396948593" type="line"/>
      <point x="212.50033453426192" y="471.00048659529006" type="line"/>
    </contour>
    <contour>
      <point x="52.00079071734635" y="484.0" type="qcurve" smooth="yes"/>
      <point x="52.00079071734635" y="398.0003649464675"/>
      <point x="174.0003041220563" y="280.0008515417576"/>
      <point x="260.4999695877944" y="280.0008515417576" type="qcurve" smooth="yes"/>
      <point x="345.9996350535325" y="280.0008515417576"/>
      <point x="468.49911804603676" y="398.0003649464675"/>
      <point x="468.49911804603676" y="484.0" type="qcurve" smooth="yes"/>
      <point x="468.49911804603676" y="569.9996350535324"/>
      <point x="345.90918462612774" y="687.4991788704481"/>
      <point x="260.4999695877944" y="687.4991788704481" type="qcurve" smooth="yes"/>
      <point x="174.0003041220563" y="687.4991788704481"/>
      <point x="52.00079071734635" y="569.9996350535324"/>
    </contour>
    <contour>
      <point x="332.499178870448" y="367.0" type="line"/>
      <point x="274.4996046413268" y="467.0" type="line"/>
      <point x="300.50015206102813" y="481.0" type="line"/>
      <point x="365.49972629014934" y="367.0" type="line"/>
    </contour>
  </outline>
</glyph>
<glyph name="macron" format="2">
  <advance width="424"/>
  <unicode hex="00AF"/>
  <anchor x="199.0" y="515.0" name="_top"/>
  <outline>
    <contour>
      <point x="346.50015206102813" y="624.4993005192705" type="line"/>
      <point x="77.49984793897185" y="624.4993005192705" type="line"/>
      <point x="77.49984793897185" y="651.5002737098506" type="line"/>
      <point x="346.50015206102813" y="651.5002737098506" type="line"/>
    </contour>
  </outline>
</glyph>
<glyph name="paragraph" format="2">
  <advance width="594"/>
  <unicode hex="00B6"/>
  <note>
paragraph
</note>
  <outline>
    <contour>
      <point x="480.50270668630094" y="0.0" type="line"/>
      <point x="459.5009427783745" y="0.0" type="line"/>
      <point x="459.5009427783745" y="689.9993917558875" type="line"/>
      <point x="493.5005778319069" y="684.4982056798679" type="line"/>
      <point x="298.00024329764506" y="684.4982056798679" type="line"/>
      <point x="342.00024329764506" y="695.4991180460368" type="line"/>
      <point x="342.00024329764506" y="0.0" type="line"/>
      <point x="320.99847938971857" y="0.0" type="line"/>
      <point x="320.99847938971857" y="314.0" type="line"/>
      <point x="344.99847938971857" y="279.0" type="line"/>
      <point x="265.9993917558874" y="279.0" type="line" smooth="yes"/>
      <point x="184.99939175588742" y="279.0"/>
      <point x="77.99939175588743" y="396.0"/>
      <point x="77.99939175588743" y="486.0" type="qcurve" smooth="yes"/>
      <point x="77.99939175588743" y="583.0"/>
      <point x="200.99939175588742" y="700.0"/>
      <point x="302.9993917558874" y="700.0" type="qcurve"/>
      <point x="480.50270668630094" y="700.0" type="line"/>
    </contour>
  </outline>
</glyph>
<glyph name="cedilla" format="2">
  <advance width="267"/>
  <unicode hex="00B8"/>
  <anchor x="141.0" y="0" name="_bottom"/>
  <outline>
    <contour>
      <point x="196" y="-149" type="qcurve"/>
      <point x="196" y="-167"/>
      <point x="177" y="-201"/>
      <point x="156" y="-211" type="qcurve" smooth="yes"/>
      <point x="137" y="-220"/>
      <point x="84" y="-227"/>
      <point x="50" y="-227" type="qcurve"/>
      <point x="48" y="-208" type="line"/>
      <point x="90" y="-209"/>
      <point x="176" y="-188"/>
      <point x="176" y="-148" type="qcurve"/>
      <point x="176" y="-122"/>
      <point x="134" y="-88"/>
      <point x="76" y="-88" type="qcurve"/>
      <point x="69" y="-83" type="line"/>
      <point x="63" y="-78" type="line"/>
      <point x="117" y="0" type="line"/>
      <point x="139" y="0" type="line"/>
      <point x="81" y="-81" type="line"/>
      <point x="82" y="-71" type="line"/>
      <point x="145" y="-72"/>
      <point x="196" y="-113"/>
    </contour>
  </outline>
</glyph>
<glyph name="AE" format="2">
  <advance width="929"/>
  <unicode hex="00C6"/>
  <note>
AE
</note>
  <anchor x="464.00066906852385" y="0" name="bottom"/>
  <anchor x="613.0006690685238" y="700.0" name="top"/>
  <outline>
    <contour>
      <point x="162.00024329764503" y="209.9988443361861" type="line"/>
      <point x="189.00079071734635" y="239.00012164882253" type="line"/>
      <point x="500.9996350535325" y="239.00012164882253" type="line"/>
      <point x="465.0" y="224.99975670235497" type="line"/>
      <point x="465.0" y="662.9977494967835" type="line"/>
      <point x="473.5002128854394" y="629.4982056798679" type="line"/>
      <point x="33.001642259103946" y="0.0" type="line"/>
      <point x="-2.4998479389718566" y="0.0" type="line"/>
      <point x="482.5002128854394" y="700.0" type="line"/>
      <point x="861.0006690685238" y="700.0" type="line"/>
      <point x="861.0006690685238" y="671.498692275158" type="line"/>
      <point x="449.0021896788053" y="671.498692275158" type="line"/>
      <point x="489.5015510224871" y="711.9980536188398" type="line"/>
      <point x="489.5015510224871" y="356.5005778319069" type="line"/>
      <point x="448.5022200910109" y="378.00048659529006" type="line"/>
      <point x="798.0010340149913" y="378.00048659529006" type="line"/>
      <point x="798.0010340149913" y="349.9991484582424" type="line"/>
      <point x="449.5021592665996" y="349.9991484582424" type="line"/>
      <point x="489.5015510224871" y="372.9989659850086" type="line"/>
      <point x="489.5015510224871" y="-5.998418565307304" type="line"/>
      <point x="449.0021896788053" y="28.501307724842036" type="line"/>
      <point x="855.0007907173464" y="28.501307724842036" type="line"/>
      <point x="855.0007907173464" y="0.0" type="line"/>
      <point x="465.0" y="0.0" type="line"/>
      <point x="465.0" y="233.4986314507467" type="line"/>
      <point x="498.4997871145606" y="209.9988443361861" type="line"/>
    </contour>
  </outline>
</glyph>
<glyph name="multiply" format="2">
  <advance width="444"/>
  <unicode hex="00D7"/>
  <note>
multiply
</note>
  <outline>
    <contour>
      <point x="401.0009731905801" y="125.00024329764503" type="line"/>
      <point x="379.0001216488225" y="101.99951340470994" type="line"/>
      <point x="42.499847938971854" y="439.49972629014934" type="line"/>
      <point x="63.00072989293509" y="462.00048659529006" type="line"/>
    </contour>
    <contour>
      <point x="62.00072989293509" y="109.99920928265365" type="line"/>
      <point x="40.49996958779437" y="128.50015206102813" type="line"/>
      <point x="376.5002128854394" y="463.50045618308445" type="line"/>
      <point x="397.5010036027858" y="444.49954381691555" type="line"/>
    </contour>
  </outline>
</glyph>
<glyph name="Oslash" format="2">
  <advance width="795"/>
  <unicode hex="00D8"/>
  <outline>
    <contour>
      <point x="109.50027370985066" y="-28.500091236616885" type="line"/>
      <point x="89.99939175588743" y="-6.999452580298684" type="line"/>
      <point x="681.9993309314762" y="717.0004865952901" type="line"/>
      <point x="699.0003649464676" y="692.5000304122057" type="line"/>
    </contour>
    <contour>
      <point x="393.4999695877944" y="702.5001520610282" type="qcurve"/>
      <point x="544.4999087633831" y="702.5001520610282"/>
      <point x="737.9999391755888" y="502.5000304122056"/>
      <point x="737.9999391755888" y="345.50009123661687" type="qcurve"/>
      <point x="737.9999391755888" y="188.50015206102813"/>
      <point x="544.4999087633831" y="-10.0"/>
      <point x="393.4999695877944" y="-10.0" type="qcurve"/>
      <point x="242.50003041220563" y="-10.0"/>
      <point x="50.49996958779437" y="189.00012164882253"/>
      <point x="50.49996958779437" y="345.50009123661687" type="qcurve"/>
      <point x="50.49996958779437" y="502.00006082441126"/>
      <point x="242.50003041220563" y="702.5001520610282"/>
    </contour>
    <contour>
      <point x="393.4999695877944" y="12.501672671309578" type="qcurve" smooth="yes"/>
      <point x="533.4991788704481" y="12.501672671309578"/>
      <point x="713.4982056798679" y="199.50082112955198"/>
      <point x="713.4982056798679" y="345.50009123661687" type="qcurve"/>
      <point x="713.4982056798679" y="491.4993613436818"/>
      <point x="533.4991788704481" y="679.9984793897186"/>
      <point x="393.4999695877944" y="679.9984793897186" type="qcurve" smooth="yes"/>
      <point x="254.00072989293508" y="679.9984793897186"/>
      <point x="75.00170308351521" y="490.9993917558874"/>
      <point x="75.00170308351521" y="345.50009123661687" type="qcurve"/>
      <point x="75.00170308351521" y="200.00079071734635"/>
      <point x="254.00072989293508" y="12.501672671309578"/>
    </contour>
  </outline>
</glyph>
<glyph name="germandbls" format="2">
  <advance width="604"/>
  <unicode hex="00DF"/>
  <note>
germandbls
</note>
  <guideline x="244" y="432" angle="0" identifier="IUsIIIC23R"/>
  <guideline x="133" y="412" angle="0" identifier="yis5qxNfF7"/>
  <outline>
    <contour>
      <point x="128" y="412" type="line"/>
      <point x="30" y="412" type="line"/>
      <point x="30" y="434" type="line"/>
      <point x="128" y="434" type="line"/>
    </contour>
    <contour>
      <point x="138" y="0" type="line"/>
      <point x="116" y="0" type="line"/>
      <point x="116" y="494" type="line" smooth="yes"/>
      <point x="116" y="611"/>
      <point x="223" y="728"/>
      <point x="316" y="728" type="qcurve"/>
      <point x="404" y="728"/>
      <point x="499" y="640"/>
      <point x="499" y="577" type="qcurve"/>
      <point x="499" y="506"/>
      <point x="374" y="416"/>
      <point x="288" y="416" type="qcurve"/>
      <point x="302" y="426" type="line"/>
      <point x="467" y="375"/>
      <point x="562" y="266"/>
      <point x="562" y="190" type="qcurve"/>
      <point x="562.0" y="93.0"/>
      <point x="464" y="-10.0"/>
      <point x="365" y="-10" type="qcurve"/>
      <point x="303" y="-9"/>
      <point x="219.21262371037355" y="37.635502210788204"/>
      <point x="191" y="86" type="qcurve"/>
      <point x="213" y="100" type="line"/>
      <point x="238" y="52"/>
      <point x="314" y="12"/>
      <point x="367" y="12" type="qcurve" smooth="yes"/>
      <point x="437" y="12.0"/>
      <point x="539.0" y="90.0"/>
      <point x="539" y="192" type="qcurve"/>
      <point x="539.0" y="280"/>
      <point x="404" y="375"/>
      <point x="280" y="412" type="qcurve"/>
      <point x="280" y="434" type="line"/>
      <point x="369" y="438"/>
      <point x="476" y="517"/>
      <point x="476" y="577" type="qcurve"/>
      <point x="476" y="631"/>
      <point x="392" y="706"/>
      <point x="321" y="706" type="qcurve"/>
      <point x="235" y="706.0"/>
      <point x="138.0" y="601.0"/>
      <point x="138" y="493" type="qcurve"/>
    </contour>
  </outline>
</glyph>
<glyph name="eth" format="2">
  <advance width="574"/>
  <unicode hex="00F0"/>
  <note>
eth
</note>
  <outline>
    <contour>
      <point x="535.4999695877943" y="258.50045618308445" type="qcurve"/>
      <point x="535.4999695877943" y="142.5002128854394"/>
      <point x="396.4999695877944" y="-11.499908763383115"/>
      <point x="288.4999695877944" y="-11.499908763383115" type="qcurve"/>
      <point x="178.00012164882253" y="-11.499908763383115"/>
      <point x="40.0" y="141.50015206102813"/>
      <point x="40.0" y="263.4999695877944" type="qcurve"/>
      <point x="40.0" y="381.99975670235494"/>
      <point x="186.4999087633831" y="526.5000304122057"/>
      <point x="306.4993613436818" y="526.5000304122057" type="qcurve"/>
      <point x="379.9993917558874" y="526.5000304122057"/>
      <point x="495.49911804603676" y="438.49984793897187"/>
      <point x="520.498935572803" y="392.99908763383115" type="qcurve"/>
      <point x="512.4980840310454" y="381.99993917558874" type="line"/>
      <point x="503.49814485545664" y="475.5003953586732"/>
      <point x="322.534498750187" y="701.4874967062025"/>
      <point x="200.4993613436818" y="718.9988443361862" type="qcurve"/>
      <point x="211.0" y="738.5000304122057" type="line"/>
      <point x="360.4999695877944" y="702.5000304122057"/>
      <point x="535.4999695877943" y="455.0001824732338"/>
    </contour>
    <contour>
      <point x="71.00133813704767" y="263.4999695877944" type="qcurve" smooth="yes"/>
      <point x="71.00133813704767" y="154.50069948072945"/>
      <point x="192.5006386563182" y="15.501490198075814"/>
      <point x="288.4999695877944" y="15.501490198075814" type="qcurve"/>
      <point x="382.99933093147615" y="15.501490198075814"/>
      <point x="504.4986314507467" y="154.50069948072945"/>
      <point x="504.4986314507467" y="263.4999695877944" type="qcurve" smooth="yes"/>
      <point x="504.4986314507467" y="370.4992396948593"/>
      <point x="382.99933093147615" y="505.4985098019242"/>
      <point x="288.4999695877944" y="505.4985098019242" type="qcurve"/>
      <point x="192.5006386563182" y="505.4985098019242"/>
      <point x="71.00133813704767" y="369.9992701070649"/>
    </contour>
    <contour>
      <point x="399.4990572216255" y="623.4989963972142" type="line"/>
      <point x="161.99987835117747" y="562.4993005192705" type="line"/>
      <point x="156.49972629014934" y="591.5000304122057" type="line"/>
      <point x="371.9982969164848" y="647.9996350535324" type="line"/>
      <point x="389.4990572216255" y="650.0" type="line"/>
      <point x="483.0001216488225" y="677.0001216488225" type="line"/>
      <point x="490.5003345342619" y="648.4993613436818" type="line"/>
      <point x="414.9995742291212" y="625.4993005192705" type="line"/>
    </contour>
  </outline>
</glyph>
<glyph name="divide" format="2">
  <advance width="588"/>
  <unicode hex="00F7"/>
  <note>
divide
</note>
  <outline>
    <contour>
      <point x="529.0003649464676" y="294.4983881531017" type="line"/>
      <point x="55.999878351177486" y="294.4983881531017" type="line"/>
      <point x="55.999878351177486" y="321.4996654657381" type="line"/>
      <point x="529.0003649464676" y="321.4996654657381" type="line"/>
    </contour>
    <contour>
      <point x="332.50051700749566" y="148.9986010385411" type="qcurve" smooth="yes"/>
      <point x="332.50051700749566" y="132.49838815310167"/>
      <point x="315.50009123661687" y="113.9979927944285"/>
      <point x="295.99993917558874" y="113.9979927944285" type="qcurve" smooth="yes"/>
      <point x="276.4997871145606" y="113.9979927944285"/>
      <point x="259.99933093147615" y="130.9984185653073"/>
      <point x="259.99933093147615" y="148.9986010385411" type="qcurve" smooth="yes"/>
      <point x="259.99933093147615" y="165.4988139239805"/>
      <point x="276.4997871145606" y="183.99920928265365"/>
      <point x="295.99993917558874" y="183.99920928265365" type="qcurve" smooth="yes"/>
      <point x="315.50009123661687" y="183.99920928265365"/>
      <point x="332.50051700749566" y="166.99878351177486"/>
    </contour>
    <contour>
      <point x="334.00048659529006" y="447.99975670235494" type="qcurve" smooth="yes"/>
      <point x="334.00048659529006" y="430.9995742291212"/>
      <point x="317.5000304122056" y="412.499178870448"/>
      <point x="297.49990876338313" y="412.499178870448" type="qcurve" smooth="yes"/>
      <point x="277.99975670235494" y="412.499178870448"/>
      <point x="261.49930051927055" y="429.4996046413268"/>
      <point x="261.49930051927055" y="447.99975670235494" type="qcurve" smooth="yes"/>
      <point x="261.49930051927055" y="464.4999695877944"/>
      <point x="277.99975670235494" y="482.5003953586732"/>
      <point x="297.49990876338313" y="482.5003953586732" type="qcurve" smooth="yes"/>
      <point x="317.00006082441126" y="482.5003953586732"/>
      <point x="334.00048659529006" y="465.99993917558874"/>
    </contour>
  </outline>
</glyph>
<glyph name="Aogonek" format="2">
  <advance width="657"/>
  <unicode hex="0104"/>
  <anchor x="305.0007298929351" y="0" name="bottom"/>
  <anchor x="305.0007298929351" y="700.0" name="top"/>
  <outline>
    <contour>
      <point x="584.5003345342619" y="-2.9995134047099405" type="line" smooth="yes"/>
      <point x="567.9998175267663" y="7.499847938971857" type="line"/>
      <point x="378.50051700749566" y="505.9982969164848" type="line" smooth="yes"/>
      <point x="359.0007907173464" y="557.9975670235497"/>
      <point x="337.5009427783745" y="618.4971716648765"/>
      <point x="325.00091236616885" y="651.9973845503159" type="qcurve" smooth="yes"/>
      <point x="322.0007298929351" y="657.4980232066341"/>
      <point x="308.5007603051407" y="697.4979623822229"/>
      <point x="297.50088195396324" y="727.4976582601666" type="qcurve"/>
      <point x="320.00066906852385" y="728.4976582601666" type="line"/>
      <point x="311.0007298929351" y="699.4979015578116"/>
      <point x="299.00066906852385" y="660.4978407334004"/>
      <point x="296.50045618308445" y="657.9970196038483" type="qcurve" smooth="yes"/>
      <point x="285.5003953586732" y="622.4969283672315"/>
      <point x="261.5006386563182" y="558.9974453747272"/>
      <point x="242.00091236616885" y="507.9981752676623" type="qcurve" smooth="yes"/>
      <point x="48.50173349572084" y="0.0" type="line"/>
      <point x="25.0" y="0.0" type="line"/>
      <point x="291.4999695877944" y="700.0" type="line"/>
      <point x="333.5015510224871" y="700.0" type="line"/>
      <point x="601.0012164882252" y="-11.49911804603677" type="line"/>
      <point x="598.0011556638138" y="0.0" type="line"/>
      <point x="553.000729892935" y="-21.500091236616885"/>
      <point x="473.5009427783745" y="-87.4997871145606"/>
      <point x="473.5009427783745" y="-128.49942216809305" type="qcurve"/>
      <point x="473.5009427783745" y="-156.99920928265365"/>
      <point x="520.0005474197013" y="-194.99896598500862"/>
      <point x="553.5002737098506" y="-194.99896598500862" type="qcurve"/>
      <point x="579.5000304122057" y="-194.99896598500862"/>
      <point x="615.0" y="-174.99908763383115"/>
      <point x="624.5001520610282" y="-159.9991484582424" type="qcurve"/>
      <point x="654.5003345342619" y="-166.5002128854394" type="line"/>
      <point x="642.4999087633831" y="-193.00012164882253"/>
      <point x="596.4996046413269" y="-221.0"/>
      <point x="560.4997262901494" y="-221.0" type="qcurve"/>
      <point x="514.4996046413269" y="-221.0"/>
      <point x="447.9995742291212" y="-163.99993917558874"/>
      <point x="447.9995742291212" y="-124.4997871145606" type="qcurve"/>
      <point x="447.9995742291212" y="-69.49990876338312"/>
      <point x="520.5002737098506" y="-9.49911804603677"/>
      <point x="582.5003953586731" y="19.000669068523834" type="qcurve"/>
    </contour>
    <contour>
      <point x="304.0010340149914" y="229.49887474839173" type="line"/>
      <point x="114.00121648822514" y="229.49887474839173" type="line"/>
      <point x="121.00194638116024" y="252.5005170074957" type="line"/>
      <point x="304.0010340149914" y="252.5005170074957" type="line"/>
    </contour>
    <contour>
      <point x="513.0001216488225" y="229.49887474839173" type="line"/>
      <point x="304.0010340149914" y="229.49887474839173" type="line"/>
      <point x="304.0010340149914" y="252.5005170074957" type="line"/>
      <point x="493.0001824732338" y="252.5005170074957" type="line"/>
    </contour>
  </outline>
</glyph>
<glyph name="eogonek" format="2">
  <advance width="526"/>
  <unicode hex="0119"/>
  <note>
eogonek
</note>
  <outline>
    <contour>
      <point x="348.002128854394" y="4.001338137047668" type="qcurve"/>
      <point x="307.0037711134979" y="-53.49698919164277" type="line"/>
      <point x="256.00444018202177" y="-43.497840733400366"/>
      <point x="282.5014901980758" y="-10.0"/>
      <point x="285.5006386563182" y="-10.0" type="qcurve"/>
      <point x="177.00036494646756" y="-10.0"/>
      <point x="37.00006082441126" y="140.0"/>
      <point x="37.00006082441126" y="262.9998783511775" type="qcurve"/>
      <point x="37.00006082441126" y="376.50009123661687"/>
      <point x="171.5003953586732" y="528.5001520610282"/>
      <point x="279.5005778319069" y="528.0001824732337" type="qcurve"/>
      <point x="392.0003649464675" y="528.5001520610282"/>
      <point x="504.0008515417576" y="392.0"/>
      <point x="504.0008515417576" y="282.0" type="qcurve"/>
      <point x="503.0008515417576" y="263.49948299250434" type="line"/>
      <point x="48.501368549253286" y="263.49948299250434" type="line"/>
      <point x="60.000669068523834" y="291.5005778319069" type="line"/>
      <point x="518.9987226873636" y="291.5005778319069" type="line"/>
      <point x="481.499178870448" y="255.0009731905801" type="line"/>
      <point x="481.499178870448" y="297.0006082441126" type="line"/>
      <point x="485.4989963972142" y="362.50027370985066"/>
      <point x="390.4993613436818" y="500.4988139239805"/>
      <point x="278.0006082441126" y="500.4988139239805" type="qcurve"/>
      <point x="203.00048659529006" y="500.4988139239805"/>
      <point x="73.00139896145892" y="395.99908763383115"/>
      <point x="65.50155102248706" y="259.50009123661687" type="qcurve"/>
      <point x="70.00145978587018" y="149.00066906852385"/>
      <point x="184.00121648822514" y="18.001338137047668"/>
      <point x="294.00066906852385" y="18.001338137047668" type="qcurve"/>
      <point x="330.0007298929351" y="18.001338137047668"/>
      <point x="413.5003953586732" y="41.00139896145892"/>
      <point x="467.50009123661687" y="84.00121648822514" type="qcurve"/>
      <point x="481.0008515417576" y="66.00006082441126" type="line"/>
      <point x="465.0009731905801" y="52.00018247323377"/>
      <point x="447.5000304122056" y="40.49948299250431"/>
      <point x="376.0011556638139" y="2.0" type="qcurve" smooth="yes"/>
      <point x="307.0019463811602" y="-32.99981752676623"/>
      <point x="253.00249380086154" y="-102.99927010706492"/>
      <point x="253.00249380086154" y="-134.99908763383115" type="qcurve"/>
      <point x="253.00249380086154" y="-161.49899639721426"/>
      <point x="284.0024329764503" y="-194.99896598500862"/>
      <point x="317.0021896788053" y="-194.99896598500862" type="qcurve"/>
      <point x="341.5541942654007" y="-194.99896598500862"/>
      <point x="375.0019463811602" y="-177.9990268094199"/>
      <point x="395.00188555674896" y="-152.49930051927055" type="qcurve"/>
      <point x="408.5024025642447" y="-169.50015206102813" type="line"/>
      <point x="397.67839749023693" y="-193.4135452316689"/>
      <point x="353.40786374766117" y="-221.0"/>
      <point x="322.00164225910396" y="-221.0" type="qcurve"/>
      <point x="285.40511527858104" y="-221.0"/>
      <point x="230.501064427197" y="-172.99975670235497"/>
      <point x="230.501064427197" y="-136.49942216809305" type="qcurve"/>
      <point x="230.501064427197" y="-85.49966546573808"/>
      <point x="285.50130772484204" y="-12.499604641326826"/>
    </contour>
  </outline>
</glyph>
<glyph name="idotless" format="2">
  <advance width="179"/>
  <unicode hex="0131"/>
  <note>
dotlessi
</note>
  <anchor x="88.00072989293508" y="0" name="bottom"/>
  <anchor x="46.00328451820789" y="10.0" name="ogonek"/>
  <anchor x="88.00072989293508" y="517.5001520610282" name="top"/>
  <outline>
    <contour>
      <point x="100.00152061028143" y="517.5001520610282" type="line"/>
      <point x="100.00152061028143" y="0.0" type="line"/>
      <point x="76.49990876338312" y="0.0" type="line"/>
      <point x="76.49990876338312" y="517.5001520610282" type="line"/>
    </contour>
  </outline>
</glyph>
<glyph name="kgreenlandic" format="2">
  <advance width="556"/>
  <unicode hex="0138"/>
  <anchor x="247.0009731905801" y="0" name="bottom"/>
  <anchor x="235.00121648822514" y="524.9996958779437" name="top"/>
  <outline>
    <contour>
      <point x="102.00139896145892" y="0.0" type="line"/>
      <point x="75.49996958779437" y="0.0" type="line"/>
      <point x="75.49996958779437" y="517.5001520610282" type="line"/>
      <point x="102.00139896145892" y="517.5001520610282" type="line"/>
    </contour>
    <contour>
      <point x="396.00024329764506" y="517.5001520610282" type="line"/>
      <point x="434.5019159689546" y="517.5001520610282" type="line"/>
      <point x="187.5017943201321" y="283.99969587794374" type="line"/>
      <point x="79.50167267130958" y="180.99945258029868" type="line"/>
      <point x="82.00152061028143" y="224.5006386563182" type="line"/>
    </contour>
    <contour>
      <point x="474.00121648822517" y="0.4999695877943713" type="line"/>
      <point x="436.49948299250434" y="0.0" type="line"/>
      <point x="173.00091236616885" y="280.9998175267662" type="line"/>
      <point x="189.50197679336588" y="313.0001216488225" type="line"/>
    </contour>
  </outline>
</glyph>
<glyph name="Lslash" format="2">
  <advance width="485"/>
  <unicode hex="0141"/>
  <outline>
    <contour>
      <point x="89.50258503747844" y="23.001642259103946" type="line"/>
      <point x="465.0021896788053" y="23.001642259103946" type="line"/>
      <point x="465.0021896788053" y="0.0" type="line"/>
      <point x="93.50088195396323" y="0.0" type="line"/>
      <point x="93.50088195396323" y="700.0" type="line"/>
      <point x="114.5026458618897" y="700.0" type="line"/>
      <point x="114.5026458618897" y="3.001520610281432" type="line"/>
    </contour>
    <contour>
      <point x="1.5013685492532858" y="308.498935572803" type="line"/>
      <point x="-9.498996397214249" y="333.9998783511775" type="line"/>
      <point x="256.00152061028143" y="454.50009123661687" type="line"/>
      <point x="265.5019767933659" y="429.9990268094199" type="line"/>
    </contour>
  </outline>
</glyph>
<glyph name="Eng" format="2">
  <advance width="730"/>
  <unicode hex="014A"/>
  <note>
Eng
</note>
  <outline>
    <contour>
      <point x="598" y="241" type="qcurve"/>
      <point x="598" y="700" type="line"/>
      <point x="620" y="700" type="line"/>
      <point x="620" y="0" type="line"/>
      <point x="600" y="0" type="line"/>
      <point x="115" y="686" type="line"/>
      <point x="130" y="686" type="line"/>
      <point x="131" y="661"/>
      <point x="133" y="525"/>
      <point x="132" y="470" type="qcurve" smooth="yes"/>
      <point x="132" y="0" type="line"/>
      <point x="110" y="0" type="line"/>
      <point x="110" y="700" type="line"/>
      <point x="132" y="700" type="line"/>
      <point x="605" y="31" type="line"/>
      <point x="601" y="31" type="line"/>
      <point x="601" y="75"/>
      <point x="599" y="177"/>
    </contour>
    <contour>
      <point x="620" y="19" type="line"/>
      <point x="620" y="-60" type="line" smooth="yes"/>
      <point x="620" y="-125"/>
      <point x="554" y="-194"/>
      <point x="494" y="-194" type="qcurve"/>
      <point x="486" y="-173" type="line"/>
      <point x="548" y="-173"/>
      <point x="598" y="-108"/>
      <point x="598" y="-56" type="qcurve"/>
      <point x="598" y="19" type="line"/>
    </contour>
  </outline>
</glyph>
<glyph name="florin" format="2">
  <advance width="519"/>
  <unicode hex="0192"/>
  <note>
florin
</note>
  <outline>
    <contour>
      <point x="96.0" y="-31.0" type="qcurve" smooth="yes"/>
      <point x="70.0" y="-31.0"/>
      <point x="20.0" y="-13.0"/>
      <point x="4.0" y="1.0" type="qcurve"/>
      <point x="18.50027370985066" y="34.50069948072946" type="line"/>
      <point x="44.62749063013463" y="10.721827748006547"/>
      <point x="77.08741712673965" y="-4.498813923980478"/>
      <point x="100.4997871145606" y="-4.498813923980478" type="qcurve"/>
      <point x="150.96223382094655" y="-4.498813923980478"/>
      <point x="189.32254370224837" y="61.65037794732114"/>
      <point x="195.49917887044802" y="99.00060824411257" type="qcurve" smooth="yes"/>
      <point x="271.99908763383115" y="538.0" type="line" smooth="yes"/>
      <point x="284.49911804603676" y="614.5000304122057"/>
      <point x="348.99951340470994" y="692.0"/>
      <point x="406.9998175267662" y="692.0" type="qcurve"/>
      <point x="437.9998783511775" y="692.0"/>
      <point x="491.4999695877944" y="673.5000304122057"/>
      <point x="516.0" y="657.0" type="qcurve"/>
      <point x="497.99975670235494" y="622.9993917558875" type="line"/>
      <point x="466.99993917558874" y="642.9991484582424"/>
      <point x="422.0001824732338" y="661.9989051605974"/>
      <point x="402.00030412205626" y="661.9989051605974" type="qcurve" smooth="yes"/>
      <point x="356.0004257708788" y="661.9989051605974"/>
      <point x="311.0004257708788" y="596.9993917558875"/>
      <point x="297.0005474197013" y="527.4999087633831" type="qcurve"/>
      <point x="223.00060824411258" y="119.0" type="line" smooth="yes"/>
      <point x="209.00060824411258" y="43.0"/>
      <point x="148.77575805321322" y="-31.0"/>
    </contour>
    <contour>
      <point x="448.9998175267662" y="422.4987530995692" type="line"/>
      <point x="79.99981752676622" y="421.99878351177483" type="line"/>
      <point x="79.99981752676622" y="449.49990876338313" type="line"/>
      <point x="448.9998175267662" y="449.9998783511775" type="line"/>
    </contour>
  </outline>
</glyph>
<glyph name="jdotless" format="2">
  <advance width="226"/>
  <unicode hex="0237"/>
  <note>
dotlessj
</note>
  <anchor x="151.0" y="0" name="bottom"/>
  <anchor x="138.0" y="516.0003041220563" name="top"/>
  <outline>
    <contour>
      <point x="150.50076030514072" y="517.5001520610282" type="line"/>
      <point x="150.50076030514072" y="-59.99927010706491" type="line" smooth="yes"/>
      <point x="150.50076030514072" y="-120.49960464132683"/>
      <point x="82.00012164882251" y="-194.00006082441126"/>
      <point x="24.499665465738083" y="-194.00006082441126" type="qcurve"/>
      <point x="12.49911804603677" y="-168.99896598500862" type="line"/>
      <point x="79.49893557280299" y="-168.99896598500862"/>
      <point x="126.99914845824239" y="-105.99902680941989"/>
      <point x="126.99914845824239" y="-42.49911804603677" type="qcurve"/>
      <point x="126.99914845824239" y="517.5001520610282" type="line"/>
    </contour>
  </outline>
</glyph>
<glyph name="ringhalfright" format="2">
  <advance width="212"/>
  <unicode hex="02BE"/>
  <outline>
    <contour>
      <point x="52" y="543" type="qcurve"/>
      <point x="52" y="565" type="line"/>
      <point x="85.0" y="565.0"/>
      <point x="133.0" y="610"/>
      <point x="133" y="641" type="qcurve"/>
      <point x="133.0" y="676"/>
      <point x="85.0" y="719.0"/>
      <point x="52" y="719" type="qcurve"/>
      <point x="52" y="740" type="line"/>
      <point x="93" y="740.0"/>
      <point x="155.0" y="681.0"/>
      <point x="155" y="641" type="qcurve"/>
      <point x="155" y="602"/>
      <point x="93" y="543"/>
    </contour>
  </outline>
</glyph>
<glyph name="ringhalfleft" format="2">
  <advance width="254"/>
  <unicode hex="02BF"/>
  <outline>
    <contour>
      <point x="170" y="543" type="line"/>
      <point x="129" y="543"/>
      <point x="67" y="602"/>
      <point x="67" y="641" type="qcurve"/>
      <point x="67.0" y="681.0"/>
      <point x="129.0" y="740.0"/>
      <point x="170" y="740" type="qcurve"/>
      <point x="170" y="719" type="line"/>
      <point x="137.0" y="719.0"/>
      <point x="89.0" y="676.0"/>
      <point x="89" y="641" type="qcurve"/>
      <point x="89.0" y="610.0"/>
      <point x="137.0" y="565.0"/>
      <point x="170" y="565" type="qcurve"/>
    </contour>
  </outline>
</glyph>
<glyph name="circumflex" format="2">
  <advance width="368"/>
  <unicode hex="02C6"/>
  <outline>
    <contour>
      <point x="289.00024329764506" y="630.4991180460368" type="line"/>
      <point x="166.0" y="739.4983881531017" type="line"/>
      <point x="196.0" y="739.4983881531017" type="line"/>
      <point x="72.99975670235497" y="630.4991180460368" type="line"/>
      <point x="49.99945258029868" y="651.4993613436818" type="line"/>
      <point x="155.99963505353244" y="746.4997262901494" type="line"/>
      <point x="206.00036494646756" y="746.4997262901494" type="line"/>
      <point x="312.0005474197013" y="651.4993613436818" type="line"/>
    </contour>
  </outline>
</glyph>
<glyph name="caron" format="2">
  <advance width="362"/>
  <unicode hex="02C7"/>
  <anchor x="180.0" y="522.4998479389718" name="_top"/>
  <outline>
    <contour>
      <point x="196.0" y="637.5004561830845" type="line"/>
      <point x="166.0" y="637.5004561830845" type="line"/>
      <point x="293.99993917558874" y="746.4997262901494" type="line"/>
      <point x="317.00024329764506" y="725.4994829925043" type="line"/>
      <point x="206.00036494646756" y="630.4991180460368" type="line"/>
      <point x="155.99963505353244" y="630.4991180460368" type="line"/>
      <point x="44.99975670235497" y="725.4994829925043" type="line"/>
      <point x="68.00006082441126" y="746.4997262901494" type="line"/>
    </contour>
  </outline>
</glyph>
<glyph name="verticallinemod" format="2">
  <advance width="231"/>
  <unicode hex="02C8"/>
  <outline>
    <contour>
      <point x="128.00072989293508" y="712.0" type="line"/>
      <point x="128.00072989293508" y="368.0" type="line"/>
      <point x="104.49923969485928" y="368.0" type="line"/>
      <point x="104.49923969485928" y="712.0" type="line"/>
    </contour>
  </outline>
</glyph>
<glyph name="ring" format="2">
  <advance width="264"/>
  <unicode hex="02DA"/>
  <outline>
    <contour>
      <point x="224" y="676" type="qcurve"/>
      <point x="224" y="641"/>
      <point x="169" y="588"/>
      <point x="132" y="588" type="qcurve"/>
      <point x="95" y="588"/>
      <point x="40" y="640"/>
      <point x="40" y="676" type="qcurve"/>
      <point x="40" y="713"/>
      <point x="94" y="766"/>
      <point x="132" y="766" type="qcurve"/>
      <point x="170" y="766"/>
      <point x="224" y="713"/>
    </contour>
    <contour>
      <point x="61" y="676" type="qcurve"/>
      <point x="61" y="649"/>
      <point x="103" y="608"/>
      <point x="132" y="608" type="qcurve"/>
      <point x="162" y="608"/>
      <point x="203" y="649"/>
      <point x="203" y="676" type="qcurve"/>
      <point x="203" y="708"/>
      <point x="162" y="746"/>
      <point x="132" y="746" type="qcurve"/>
      <point x="101" y="746"/>
      <point x="61" y="707"/>
    </contour>
  </outline>
</glyph>
<glyph name="tilde" format="2">
  <advance width="332"/>
  <unicode hex="02DC"/>
  <outline>
    <contour>
      <point x="61" y="647" type="qcurve"/>
      <point x="40" y="650" type="line"/>
      <point x="40.0" y="680.0"/>
      <point x="76.0" y="722.0"/>
      <point x="98" y="722" type="qcurve"/>
      <point x="121.0" y="722.0"/>
      <point x="160.14573306264907" y="698.8947483436424"/>
      <point x="178" y="686" type="qcurve" smooth="yes"/>
      <point x="185.08773066850517" y="680.937335236782"/>
      <point x="218.0" y="661.0"/>
      <point x="232" y="661" type="qcurve"/>
      <point x="247" y="661"/>
      <point x="270" y="686"/>
      <point x="271" y="716" type="qcurve"/>
      <point x="292" y="713" type="line"/>
      <point x="292.0" y="680.0"/>
      <point x="256.0" y="641.0"/>
      <point x="234" y="641" type="qcurve"/>
      <point x="211" y="641.0"/>
      <point x="172.14577440233728" y="664.8971004218796"/>
      <point x="155" y="677" type="qcurve" smooth="yes"/>
      <point x="147.10246773846038" y="681.9359576634623"/>
      <point x="115.71428571428571" y="702.0"/>
      <point x="100" y="702" type="qcurve"/>
      <point x="85" y="702"/>
      <point x="61" y="673"/>
    </contour>
  </outline>
</glyph>
<glyph name="dotaccentcomb" format="2">
  <advance width="232"/>
  <unicode hex="0307"/>
  <outline>
    <contour>
      <point x="144" y="644" type="qcurve" smooth="yes"/>
      <point x="144" y="631"/>
      <point x="130" y="615"/>
      <point x="116" y="615" type="qcurve" smooth="yes"/>
      <point x="102" y="615"/>
      <point x="88" y="631"/>
      <point x="88" y="644" type="qcurve" smooth="yes"/>
      <point x="88" y="656"/>
      <point x="102" y="673"/>
      <point x="116" y="673" type="qcurve" smooth="yes"/>
      <point x="129" y="673"/>
      <point x="144" y="657"/>
    </contour>
  </outline>
</glyph>
<glyph name="ringcomb" format="2">
  <advance width="478"/>
  <unicode hex="030A"/>
  <outline>
    <contour>
      <point x="261.50015206102813" y="676.4998479389718" type="qcurve"/>
      <point x="261.50015206102813" y="637.4997871145606"/>
      <point x="200.00006082441126" y="578.9996958779437"/>
      <point x="159.0" y="578.9996958779437" type="qcurve"/>
      <point x="118.99993917558874" y="578.9996958779437"/>
      <point x="57.499847938971854" y="637.4997871145606"/>
      <point x="57.499847938971854" y="676.4998479389718" type="qcurve"/>
      <point x="57.499847938971854" y="716.4999087633831"/>
      <point x="117.99993917558874" y="775.0"/>
      <point x="159.0" y="775.0" type="qcurve"/>
      <point x="200.00006082441126" y="775.0"/>
      <point x="261.50015206102813" y="716.4999087633831"/>
    </contour>
    <contour>
      <point x="87.50045618308442" y="676.4998479389718" type="qcurve"/>
      <point x="87.50045618308442" y="648.5000304122057"/>
      <point x="130.00018247323376" y="608.0003041220563"/>
      <point x="159.0" y="608.0003041220563" type="qcurve"/>
      <point x="188.99981752676624" y="608.0003041220563"/>
      <point x="231.49954381691558" y="648.5000304122057"/>
      <point x="231.49954381691558" y="676.4998479389718" type="qcurve"/>
      <point x="231.49954381691558" y="707.9996350535324"/>
      <point x="188.99981752676624" y="745.9993917558875"/>
      <point x="159.0" y="745.9993917558875" type="qcurve"/>
      <point x="127.5002128854394" y="745.9993917558875"/>
      <point x="87.50045618308442" y="706.9996350535324"/>
    </contour>
  </outline>
</glyph>
<glyph name="horncomb" format="2">
  <unicode hex="031B"/>
  <anchor x="0" y="524.9996958779437" name="_topright"/>
  <anchor x="0" y="524.9996958779437" name="topright"/>
  <outline>
    <contour>
      <point x="-37" y="505" type="qcurve"/>
      <point x="-37" y="525" type="line"/>
      <point x="12" y="525"/>
      <point x="59" y="574"/>
      <point x="59" y="624" type="qcurve"/>
      <point x="81" y="624" type="line"/>
      <point x="81.0" y="569"/>
      <point x="19.0" y="505.0"/>
    </contour>
  </outline>
</glyph>
<glyph name="dotbelowcomb" format="2">
  <unicode hex="0323"/>
  <anchor x="105.0" y="-3.0" name="_bottom"/>
  <anchor x="105.0" y="-223.0" name="bottom"/>
  <outline>
    <contour>
      <point x="141.50057783190695" y="-111.00060824411257" type="qcurve" smooth="yes"/>
      <point x="141.50057783190695" y="-126.50088195396323"/>
      <point x="124.00018247323378" y="-146.00121648822514"/>
      <point x="106.99987835117749" y="-146.00121648822514" type="qcurve" smooth="yes"/>
      <point x="90.49954381691558" y="-146.00121648822514"/>
      <point x="72.49917887044802" y="-127.00091236616886"/>
      <point x="72.49917887044802" y="-111.00060824411257" type="qcurve" smooth="yes"/>
      <point x="72.49917887044802" y="-95.50033453426192"/>
      <point x="89.9995742291212" y="-76.0"/>
      <point x="106.99987835117749" y="-76.0" type="qcurve" smooth="yes"/>
      <point x="123.5002128854394" y="-76.0"/>
      <point x="141.50057783190695" y="-95.00030412205629"/>
    </contour>
  </outline>
</glyph>
<glyph name="endash" format="2">
  <advance width="514"/>
  <unicode hex="2013"/>
  <note>
endash
</note>
  <outline>
    <contour>
      <point x="461.0" y="281.99908763383115" type="line"/>
      <point x="53.0" y="281.99908763383115" type="line"/>
      <point x="53.0" y="306.0006082441126" type="line"/>
      <point x="461.0" y="306.0006082441126" type="line"/>
    </contour>
  </outline>
</glyph>
<glyph name="emdash" format="2">
  <advance width="868"/>
  <unicode hex="2014"/>
  <note>
emdash
</note>
  <outline>
    <contour>
      <point x="815.0" y="281.99908763383115" type="line"/>
      <point x="53.0" y="281.99908763383115" type="line"/>
      <point x="53.0" y="307.0006082441126" type="line"/>
      <point x="815.0" y="307.0006082441126" type="line"/>
    </contour>
  </outline>
</glyph>
<glyph name="daggerdbl" format="2">
  <advance width="434"/>
  <unicode hex="2021"/>
  <note>
daggerdbl
</note>
  <outline>
    <contour>
      <point x="205.49899639721426" y="196.99993917558874" type="line"/>
      <point x="205.49899639721426" y="719.5000912366169" type="line"/>
      <point x="229.00048659529006" y="719.5000912366169" type="line"/>
      <point x="229.00048659529006" y="196.99993917558874" type="line"/>
    </contour>
    <contour>
      <point x="372.99969587794374" y="552.4991788704481" type="line"/>
      <point x="60.999695877943715" y="552.4991788704481" type="line"/>
      <point x="60.999695877943715" y="577.0003649464676" type="line"/>
      <point x="372.99969587794374" y="577.0003649464676" type="line"/>
    </contour>
    <contour>
      <point x="372.99969587794374" y="389.9995742291212" type="line"/>
      <point x="60.999695877943715" y="389.9995742291212" type="line"/>
      <point x="60.999695877943715" y="414.5007603051407" type="line"/>
      <point x="372.99969587794374" y="414.5007603051407" type="line"/>
    </contour>
  </outline>
</glyph>
<glyph name="guilsinglleft" format="2">
  <advance width="273"/>
  <unicode hex="2039"/>
  <note>
guilsinglleft
</note>
  <outline>
    <contour>
      <point x="89.00048659529006" y="250.5000912366169" type="line"/>
      <point x="88.50051700749569" y="268.99993917558874" type="line"/>
      <point x="240.49984793897187" y="69.50051700749569" type="line"/>
      <point x="213.49911804603676" y="52.99993917558874" type="line"/>
      <point x="54.99902680941988" y="257.50009123661687" type="line"/>
      <point x="54.99902680941988" y="264.4997871145606" type="line"/>
      <point x="213.99908763383115" y="466.50009123661687" type="line"/>
      <point x="242.4997871145606" y="451.49948299250434" type="line"/>
    </contour>
  </outline>
</glyph>
<glyph name="fraction" format="2">
  <advance width="606"/>
  <unicode hex="2044"/>
  <note>
fraction
</note>
  <outline>
    <contour>
      <point x="86.5006386563182" y="0.0" type="line"/>
      <point x="48.499422168093055" y="0.0" type="line"/>
      <point x="341.4979623822229" y="439.997871145606" type="line"/>
      <point x="515.9993309314762" y="700.0" type="line"/>
      <point x="551.5006994807295" y="700.0" type="line"/>
      <point x="346.99951340470994" y="392.4982665042792" type="line"/>
    </contour>
  </outline>
</glyph>
<glyph name="colonsign" format="2">
  <advance width="637"/>
  <unicode hex="20A1"/>
  <anchor x="377.0" y="0" name="bottom"/>
  <anchor x="372.0" y="700.0" name="top"/>
  <outline>
    <contour>
      <point x="238" y="-35" type="line"/>
      <point x="212" y="-35" type="line"/>
      <point x="606" y="760" type="line"/>
      <point x="632" y="760" type="line"/>
    </contour>
    <contour>
      <point x="103" y="-35" type="line"/>
      <point x="77" y="-35" type="line"/>
      <point x="471" y="760" type="line"/>
      <point x="497" y="760" type="line"/>
    </contour>
    <component base="C"/>
  </outline>
</glyph>
<glyph name="peseta" format="2">
  <advance width="791"/>
  <unicode hex="20A7"/>
  <anchor x="401.0" y="0" name="bottom"/>
  <anchor x="401.0" y="700.0" name="top"/>
  <outline>
    <contour>
      <point x="718.0000608244112" y="466.4993613436818" type="line"/>
      <point x="92.99993917558874" y="466.4993613436818" type="line"/>
      <point x="92.99993917558874" y="493.50069948072945" type="line"/>
      <point x="718.0000608244112" y="493.50069948072945" type="line"/>
    </contour>
    <contour>
      <point x="192.9996958779437" y="700.0" type="line"/>
      <point x="454.0001824732338" y="700.0" type="line" smooth="yes"/>
      <point x="531.5003345342619" y="700.0"/>
      <point x="627.0008515417576" y="591.4996654657381"/>
      <point x="627.0008515417576" y="504.4996046413268" type="qcurve" smooth="yes"/>
      <point x="627.0008515417576" y="408.49972629014934"/>
      <point x="531.5003345342619" y="290.49954381691555"/>
      <point x="454.0001824732338" y="290.49954381691555" type="qcurve"/>
      <point x="194.00170308351522" y="290.49954381691555" type="line"/>
      <point x="214.00145978587017" y="316.49930051927055" type="line"/>
      <point x="214.00145978587017" y="0.0" type="line"/>
      <point x="192.9996958779437" y="0.0" type="line"/>
    </contour>
    <contour>
      <point x="193.00170308351522" y="313.5011860760195" type="line"/>
      <point x="468.49984793897187" y="313.5011860760195" type="line" smooth="yes"/>
      <point x="527.9994525802987" y="313.5011860760195"/>
      <point x="602.4991180460368" y="421.0003649464675"/>
      <point x="602.4991180460368" y="507.49954381691555" type="qcurve" smooth="yes"/>
      <point x="602.4991180460368" y="581.9989659850087"/>
      <point x="527.9994525802987" y="676.998357740896"/>
      <point x="468.49984793897187" y="676.998357740896" type="qcurve"/>
      <point x="193.00170308351522" y="676.998357740896" type="line"/>
      <point x="214.00145978587017" y="700.9981752676623" type="line"/>
      <point x="214.00145978587017" y="302.50112525160824" type="line"/>
    </contour>
  </outline>
</glyph>
<glyph name="won" format="2">
  <advance width="951"/>
  <unicode hex="20A9"/>
  <anchor x="476.00048659529006" y="0" name="bottom"/>
  <anchor x="476.00048659529006" y="700.0" name="top"/>
  <outline>
    <contour>
      <point x="170" y="335" type="line"/>
      <point x="42" y="335" type="line"/>
      <point x="42" y="357" type="line"/>
      <point x="162" y="357" type="line"/>
      <point x="182" y="357" type="line"/>
      <point x="764" y="357" type="line"/>
      <point x="779" y="357" type="line"/>
      <point x="899" y="357" type="line"/>
      <point x="899" y="335" type="line"/>
      <point x="775" y="335" type="line"/>
      <point x="758" y="335" type="line"/>
      <point x="189" y="335" type="line"/>
    </contour>
    <component base="W" xOffset="46"/>
  </outline>
</glyph>
<glyph name="dong" format="2">
  <advance width="491"/>
  <unicode hex="20AB"/>
  <outline>
    <contour>
      <point x="211.9995742291212" y="146.0" type="qcurve"/>
      <point x="142.99975670235497" y="146.0"/>
      <point x="40.0" y="241.50015206102813"/>
      <point x="40.0" y="321.0" type="qcurve"/>
      <point x="40.0" y="395.0"/>
      <point x="144.20940959573753" y="497.0"/>
      <point x="217.49954381691558" y="497.0" type="qcurve"/>
      <point x="284.98221992414454" y="497.0"/>
      <point x="384.52366647682834" y="433.37220889437623"/>
      <point x="395.49857062633544" y="377.0" type="qcurve"/>
      <point x="366.99854021412983" y="404.0" type="line"/>
      <point x="366.99854021412983" y="700.0" type="line"/>
      <point x="392.0" y="700.0" type="line"/>
      <point x="392.0" y="156.0" type="line"/>
      <point x="366.99854021412983" y="156.0" type="line"/>
      <point x="366.99854021412983" y="266.0" type="line"/>
      <point x="386.99854021412983" y="262.0" type="line"/>
      <point x="386.99854021412983" y="223.0"/>
      <point x="282.49911804603676" y="146.0"/>
    </contour>
    <contour>
      <point x="65.00145978587018" y="321.0" type="qcurve"/>
      <point x="65.00145978587018" y="258.9564469377739"/>
      <point x="150.16341591604132" y="174.501064427197"/>
      <point x="217.49996958779437" y="174.501064427197" type="qcurve"/>
      <point x="280.1205033255392" y="174.501064427197"/>
      <point x="368.9986010385411" y="262.29569537477533"/>
      <point x="368.9986010385411" y="321.0" type="qcurve"/>
      <point x="368.9986010385411" y="380.4996046413268"/>
      <point x="283.7070494404534" y="464.9990268094199"/>
      <point x="218.99993917558874" y="464.9990268094199" type="qcurve"/>
      <point x="151.1777700064505" y="464.9990268094199"/>
      <point x="65.00145978587018" y="383.8091019005124"/>
    </contour>
    <contour>
      <point x="430.0" y="0.0" type="line"/>
      <point x="41.0" y="0.0" type="line"/>
      <point x="41.0" y="33.00091236616886" type="line"/>
      <point x="430.0" y="33.00091236616886" type="line"/>
    </contour>
    <contour>
      <point x="466.0" y="584.9989659850087" type="line"/>
      <point x="203.0" y="584.9989659850087" type="line"/>
      <point x="203.0" y="614.0" type="line"/>
      <point x="466.0" y="614.0" type="line"/>
    </contour>
  </outline>
</glyph>
<glyph name="euro" format="2">
  <advance width="646"/>
  <unicode hex="20AC"/>
  <note>
Euro
</note>
  <outline>
    <contour>
      <point x="417.0" y="255.49930051927055" type="line"/>
      <point x="15.0" y="254.99933093147615" type="line"/>
      <point x="15.0" y="280.0007298929351" type="line"/>
      <point x="417.0" y="281.00066906852385" type="line"/>
    </contour>
    <contour>
      <point x="417.0" y="399.99933093147615" type="line"/>
      <point x="15.0" y="399.4993613436818" type="line"/>
      <point x="15.0" y="425.0007298929351" type="line"/>
      <point x="417.0" y="425.50069948072945" type="line"/>
    </contour>
    <contour>
      <point x="420.0001824732338" y="-10.0" type="qcurve"/>
      <point x="276.27162949705826" y="-10.0"/>
      <point x="90.50003041220563" y="191.99993917558874"/>
      <point x="90.50003041220563" y="345.50009123661687" type="qcurve"/>
      <point x="90.50003041220563" y="503.0"/>
      <point x="279.77996894396045" y="704.5000304122057"/>
      <point x="429.0" y="704.5000304122057" type="qcurve"/>
      <point x="474.06726577804994" y="704.5000304122057"/>
      <point x="553.8192700851625" y="682.7759082297503"/>
      <point x="590.0" y="659.0" type="qcurve"/>
      <point x="575.4993005192705" y="634.4988139239805" type="line"/>
      <point x="543.2483103563878" y="652.2322242963593"/>
      <point x="470.57666808227583" y="677.4986314507468"/>
      <point x="429.0" y="677.4986314507468" type="qcurve"/>
      <point x="294.28508523490115" y="677.4986314507468"/>
      <point x="121.50136854925329" y="489.49948299250434"/>
      <point x="121.50136854925329" y="345.50009123661687" type="qcurve"/>
      <point x="121.50136854925329" y="204.5005170074957"/>
      <point x="294.44193805597104" y="17.001398961458918"/>
      <point x="427.5000304122056" y="17.001398961458918" type="qcurve"/>
      <point x="469.96646459445594" y="17.001398961458918"/>
      <point x="550.4993005192705" y="44.00121648822515"/>
      <point x="582.9991484582424" y="64.00115566381389" type="qcurve"/>
      <point x="595.4999087633831" y="42.999878351177486" type="line"/>
      <point x="557.545178571297" y="14.795316962877466"/>
      <point x="467.4880027385131" y="-10.0"/>
    </contour>
  </outline>
</glyph>
<glyph name="peso" format="2">
  <advance width="775"/>
  <unicode hex="20B1"/>
  <anchor x="401.0" y="0" name="bottom"/>
  <anchor x="401.0" y="700.0" name="top"/>
  <outline>
    <contour>
      <point x="203.0" y="413.9995742291212" type="line"/>
      <point x="90.0" y="413.9995742291212" type="line"/>
      <point x="90.0" y="449.0003649464675" type="line"/>
      <point x="206.0" y="449.0003649464675" type="line"/>
      <point x="229.0" y="454.00006082441126" type="line"/>
      <point x="612.9987835117748" y="454.00006082441126" type="line"/>
      <point x="647.9987835117748" y="449.0003649464675" type="line"/>
      <point x="705.0" y="449.0003649464675" type="line"/>
      <point x="705.0" y="413.9995742291212" type="line"/>
      <point x="627.9990876338311" y="413.9995742291212" type="line"/>
      <point x="595.9990876338311" y="407.0" type="line"/>
      <point x="227.0" y="407.0" type="line"/>
    </contour>
    <contour>
      <point x="204.0" y="537.9993917558875" type="line"/>
      <point x="90.0" y="537.9993917558875" type="line"/>
      <point x="90.0" y="574.0001216488225" type="line"/>
      <point x="209.0" y="574.0001216488225" type="line"/>
      <point x="231.0" y="580.9996958779437" type="line"/>
      <point x="606.9987835117748" y="580.9996958779437" type="line"/>
      <point x="643.9987835117748" y="574.0001216488225" type="line"/>
      <point x="705.0" y="574.0001216488225" type="line"/>
      <point x="705.0" y="537.9993917558875" type="line"/>
      <point x="648.9987835117748" y="537.9993917558875" type="line"/>
      <point x="612.9987835117748" y="533.9996350535324" type="line"/>
      <point x="230.0" y="533.9996350535324" type="line"/>
    </contour>
    <contour>
      <point x="192.9996958779437" y="700.0" type="line"/>
      <point x="454.0001824732338" y="700.0" type="line" smooth="yes"/>
      <point x="531.5003345342619" y="700.0"/>
      <point x="627.0008515417576" y="591.4996654657381"/>
      <point x="627.0008515417576" y="504.4996046413268" type="qcurve" smooth="yes"/>
      <point x="627.0008515417576" y="408.49972629014934"/>
      <point x="531.5003345342619" y="290.49954381691555"/>
      <point x="454.0001824732338" y="290.49954381691555" type="qcurve"/>
      <point x="194.00170308351522" y="290.49954381691555" type="line"/>
      <point x="214.00145978587017" y="316.49930051927055" type="line"/>
      <point x="214.00145978587017" y="0.0" type="line"/>
      <point x="192.9996958779437" y="0.0" type="line"/>
    </contour>
    <contour>
      <point x="193.00170308351522" y="313.5011860760195" type="line"/>
      <point x="468.49984793897187" y="313.5011860760195" type="line" smooth="yes"/>
      <point x="527.9994525802987" y="313.5011860760195"/>
      <point x="602.4991180460368" y="421.0003649464675"/>
      <point x="602.4991180460368" y="507.49954381691555" type="qcurve" smooth="yes"/>
      <point x="602.4991180460368" y="581.9989659850087"/>
      <point x="527.9994525802987" y="676.998357740896"/>
      <point x="468.49984793897187" y="676.998357740896" type="qcurve"/>
      <point x="193.00170308351522" y="676.998357740896" type="line"/>
      <point x="214.00145978587017" y="700.9981752676623" type="line"/>
      <point x="214.00145978587017" y="302.50112525160824" type="line"/>
    </contour>
  </outline>
</glyph>
<glyph name="manat" format="2">
  <advance width="744"/>
  <unicode hex="20BC"/>
  <anchor x="387.49984793897187" y="694.0" name="bottom"/>
  <anchor x="104.49984793897185" y="684.0" name="ogonek"/>
  <anchor x="387.49984793897187" y="-6.0" name="top"/>
  <anchor x="245.49984793897187" y="-14.0" name="topright"/>
  <outline>
    <contour>
      <point x="379" y="801" type="line"/>
      <point x="379" y="254" type="line"/>
      <point x="357" y="254" type="line"/>
      <point x="357" y="801" type="line"/>
    </contour>
    <contour>
      <point x="612" y="0" type="line"/>
      <point x="612" y="422" type="line"/>
      <point x="612" y="537"/>
      <point x="476" y="684"/>
      <point x="368" y="684" type="qcurve"/>
      <point x="263" y="684"/>
      <point x="132" y="537"/>
      <point x="132" y="422" type="qcurve"/>
      <point x="132" y="0" type="line"/>
      <point x="110" y="0" type="line"/>
      <point x="110" y="431" type="line"/>
      <point x="111" y="551"/>
      <point x="255" y="706"/>
      <point x="368" y="706" type="qcurve"/>
      <point x="484" y="706"/>
      <point x="634" y="551"/>
      <point x="634" y="431" type="qcurve"/>
      <point x="634" y="0" type="line"/>
    </contour>
  </outline>
</glyph>
<glyph name="numero" format="2">
  <advance width="1177"/>
  <unicode hex="2116"/>
  <anchor x="393.0" y="0" name="bottom"/>
  <anchor x="393.0" y="700.0" name="top"/>
  <outline>
    <contour>
      <point x="1142.0" y="222.99939175588742" type="line"/>
      <point x="796.0" y="222.99939175588742" type="line"/>
      <point x="796.0" y="247.50069948072945" type="line"/>
      <point x="1142.0" y="247.50069948072945" type="line"/>
    </contour>
    <contour>
      <point x="959.0" y="708.0" type="qcurve"/>
      <point x="1033.0" y="708.0"/>
      <point x="1133.0" y="606.0"/>
      <point x="1133.0" y="531.0" type="qcurve"/>
      <point x="1133.0" y="457.0"/>
      <point x="1034.0" y="358.0"/>
      <point x="959.0" y="358.0" type="qcurve"/>
      <point x="885.0" y="358.0"/>
      <point x="788.0" y="456.0"/>
      <point x="788.0" y="531.0" type="qcurve"/>
      <point x="788.0" y="607.0"/>
      <point x="886.0" y="708.0"/>
    </contour>
    <contour>
      <point x="959.0" y="381.00121648822517" type="qcurve"/>
      <point x="1022.9994525802987" y="381.00121648822517"/>
      <point x="1101.998783511775" y="464.0005474197013"/>
      <point x="1101.998783511775" y="531.0" type="qcurve"/>
      <point x="1101.998783511775" y="599.9994525802987"/>
      <point x="1022.9994525802987" y="684.9987835117748"/>
      <point x="959.0" y="684.9987835117748" type="qcurve"/>
      <point x="896.0005474197013" y="684.9987835117748"/>
      <point x="818.0012164882252" y="599.9994525802987"/>
      <point x="818.0012164882252" y="531.0" type="qcurve"/>
      <point x="818.0012164882252" y="464.0005474197013"/>
      <point x="896.0005474197013" y="381.00121648822517"/>
    </contour>
    <contour>
      <point x="640.9989051605974" y="390.5016118468983" type="qcurve"/>
      <point x="640.9989051605974" y="700.0" type="line"/>
      <point x="667.9989051605974" y="700.0"/>
      <point x="635.0006690685238" y="700.0"/>
      <point x="662.0006690685238" y="700.0" type="qcurve"/>
      <point x="662.0006690685238" y="0.0" type="line"/>
      <point x="639.4991180460368" y="0.0" type="line"/>
      <point x="116.50118607601952" y="685.4972933136991" type="line"/>
      <point x="132.00109483940264" y="720.4968675428203" type="line"/>
      <point x="132.00121648822514" y="678.9964113597358"/>
      <point x="134.00145978587017" y="379.49911804603676"/>
      <point x="134.00145978587017" y="370.4983881531017" type="qcurve" smooth="yes"/>
      <point x="134.00145978587017" y="0.0" type="line"/>
      <point x="112.99969587794371" y="0.0" type="line"/>
      <point x="112.99969587794371" y="700.0" type="line"/>
      <point x="133.50124690043077" y="700.0" type="line"/>
      <point x="648.4994829925043" y="31.001946381160238" type="line"/>
      <point x="638.4993613436818" y="-3.4975366113440742" type="line"/>
      <point x="637.4991788704481" y="28.503071632768496"/>
      <point x="642.4988747483917" y="271.5017943201321"/>
    </contour>
  </outline>
</glyph>
<glyph name="Ohm" format="2">
  <advance width="675"/>
  <unicode hex="2126"/>
  <note>
Ohm
</note>
  <outline>
    <contour>
      <point x="25.0" y="404.0" type="qcurve"/>
      <point x="25.0" y="533.0000608244112"/>
      <point x="204.0" y="702.5001520610282"/>
      <point x="338.0" y="702.5001520610282" type="qcurve"/>
      <point x="472.0" y="702.5001520610282"/>
      <point x="651.4999695877943" y="533.5000304122057"/>
      <point x="651.4999695877943" y="404.4999695877944" type="qcurve"/>
      <point x="651.4999695877943" y="293.50051700749566"/>
      <point x="522.0008515417576" y="93.50094277837448"/>
      <point x="419.00145978587017" y="-8.998479389718568" type="qcurve"/>
      <point x="403.0013989614589" y="23.501490198075814" type="line"/>
      <point x="637.4999695877943" y="23.501490198075814" type="line"/>
      <point x="637.4999695877943" y="0.0" type="line"/>
      <point x="427.9991484582424" y="0.0" type="line"/>
      <point x="427.9991484582424" y="56.0" type="line"/>
      <point x="405.97070478245917" y="32.18539968893178"/>
      <point x="530.8165082165192" y="166.79763957691168"/>
      <point x="557.498935572803" y="214.0" type="qcurve" smooth="yes"/>
      <point x="591.4987530995692" y="272.99969587794374"/>
      <point x="620.4986314507468" y="350.4999695877944"/>
      <point x="620.4986314507468" y="403.0" type="qcurve"/>
      <point x="620.4986314507468" y="521.499422168093"/>
      <point x="459.9993917558874" y="675.9987226873636"/>
      <point x="338.0" y="675.9987226873636" type="qcurve"/>
      <point x="216.50057783190695" y="675.9987226873636"/>
      <point x="55.501368549253286" y="520.9994525802987"/>
      <point x="55.501368549253286" y="403.0" type="qcurve"/>
      <point x="55.501368549253286" y="350.0"/>
      <point x="84.50124690043077" y="272.99969587794374"/>
      <point x="118.50106442719701" y="214.0" type="qcurve" smooth="yes"/>
      <point x="140.18379590553707" y="175.79709215721033"/>
      <point x="231.00091236616885" y="72.0"/>
      <point x="249.50076030514072" y="56.0" type="qcurve"/>
      <point x="249.50076030514072" y="0.0" type="line"/>
      <point x="39.0" y="0.0" type="line"/>
      <point x="39.0" y="23.501490198075814" type="line"/>
      <point x="269.99878351177483" y="23.501490198075814" type="line"/>
      <point x="256.99854021412983" y="-8.498509801924186" type="line"/>
      <point x="152.9991484582424" y="93.50094277837448"/>
      <point x="25.0" y="293.50051700749566"/>
    </contour>
  </outline>
</glyph>
<glyph name="estimated" format="2">
  <advance width="629"/>
  <unicode hex="212E"/>
  <note>
estimated
</note>
  <outline>
    <contour>
      <point x="550" y="117" type="qcurve" smooth="yes"/>
      <point x="502.4938668896541" y="48.26772230843574"/>
      <point x="397.0" y="-11.0"/>
      <point x="319" y="-11" type="qcurve" smooth="yes"/>
      <point x="199.21014492753622" y="-11.0"/>
      <point x="48.0" y="157.0"/>
      <point x="48" y="285" type="qcurve" smooth="yes"/>
      <point x="48.0" y="414.0"/>
      <point x="199.21014492753622" y="581.0"/>
      <point x="319" y="581" type="qcurve" smooth="yes"/>
      <point x="433.8804347826087" y="581.0"/>
      <point x="590.0" y="432.0"/>
      <point x="590" y="309" type="qcurve" smooth="yes"/>
      <point x="590.0" y="299.0"/>
      <point x="578" y="285"/>
      <point x="568" y="285" type="qcurve" smooth="yes"/>
      <point x="157" y="285" type="line"/>
      <point x="163" y="293" type="line"/>
      <point x="163" y="73" type="line" smooth="yes"/>
      <point x="163" y="72"/>
      <point x="164.0" y="69.0"/>
      <point x="165" y="67" type="qcurve" smooth="yes"/>
      <point x="194.0463363318254" y="37.95366366817461"/>
      <point x="274.44654088050316" y="11.0"/>
      <point x="319" y="11" type="qcurve" smooth="yes"/>
      <point x="390.66666666666663" y="11.0"/>
      <point x="494" y="71"/>
      <point x="534" y="133" type="qcurve" smooth="yes"/>
      <point x="536" y="137"/>
      <point x="542" y="141.0"/>
      <point x="546" y="141" type="qcurve" smooth="yes"/>
      <point x="550.0" y="141.0"/>
      <point x="556.0" y="136.0909090909091"/>
      <point x="556" y="132" type="qcurve" smooth="yes"/>
      <point x="556" y="129"/>
      <point x="553" y="121"/>
    </contour>
    <contour>
      <point x="157" y="307" type="line"/>
      <point x="484" y="307" type="line"/>
      <point x="477" y="300" type="line"/>
      <point x="477" y="502" type="line"/>
      <point x="477.0" y="504"/>
      <point x="477" y="509"/>
      <point x="475" y="511" type="qcurve" smooth="yes"/>
      <point x="449.43015392115336" y="534.6029348420122"/>
      <point x="364.405201863354" y="559.0"/>
      <point x="318" y="559" type="qcurve" smooth="yes"/>
      <point x="272.1898734177215" y="559.0"/>
      <point x="190.59428812908897" y="533.5792617634996"/>
      <point x="164" y="506" type="qcurve" smooth="yes"/>
      <point x="163" y="504"/>
      <point x="163.0" y="501.0"/>
      <point x="163" y="500" type="qcurve"/>
      <point x="163" y="300" type="line"/>
    </contour>
  </outline>
</glyph>
<glyph name="partialdiff" format="2">
  <advance width="590"/>
  <unicode hex="2202"/>
  <note>
partialdiff
</note>
  <outline>
    <contour>
      <point x="550.0" y="280.0" type="qcurve"/>
      <point x="550.0" y="160.0"/>
      <point x="407.0" y="-7.0"/>
      <point x="294.0" y="-7.0" type="qcurve"/>
      <point x="188.0" y="-7.0"/>
      <point x="40.0" y="151.0"/>
      <point x="40.0" y="265.0" type="qcurve"/>
      <point x="40.0" y="375.0"/>
      <point x="187.0" y="536.0"/>
      <point x="282.0" y="536.0" type="qcurve"/>
      <point x="360.99975670235494" y="536.0"/>
      <point x="485.4992396948593" y="459.99993917558874"/>
      <point x="533.9992092826536" y="362.0" type="qcurve"/>
      <point x="503.99908763383115" y="353.9998175267662" type="line"/>
      <point x="496.49911804603676" y="465.49954381691555"/>
      <point x="335.99933093147615" y="681.4987530995692"/>
      <point x="222.9995742291212" y="709.9989051605974" type="qcurve"/>
      <point x="233.0" y="735.0" type="line"/>
      <point x="295.0" y="722.0"/>
      <point x="415.0" y="629.0"/>
      <point x="462.0" y="558.0" type="qcurve" smooth="yes"/>
      <point x="504.0" y="494.0"/>
      <point x="550.0" y="349.0"/>
    </contour>
    <contour>
      <point x="71.50130772484204" y="265.0" type="qcurve"/>
      <point x="71.50130772484204" y="164.00048659529006"/>
      <point x="202.00054741970132" y="23.501186076019522"/>
      <point x="297.0" y="23.501186076019522" type="qcurve"/>
      <point x="390.49948299250434" y="23.501186076019522"/>
      <point x="518.9987835117748" y="164.00048659529006"/>
      <point x="518.9987835117748" y="265.0" type="qcurve"/>
      <point x="518.9987835117748" y="366.49948299250434"/>
      <point x="390.49948299250434" y="505.99878351177483"/>
      <point x="297.0" y="505.99878351177483" type="qcurve"/>
      <point x="202.00054741970132" y="505.99878351177483"/>
      <point x="71.50130772484204" y="367.49948299250434"/>
    </contour>
  </outline>
</glyph>
<glyph name="increment" format="2">
  <advance width="705"/>
  <unicode hex="2206"/>
  <note>
increment
</note>
  <outline>
    <contour>
      <point x="357.9996350535325" y="701.5009427783745" type="line"/>
      <point x="687.5006386563182" y="18.99884433618611" type="line"/>
      <point x="685.0007907173464" y="0.0" type="line"/>
      <point x="23.999148458242395" y="0.0" type="line"/>
      <point x="14.499726290149342" y="13.999148458242395" type="line"/>
      <point x="346.0003649464675" y="707.500577831907" type="line"/>
    </contour>
    <contour>
      <point x="364.4999695877944" y="664.9972629014934" type="line"/>
      <point x="50.50179432013209" y="8.501125251608265" type="line"/>
      <point x="42.50161184689833" y="33.50100360278575" type="line"/>
      <point x="653.4988747483917" y="33.50100360278575" type="line"/>
      <point x="653.998357740896" y="10.001034014991376" type="line"/>
      <point x="339.50015206102813" y="664.9972629014934" type="line"/>
    </contour>
  </outline>
</glyph>
<glyph name="product" format="2">
  <advance width="708"/>
  <unicode hex="220F"/>
  <note>
product
</note>
  <outline>
    <contour>
      <point x="149" y="-200.0" type="line"/>
      <point x="127.0" y="-200.0" type="line"/>
      <point x="127.0" y="693" type="line"/>
      <point x="149" y="693" type="line"/>
    </contour>
    <contour>
      <point x="680.0" y="678" type="line"/>
      <point x="28.0" y="678" type="line"/>
      <point x="28.0" y="700.0" type="line"/>
      <point x="680.0" y="700.0" type="line"/>
    </contour>
    <contour>
      <point x="581.0" y="-200.0" type="line"/>
      <point x="559" y="-200.0" type="line"/>
      <point x="559" y="693" type="line"/>
      <point x="581.0" y="693" type="line"/>
    </contour>
  </outline>
</glyph>
<glyph name="summation" format="2">
  <advance width="523"/>
  <unicode hex="2211"/>
  <note>
summation
</note>
  <outline>
    <contour>
      <point x="478.5000304122056" y="0.0" type="line"/>
      <point x="37.501368549253286" y="0.0" type="line"/>
      <point x="34.00054741970132" y="14.501733495720842" type="line"/>
      <point x="346.4988139239805" y="367.0" type="line"/>
      <point x="337.4990572216255" y="319.99975670235494" type="line"/>
      <point x="50.5002128854394" y="662.9982360920735" type="line"/>
      <point x="54.001034014991376" y="676.0" type="line"/>
      <point x="478.5000304122056" y="676.0" type="line"/>
      <point x="478.5000304122056" y="641.9990268094199" type="line"/>
      <point x="98.00079071734635" y="641.9990268094199" type="line"/>
      <point x="114.00066906852383" y="645.9992092826536" type="line"/>
      <point x="370.49984793897187" y="346.0" type="line"/>
      <point x="370.49984793897187" y="331.0" type="line"/>
      <point x="86.00121648822514" y="16.001094839402633" type="line"/>
      <point x="84.50118607601952" y="34.50094277837449" type="line"/>
      <point x="478.5000304122056" y="34.50094277837449" type="line"/>
    </contour>
  </outline>
</glyph>
<glyph name="minus" format="2">
  <advance width="596"/>
  <unicode hex="2212"/>
  <note>
minus
</note>
  <outline>
    <contour>
      <point x="538.9998175267663" y="269.49954381691555" type="line"/>
      <point x="57.499847938971854" y="269.49954381691555" type="line"/>
      <point x="57.499847938971854" y="297.0007907173464" type="line"/>
      <point x="538.9998175267663" y="297.0007907173464" type="line"/>
    </contour>
  </outline>
</glyph>
<glyph name="divisionslash" format="2">
  <advance width="551"/>
  <unicode hex="2215"/>
  <note>
divisionslash
</note>
  <outline>
    <contour>
      <point x="84.0004257708788" y="-107.0" type="line"/>
      <point x="40.99963505353246" y="-107.0" type="line"/>
      <point x="464.9996350535325" y="756.0" type="line"/>
      <point x="508.0004257708788" y="756.0" type="line"/>
    </contour>
  </outline>
</glyph>
<glyph name="greaterequal" format="2">
  <advance width="627"/>
  <unicode hex="2265"/>
  <note>
greaterequal
</note>
  <outline>
    <contour>
      <point x="550.5002128854394" y="0.0" type="line"/>
      <point x="122.49881392398048" y="0.0" type="line"/>
      <point x="122.49881392398048" y="19.00176390792646" type="line"/>
      <point x="550.5002128854394" y="19.00176390792646" type="line"/>
    </contour>
    <contour>
      <point x="130.4988139239805" y="454.4999695877944" type="line"/>
      <point x="141.9990268094199" y="482.5012469004308" type="line"/>
      <point x="567.9991484582424" y="341.00091236616885" type="line"/>
      <point x="567.9991484582424" y="299.00024329764506" type="line"/>
      <point x="141.9990268094199" y="156.99993917558874" type="line"/>
      <point x="133.9986010385411" y="188.50100360278574" type="line"/>
      <point x="565.9977494967835" y="327.50112525160824" type="line"/>
      <point x="563.4979015578116" y="318.9998175267662" type="line"/>
    </contour>
  </outline>
</glyph>
<glyph name="a.ss01" format="2">
  <advance width="537"/>
  <note>
a
</note>
  <guideline x="488" y="297" angle="0" identifier="uPQlZTwG9a"/>
  <guideline x="474" y="275" angle="0" identifier="EFH6zrbmCa"/>
  <anchor x="269.0" y="6" name="bottom"/>
  <anchor x="458.0" y="10.0" name="ogonek"/>
  <anchor x="271.0" y="515" name="top"/>
  <outline>
    <contour>
      <point x="272" y="530" type="qcurve"/>
      <point x="362" y="530"/>
      <point x="464" y="443"/>
      <point x="464" y="364" type="qcurve"/>
      <point x="464" y="0" type="line"/>
      <point x="442" y="0" type="line"/>
      <point x="442" y="367" type="line"/>
      <point x="442" y="431"/>
      <point x="353" y="508"/>
      <point x="271" y="508" type="qcurve"/>
      <point x="214" y="508"/>
      <point x="115" y="458"/>
      <point x="79" y="412" type="qcurve"/>
      <point x="63" y="428" type="line"/>
      <point x="104" y="478"/>
      <point x="209" y="530"/>
    </contour>
    <contour>
      <point x="246" y="287" type="qcurve"/>
      <point x="450" y="287" type="line"/>
      <point x="450" y="265" type="line"/>
      <point x="240" y="265" type="line"/>
      <point x="155" y="265"/>
      <point x="62" y="205"/>
      <point x="62" y="149" type="qcurve"/>
      <point x="62" y="88"/>
      <point x="155" y="12"/>
      <point x="219" y="12" type="qcurve"/>
      <point x="293" y="12"/>
      <point x="414" y="92"/>
      <point x="447" y="157" type="qcurve"/>
      <point x="460" y="146" type="line"/>
      <point x="424" y="77"/>
      <point x="298" y="-10"/>
      <point x="218" y="-10" type="qcurve"/>
      <point x="142" y="-10"/>
      <point x="40" y="77"/>
      <point x="40" y="149" type="qcurve"/>
      <point x="40" y="215"/>
      <point x="144" y="287"/>
    </contour>
  </outline>
</glyph>
<glyph name="acutecomb.case" format="2">
  <anchor x="153.49844897751294" y="522.4998479389718" name="_top"/>
  <anchor x="110.00030412205629" y="758.4988747483917" name="top"/>
  <outline>
    <contour>
      <point x="217.50015206102813" y="694.999270107065" type="line"/>
      <point x="64.49972629014934" y="602.4992396948593" type="line"/>
      <point x="49.999330931476166" y="623.4998479389718" type="line"/>
      <point x="192.99933093147615" y="727.5002737098506" type="line"/>
    </contour>
  </outline>
</glyph>
<glyph name="aogonek.ss01" format="2">
  <advance width="530"/>
  <note>
aogonek
</note>
  <outline>
    <contour>
      <point x="216.0" y="-10.0" type="qcurve"/>
      <point x="140.0" y="-10.0"/>
      <point x="38.0" y="77.0"/>
      <point x="38.0" y="149.0" type="qcurve"/>
      <point x="38.0" y="233.0"/>
      <point x="157.0" y="319.0"/>
      <point x="274.0" y="319.0" type="qcurve"/>
      <point x="448.4994221680931" y="319.0" type="line"/>
      <point x="439.4994221680931" y="286.4989963972142" type="line"/>
      <point x="261.0" y="286.4989963972142" type="line" smooth="yes"/>
      <point x="168.5006386563182" y="286.4989963972142"/>
      <point x="69.00133813704767" y="215.99951340470994"/>
      <point x="69.00133813704767" y="151.0" type="qcurve"/>
      <point x="69.00133813704767" y="92.50051700749569"/>
      <point x="154.50057783190695" y="21.00115566381389"/>
      <point x="220.0" y="21.00115566381389" type="qcurve"/>
      <point x="293.4996046413268" y="21.00115566381389"/>
      <point x="414.4989963972142" y="97.00072989293508"/>
      <point x="445.99878351177483" y="159.0003041220563" type="qcurve"/>
      <point x="465.49887474839176" y="141.49930051927055" type="line"/>
      <point x="427.4989963972142" y="72.99963505353246"/>
      <point x="290.4996654657381" y="-10.0"/>
    </contour>
    <contour>
      <point x="422.49869227515796" y="-221.0" type="qcurve" smooth="yes"/>
      <point x="381.99847938971857" y="-221.0"/>
      <point x="329.49814485545664" y="-171.49984793897187"/>
      <point x="329.49814485545664" y="-129.49984793897187" type="qcurve" smooth="yes"/>
      <point x="329.49814485545664" y="-81.49990876338312"/>
      <point x="384.9990268094199" y="-18.999452580298684"/>
      <point x="474.4987530995692" y="23.00018247323377" type="qcurve"/>
      <point x="454.9991484582424" y="0.0" type="line"/>
      <point x="437.49869227515796" y="0.0" type="line"/>
      <point x="437.49869227515796" y="374.99933093147615" type="line"/>
      <point x="437.49869227515796" y="430.99908763383115"/>
      <point x="362.498935572803" y="500.99878351177483"/>
      <point x="270.9998175267662" y="500.99878351177483" type="qcurve"/>
      <point x="212.00012164882253" y="500.99878351177483"/>
      <point x="120.00054741970132" y="452.9990268094199"/>
      <point x="79.00079071734635" y="408.499178870448" type="qcurve"/>
      <point x="58.499847938971854" y="427.50015206102813" type="line"/>
      <point x="105.49984793897185" y="478.50015206102813"/>
      <point x="208.49996958779437" y="528.5001520610282"/>
      <point x="270.0" y="528.5001520610282" type="qcurve"/>
      <point x="360.0" y="528.5001520610282"/>
      <point x="466.0" y="443.00006082441126"/>
      <point x="466.0" y="364.0" type="qcurve"/>
      <point x="466.0" y="0.0" type="line"/>
      <point x="400.0" y="-33.49990876338311"/>
      <point x="351.9995742291212" y="-94.99975670235497"/>
      <point x="351.9995742291212" y="-126.9995742291212" type="qcurve" smooth="yes"/>
      <point x="351.9995742291212" y="-156.49930051927055"/>
      <point x="384.9994525802987" y="-194.99896598500862"/>
      <point x="419.9991484582424" y="-194.99896598500862" type="qcurve" smooth="yes"/>
      <point x="439.9990268094199" y="-194.99896598500862"/>
      <point x="466.499178870448" y="-179.49899639721426"/>
      <point x="484.9991484582424" y="-155.49923969485928" type="qcurve"/>
      <point x="514.9993309314762" y="-162.0003041220563" type="line"/>
      <point x="502.99890516059736" y="-188.5002128854394"/>
      <point x="461.4985098019242" y="-221.0"/>
    </contour>
  </outline>
</glyph>
<glyph name="dieresiscomb.case" format="2">
  <anchor x="170.00060824411258" y="517.5001520610282" name="_top"/>
  <anchor x="166.50088195396324" y="768.9982360920735" name="top"/>
  <outline>
    <contour>
      <point x="99.00139896145892" y="691.498935572803" type="qcurve" smooth="yes"/>
      <point x="99.00139896145892" y="675.9986618629523"/>
      <point x="81.50100360278574" y="656.4983273286904"/>
      <point x="64.50069948072945" y="656.4983273286904" type="qcurve" smooth="yes"/>
      <point x="48.00036494646754" y="656.4983273286904"/>
      <point x="30.0" y="675.4986314507468"/>
      <point x="30.0" y="691.498935572803" type="qcurve" smooth="yes"/>
      <point x="30.0" y="706.9992092826536"/>
      <point x="47.500395358673174" y="726.4995438169155"/>
      <point x="64.50069948072945" y="726.4995438169155" type="qcurve" smooth="yes"/>
      <point x="81.00103401499138" y="726.4995438169155"/>
      <point x="99.00139896145892" y="707.4992396948593"/>
    </contour>
    <contour>
      <point x="296.0015814346927" y="691.498935572803" type="qcurve" smooth="yes"/>
      <point x="296.0015814346927" y="675.9986618629523"/>
      <point x="278.5011860760195" y="656.4983273286904"/>
      <point x="261.50088195396324" y="656.4983273286904" type="qcurve" smooth="yes"/>
      <point x="245.00054741970132" y="656.4983273286904"/>
      <point x="227.00018247323376" y="675.4986314507468"/>
      <point x="227.00018247323376" y="691.498935572803" type="qcurve" smooth="yes"/>
      <point x="227.00018247323376" y="706.9992092826536"/>
      <point x="244.50057783190695" y="726.4995438169155"/>
      <point x="261.50088195396324" y="726.4995438169155" type="qcurve" smooth="yes"/>
      <point x="278.00121648822517" y="726.4995438169155"/>
      <point x="296.0015814346927" y="707.4992396948593"/>
    </contour>
  </outline>
</glyph>
<glyph name="dotaccentcomb.case" format="2">
  <anchor x="103.50003041220563" y="515.0003041220563" name="_top"/>
  <anchor x="105.0" y="741.4999087633831" name="top"/>
  <outline>
    <contour>
      <point x="133" y="678" type="qcurve" smooth="yes"/>
      <point x="133" y="665"/>
      <point x="119" y="649"/>
      <point x="105" y="649" type="qcurve" smooth="yes"/>
      <point x="91" y="649"/>
      <point x="77" y="665"/>
      <point x="77" y="678" type="qcurve" smooth="yes"/>
      <point x="77" y="690"/>
      <point x="91" y="707"/>
      <point x="105" y="707" type="qcurve" smooth="yes"/>
      <point x="118" y="707"/>
      <point x="133" y="691"/>
    </contour>
  </outline>
</glyph>
<glyph name="five.dnom" format="2">
  <advance width="355"/>
  <outline>
    <contour>
      <point x="306.0" y="113.50015206102815" type="qcurve"/>
      <point x="306.0" y="57.90392920256152"/>
      <point x="228.6753613443564" y="-9.0"/>
      <point x="166.99975670235497" y="-9.0" type="qcurve"/>
      <point x="142.09449162368935" y="-9.0"/>
      <point x="84.76733005484681" y="11.685923070683149"/>
      <point x="64.99969587794371" y="28.0" type="qcurve"/>
      <point x="79.50015206102815" y="50.00072989293509" type="line"/>
      <point x="101.77639024326992" y="31.190919834978175"/>
      <point x="146.2271261957365" y="14.000912366168862"/>
      <point x="170.99975670235497" y="14.000912366168862" type="qcurve"/>
      <point x="221.0762727236027" y="14.000912366168862"/>
      <point x="281.49887474839176" y="63.941684533317584"/>
      <point x="281.49887474839176" y="106.50015206102815" type="qcurve"/>
      <point x="281.49887474839176" y="151.40877849279673"/>
      <point x="223.99939175588742" y="203.49923969485928"/>
      <point x="176.99981752676624" y="203.49923969485928" type="qcurve"/>
      <point x="152.49996958779437" y="203.49923969485928"/>
      <point x="110.24937479811992" y="193.4359714481498"/>
      <point x="89.00018247323378" y="170.49942216809305" type="qcurve"/>
      <point x="65.99993917558874" y="174.50015206102813" type="line"/>
      <point x="90.49990876338312" y="345.0" type="line"/>
      <point x="289.0" y="345.0" type="line"/>
      <point x="289.0" y="319.49911804603676" type="line"/>
      <point x="81.50088195396323" y="319.49911804603676" type="line"/>
      <point x="107.00091236616886" y="338.9991484582424" type="line"/>
      <point x="80.00115566381389" y="195.99951340470994" type="line"/>
      <point x="76.00060824411257" y="196.49984793897187" type="line"/>
      <point x="97.213364929108" y="214.21281750940668"/>
      <point x="144.50045618308442" y="227.50015206102813"/>
      <point x="181.00036494646756" y="227.50015206102813" type="qcurve"/>
      <point x="236.50015206102813" y="227.50015206102813"/>
      <point x="306.0" y="161.6652863275743"/>
    </contour>
  </outline>
</glyph>
<glyph name="four.dnom" format="2">
  <advance width="390"/>
  <outline>
    <contour>
      <point x="279.0" y="0.9999391755887426" type="line"/>
      <point x="256.498935572803" y="0.9999391755887426" type="line"/>
      <point x="256.498935572803" y="99.50009123661688" type="line"/>
      <point x="256.498935572803" y="111.5002128854394" type="line"/>
      <point x="256.498935572803" y="343.99890516059736" type="line"/>
      <point x="268.99933093147615" y="337.4987530995692" type="line"/>
      <point x="93.50033453426192" y="109.0004257708788" type="line"/>
      <point x="75.50076030514072" y="107.00085154175761" type="line"/>
      <point x="340.0" y="107.00085154175761" type="line"/>
      <point x="340.0" y="83.99993917558874" type="line"/>
      <point x="51.5002128854394" y="83.99993917558874" type="line"/>
      <point x="47.99993917558874" y="99.00103401499138" type="line"/>
      <point x="251.99920928265365" y="356.0" type="line"/>
      <point x="279.0" y="356.0" type="line"/>
    </contour>
  </outline>
</glyph>
<glyph name="hookabovecomb.case" format="2">
  <anchor x="150.0003041220563" y="513.0004257708788" name="_top"/>
  <anchor x="155.0" y="730.0006082441125" name="top"/>
  <outline>
    <contour>
      <point x="78.50009123661688" y="689.9995134047099" type="qcurve"/>
      <point x="58.99981752676623" y="712.5000304122057" type="line"/>
      <point x="82.49984793897185" y="737.5000304122057"/>
      <point x="133.9996958779437" y="758.5000304122057"/>
      <point x="159.9996958779437" y="758.5000304122057" type="qcurve"/>
      <point x="194.0" y="758.5000304122057"/>
      <point x="232.0003041220563" y="723.4655817831682"/>
      <point x="232.0003041220563" y="694.4996654657381" type="qcurve"/>
      <point x="232.0003041220563" y="674.0292489699582"/>
      <point x="212.31241643821394" y="644.4512412189978"/>
      <point x="199.00048659529006" y="632.999756702355" type="qcurve" smooth="yes"/>
      <point x="185.63516853301334" y="619.8370316206278"/>
      <point x="172.5006386563182" y="596.4997871145606"/>
      <point x="173.00060824411258" y="578.0" type="qcurve"/>
      <point x="140.99987835117747" y="578.0" type="line"/>
      <point x="140.99987835117747" y="593.3297399980636"/>
      <point x="157.9996958779437" y="627.4997871145606"/>
      <point x="168.99963505353244" y="638.999756702355" type="qcurve" smooth="yes"/>
      <point x="179.00187949518408" y="648.9255216206172"/>
      <point x="202.99945258029868" y="675.4997871145606"/>
      <point x="202.99945258029868" y="691.9995742291212" type="qcurve"/>
      <point x="202.99945258029868" y="708.4995438169155"/>
      <point x="178.0678154893413" y="727.499422168093"/>
      <point x="157.49966546573808" y="727.499422168093" type="qcurve"/>
      <point x="139.1889623305742" y="727.499422168093"/>
      <point x="100.57724834575818" y="712.0766705138512"/>
    </contour>
  </outline>
</glyph>
<glyph name="macroncomb.case" format="2">
  <anchor x="214.0" y="536.0" name="_top"/>
  <anchor x="214.0" y="709.0" name="top"/>
  <outline>
    <contour>
      <point x="345.0007298929351" y="613.4999695877943" type="line"/>
      <point x="84.49930051927055" y="613.4999695877943" type="line"/>
      <point x="84.49930051927055" y="645.0008515417576" type="line"/>
      <point x="345.0007298929351" y="645.0008515417576" type="line"/>
    </contour>
  </outline>
</glyph>
